<svg width="50" height="38" viewBox="0 0 50 38" fill="none" xmlns="http://www.w3.org/2000/svg">
<g clip-path="url(#clip0_153_3619)">
<rect x="1.25" y="1.02344" width="48" height="36" rx="4" fill="#5FBA8E"/>
<path d="M11.4375 24.5039C12.7559 24.499 13.708 25.2363 13.7129 26.3203C13.708 27.3945 12.7559 28.1367 11.4375 28.127C10.124 28.1367 9.17676 27.3945 9.18164 26.3203C9.17676 25.2363 10.124 24.499 11.4375 24.5039ZM8.55664 28.8105C10.1729 28.8105 12.4043 28.7764 14.3184 28.4883L14.3867 29.1816C13.5859 29.333 12.7607 29.4258 11.9551 29.4795V32.5801H11.0273V29.5332C10.1777 29.5723 9.37695 29.5771 8.68359 29.582L8.55664 28.8105ZM10.0801 26.3203C10.0703 26.9551 10.6416 27.375 11.4375 27.3652C12.2529 27.375 12.8242 26.9551 12.8242 26.3203C12.8242 25.6807 12.2529 25.251 11.4375 25.2559C10.6416 25.251 10.0703 25.6807 10.0801 26.3203ZM14.9238 32.8535V24.1133H15.8418V32.8535H14.9238ZM24.2051 24.1035V32.8535H23.2773V24.1035H24.2051ZM17.0859 30.4609C18.4385 29.8555 19.3369 28.3809 19.3418 26.916V26.3398H17.3496V25.5977H19.332V24.2793H20.25V25.5977H22.2129V26.3398H20.25V26.916C20.2549 28.3125 21.1729 29.7383 22.5352 30.3145L22.0273 31.0273C21.0166 30.5879 20.2158 29.6748 19.8105 28.5713C19.415 29.7432 18.6191 30.7148 17.6035 31.1738L17.0859 30.4609ZM34.8379 24.1133V30.5781H33.9102V28.3027H31.9961V29.123H27.9629V24.6895H28.8906V26.1738H31.0781V24.6895H31.9961V25.666H33.9102V24.1133H34.8379ZM28.8906 28.3711H31.0781V26.8867H28.8906V28.3711ZM29.125 32.668V29.9434H30.0625V31.916H35.0332V32.668H29.125ZM31.9961 27.5508H33.9102V26.4277H31.9961V27.5508ZM43.2305 24.1133V29.2891H42.3027V28.2246H40.0957V27.4629H42.3027V26.3984H40.1885C39.6221 27.8047 38.3086 28.7959 36.4141 29.3379L36.043 28.6152C38.1133 28.0244 39.3242 26.9111 39.4902 25.5H36.4922V24.7383H40.4961C40.4961 25.0605 40.4619 25.373 40.4033 25.666H42.3027V24.1133H43.2305ZM37.4004 31.0957C37.4004 30.0361 38.5527 29.3916 40.3496 29.3867C42.1221 29.3916 43.2842 30.0361 43.2891 31.0957C43.2842 32.1602 42.1221 32.8145 40.3496 32.8145C38.5527 32.8145 37.4004 32.1602 37.4004 31.0957ZM38.3184 31.0957C38.3184 31.7109 39.0996 32.0674 40.3496 32.0723C41.5752 32.0674 42.3564 31.7109 42.3613 31.0957C42.3564 30.4707 41.5752 30.1143 40.3496 30.1191C39.0996 30.1143 38.3184 30.4707 38.3184 31.0957Z" fill="white"/>
<path fill-rule="evenodd" clip-rule="evenodd" d="M18.3209 15.0361C17.944 14.1262 17.75 13.1509 17.75 12.166C17.75 11.1811 17.944 10.2058 18.3209 9.29589C18.6978 8.38595 19.2503 7.55915 19.9467 6.86271C20.6431 6.16628 21.4699 5.61383 22.3799 5.23692C23.2898 4.86001 24.2651 4.66602 25.25 4.66602C26.2349 4.66602 27.2102 4.86001 28.1201 5.23692C29.0301 5.61383 29.8569 6.16628 30.5533 6.86271C31.2497 7.55915 31.8022 8.38595 32.1791 9.29589C32.556 10.2058 32.75 11.1811 32.75 12.166C32.75 13.1509 32.556 14.1262 32.1791 15.0361C31.8022 15.9461 31.2497 16.7729 30.5533 17.4693C29.8569 18.1658 29.0301 18.7182 28.1201 19.0951C27.2102 19.472 26.2349 19.666 25.25 19.666C24.2651 19.666 23.2898 19.472 22.3799 19.0951C21.4699 18.7182 20.6431 18.1658 19.9467 17.4693C19.2503 16.7729 18.6978 15.9461 18.3209 15.0361ZM24.4167 12.9993L25.25 16.3327L28.5833 8.83268L21.0833 12.166L24.4167 12.9993Z" fill="white"/>
</g>
<rect x="1.25" y="1.02344" width="48" height="36" rx="4" stroke="#F2F2F2" stroke-linecap="round" stroke-linejoin="round" stroke-dasharray="4 3"/>
<defs>
<clipPath id="clip0_153_3619">
<rect x="1.25" y="1.02344" width="48" height="36" rx="4" fill="white"/>
</clipPath>
</defs>
</svg>
