<svg width="162" height="38" viewBox="0 0 162 38" fill="none" xmlns="http://www.w3.org/2000/svg">
<path d="M161.25 33.0234C161.25 35.2326 159.459 37.0234 157.25 37.0234L81.25 37.0234L81.25 1.02344L157.25 1.02344C159.459 1.02344 161.25 2.8143 161.25 5.02344L161.25 33.0234Z" fill="white"/>
<path fill-rule="evenodd" clip-rule="evenodd" d="M83.65 37.0234C83.65 37.2996 83.4261 37.5234 83.15 37.5234L81.25 37.5234L81.25 37.0234L81.25 36.5234L83.15 36.5234C83.4261 36.5234 83.65 36.7473 83.65 37.0234ZM86.95 36.5234C86.6739 36.5234 86.45 36.7473 86.45 37.0234C86.45 37.2996 86.6739 37.5234 86.95 37.5234L90.75 37.5234C91.0261 37.5234 91.25 37.2996 91.25 37.0234C91.25 36.7473 91.0261 36.5234 90.75 36.5234L86.95 36.5234ZM94.55 36.5234C94.2739 36.5234 94.05 36.7473 94.05 37.0234C94.05 37.2996 94.2739 37.5234 94.55 37.5234L98.35 37.5234C98.6261 37.5234 98.85 37.2996 98.85 37.0234C98.85 36.7473 98.6261 36.5234 98.35 36.5234L94.55 36.5234ZM102.15 36.5234C101.874 36.5234 101.65 36.7473 101.65 37.0234C101.65 37.2996 101.874 37.5234 102.15 37.5234L105.95 37.5234C106.226 37.5234 106.45 37.2996 106.45 37.0234C106.45 36.7473 106.226 36.5234 105.95 36.5234L102.15 36.5234ZM109.75 36.5234C109.474 36.5234 109.25 36.7473 109.25 37.0234C109.25 37.2996 109.474 37.5234 109.75 37.5234L113.55 37.5234C113.826 37.5234 114.05 37.2996 114.05 37.0234C114.05 36.7473 113.826 36.5234 113.55 36.5234L109.75 36.5234ZM117.35 36.5234C117.074 36.5234 116.85 36.7473 116.85 37.0234C116.85 37.2996 117.074 37.5234 117.35 37.5234L121.15 37.5234C121.426 37.5234 121.65 37.2996 121.65 37.0234C121.65 36.7473 121.426 36.5234 121.15 36.5234L117.35 36.5234ZM124.95 36.5234C124.674 36.5234 124.45 36.7473 124.45 37.0234C124.45 37.2996 124.674 37.5234 124.95 37.5234L128.75 37.5234C129.026 37.5234 129.25 37.2996 129.25 37.0234C129.25 36.7473 129.026 36.5234 128.75 36.5234L124.95 36.5234ZM132.55 36.5234C132.274 36.5234 132.05 36.7473 132.05 37.0234C132.05 37.2996 132.274 37.5234 132.55 37.5234L136.35 37.5234C136.626 37.5234 136.85 37.2996 136.85 37.0234C136.85 36.7473 136.626 36.5234 136.35 36.5234L132.55 36.5234ZM140.15 36.5234C139.874 36.5234 139.65 36.7473 139.65 37.0234C139.65 37.2996 139.874 37.5234 140.15 37.5234L143.95 37.5234C144.226 37.5234 144.45 37.2996 144.45 37.0234C144.45 36.7473 144.226 36.5234 143.95 36.5234L140.15 36.5234ZM147.75 36.5234C147.474 36.5234 147.25 36.7473 147.25 37.0234C147.25 37.2996 147.474 37.5234 147.75 37.5234L151.55 37.5234C151.826 37.5234 152.05 37.2996 152.05 37.0234C152.05 36.7473 151.826 36.5234 151.55 36.5234L147.75 36.5234ZM155.35 36.5234C155.074 36.5234 154.85 36.7473 154.85 37.0234C154.85 37.2996 155.074 37.5234 155.35 37.5234L157.25 37.5234C157.859 37.5234 158.441 37.4021 158.973 37.1818C159.228 37.076 159.349 36.7835 159.243 36.5284C159.137 36.2733 158.845 36.1523 158.59 36.2581C158.178 36.4289 157.725 36.5234 157.25 36.5234L155.35 36.5234ZM160.75 33.0234C160.75 33.4989 160.655 33.9511 160.485 34.3631C160.379 34.6181 160.5 34.9107 160.755 35.0165C161.01 35.1222 161.303 35.0012 161.408 34.7461C161.629 34.2148 161.75 33.6327 161.75 33.0234L161.75 31.2734C161.75 30.9973 161.526 30.7734 161.25 30.7734C160.974 30.7734 160.75 30.9973 160.75 31.2734L160.75 33.0234ZM160.75 27.7734C160.75 28.0496 160.974 28.2734 161.25 28.2734C161.526 28.2734 161.75 28.0496 161.75 27.7734L161.75 24.2734C161.75 23.9973 161.526 23.7734 161.25 23.7734C160.974 23.7734 160.75 23.9973 160.75 24.2734L160.75 27.7734ZM160.75 20.7734C160.75 21.0496 160.974 21.2734 161.25 21.2734C161.526 21.2734 161.75 21.0496 161.75 20.7734L161.75 17.2734C161.75 16.9973 161.526 16.7734 161.25 16.7734C160.974 16.7734 160.75 16.9973 160.75 17.2734L160.75 20.7734ZM160.75 13.7734C160.75 14.0496 160.974 14.2734 161.25 14.2734C161.526 14.2734 161.75 14.0496 161.75 13.7734L161.75 10.2734C161.75 9.9973 161.526 9.77344 161.25 9.77344C160.974 9.77344 160.75 9.9973 160.75 10.2734L160.75 13.7734ZM160.75 6.77344C160.75 7.04958 160.974 7.27344 161.25 7.27344C161.526 7.27344 161.75 7.04958 161.75 6.77344L161.75 5.02344C161.75 4.98536 161.75 4.94739 161.749 4.90953C161.734 4.34163 161.615 3.79884 161.408 3.30076C161.303 3.04568 161.01 2.92464 160.755 3.03042C160.5 3.1362 160.379 3.42873 160.485 3.68381C160.63 4.03392 160.72 4.41305 160.744 4.81085C160.748 4.88115 160.75 4.95203 160.75 5.02344L160.75 6.77344ZM159.243 1.51849C159.137 1.77357 158.845 1.8946 158.59 1.78882C158.229 1.63934 157.838 1.54826 157.427 1.52783C157.369 1.52491 157.309 1.52344 157.25 1.52344L155.35 1.52344C155.074 1.52344 154.85 1.29958 154.85 1.02344C154.85 0.747296 155.074 0.523438 155.35 0.523438L157.25 0.523438C157.288 0.523438 157.326 0.523911 157.364 0.524853C157.461 0.527272 157.557 0.532769 157.653 0.541256C158.116 0.582413 158.56 0.693863 158.973 0.865097C159.228 0.970875 159.349 1.26341 159.243 1.51849ZM151.55 0.523438C151.826 0.523438 152.05 0.747296 152.05 1.02344C152.05 1.29958 151.826 1.52344 151.55 1.52344L147.75 1.52344C147.474 1.52344 147.25 1.29958 147.25 1.02344C147.25 0.747297 147.474 0.523439 147.75 0.523439L151.55 0.523438ZM143.95 0.523439C144.226 0.523439 144.45 0.747297 144.45 1.02344C144.45 1.29958 144.226 1.52344 143.95 1.52344L140.15 1.52344C139.874 1.52344 139.65 1.29958 139.65 1.02344C139.65 0.747297 139.874 0.523439 140.15 0.523439L143.95 0.523439ZM136.35 0.52344C136.626 0.52344 136.85 0.747298 136.85 1.02344C136.85 1.29958 136.626 1.52344 136.35 1.52344L132.55 1.52344C132.274 1.52344 132.05 1.29958 132.05 1.02344C132.05 0.747298 132.274 0.52344 132.55 0.52344L136.35 0.52344ZM128.75 0.52344C129.026 0.52344 129.25 0.747298 129.25 1.02344C129.25 1.29958 129.026 1.52344 128.75 1.52344L124.95 1.52344C124.674 1.52344 124.45 1.29958 124.45 1.02344C124.45 0.747299 124.674 0.523441 124.95 0.523441L128.75 0.52344ZM121.15 0.523441C121.426 0.523441 121.65 0.747299 121.65 1.02344C121.65 1.29958 121.426 1.52344 121.15 1.52344L117.35 1.52344C117.074 1.52344 116.85 1.29958 116.85 1.02344C116.85 0.747299 117.074 0.523441 117.35 0.523441L121.15 0.523441ZM113.55 0.523442C113.826 0.523442 114.05 0.7473 114.05 1.02344C114.05 1.29958 113.826 1.52344 113.55 1.52344L109.75 1.52344C109.474 1.52344 109.25 1.29958 109.25 1.02344C109.25 0.7473 109.474 0.523442 109.75 0.523442L113.55 0.523442ZM105.95 0.523442C106.226 0.523442 106.45 0.7473 106.45 1.02344C106.45 1.29958 106.226 1.52344 105.95 1.52344L102.15 1.52344C101.874 1.52344 101.65 1.29958 101.65 1.02344C101.65 0.747301 101.874 0.523443 102.15 0.523443L105.95 0.523442ZM98.35 0.523443C98.6261 0.523443 98.85 0.747301 98.85 1.02344C98.85 1.29959 98.6261 1.52344 98.35 1.52344L94.55 1.52344C94.2739 1.52344 94.05 1.29959 94.05 1.02344C94.05 0.747301 94.2739 0.523443 94.55 0.523443L98.35 0.523443ZM90.75 0.523444C91.0262 0.523444 91.25 0.747301 91.25 1.02344C91.25 1.29959 91.0262 1.52344 90.75 1.52344L86.95 1.52344C86.6739 1.52344 86.45 1.29959 86.45 1.02344C86.45 0.747302 86.6739 0.523444 86.95 0.523444L90.75 0.523444ZM83.15 0.523444C83.4261 0.523444 83.65 0.747302 83.65 1.02344C83.65 1.29959 83.4261 1.52344 83.15 1.52344L81.25 1.52344L81.25 1.02344L81.25 0.523444L83.15 0.523444Z" fill="#F2F2F2"/>
<path d="M81.25 37.0234L5.25 37.0234C3.04086 37.0234 1.25 35.2326 1.25 33.0234L1.25 5.02344C1.25 2.8143 3.04086 1.02344 5.25 1.02344L81.25 1.02344L81.25 37.0234Z" fill="#5FBA8E"/>
<path fill-rule="evenodd" clip-rule="evenodd" d="M78.85 37.0234C78.85 36.7473 79.0739 36.5234 79.35 36.5234L81.25 36.5234L81.25 37.0234L81.25 37.5234L79.35 37.5234C79.0739 37.5234 78.85 37.2996 78.85 37.0234ZM75.55 36.5234L71.75 36.5234C71.4739 36.5234 71.25 36.7473 71.25 37.0234C71.25 37.2996 71.4739 37.5234 71.75 37.5234L75.55 37.5234C75.8261 37.5234 76.05 37.2996 76.05 37.0234C76.05 36.7473 75.8261 36.5234 75.55 36.5234ZM67.95 37.5234C68.2261 37.5234 68.45 37.2996 68.45 37.0234C68.45 36.7473 68.2261 36.5234 67.95 36.5234L64.15 36.5234C63.8739 36.5234 63.65 36.7473 63.65 37.0234C63.65 37.2996 63.8739 37.5234 64.15 37.5234L67.95 37.5234ZM60.35 37.5234C60.6261 37.5234 60.85 37.2996 60.85 37.0234C60.85 36.7473 60.6261 36.5234 60.35 36.5234L56.55 36.5234C56.2739 36.5234 56.05 36.7473 56.05 37.0234C56.05 37.2996 56.2739 37.5234 56.55 37.5234L60.35 37.5234ZM52.75 37.5234C53.0261 37.5234 53.25 37.2996 53.25 37.0234C53.25 36.7473 53.0261 36.5234 52.75 36.5234L48.95 36.5234C48.6739 36.5234 48.45 36.7473 48.45 37.0234C48.45 37.2996 48.6739 37.5234 48.95 37.5234L52.75 37.5234ZM45.15 37.5234C45.4261 37.5234 45.65 37.2996 45.65 37.0234C45.65 36.7473 45.4261 36.5234 45.15 36.5234L41.35 36.5234C41.0739 36.5234 40.85 36.7473 40.85 37.0234C40.85 37.2996 41.0739 37.5234 41.35 37.5234L45.15 37.5234ZM37.55 37.5234C37.8261 37.5234 38.05 37.2996 38.05 37.0234C38.05 36.7473 37.8261 36.5234 37.55 36.5234L33.75 36.5234C33.4739 36.5234 33.25 36.7473 33.25 37.0234C33.25 37.2996 33.4739 37.5234 33.75 37.5234L37.55 37.5234ZM29.95 37.5234C30.2261 37.5234 30.45 37.2996 30.45 37.0234C30.45 36.7473 30.2261 36.5234 29.95 36.5234L26.15 36.5234C25.8739 36.5234 25.65 36.7473 25.65 37.0234C25.65 37.2996 25.8739 37.5234 26.15 37.5234L29.95 37.5234ZM22.35 37.5234C22.6261 37.5234 22.85 37.2996 22.85 37.0234C22.85 36.7473 22.6261 36.5234 22.35 36.5234L18.55 36.5234C18.2739 36.5234 18.05 36.7473 18.05 37.0234C18.05 37.2996 18.2739 37.5234 18.55 37.5234L22.35 37.5234ZM14.75 37.5234C15.0262 37.5234 15.25 37.2996 15.25 37.0234C15.25 36.7473 15.0262 36.5234 14.75 36.5234L10.95 36.5234C10.6739 36.5234 10.45 36.7473 10.45 37.0234C10.45 37.2996 10.6739 37.5234 10.95 37.5234L14.75 37.5234ZM7.15 37.5234C7.42615 37.5234 7.65 37.2996 7.65 37.0234C7.65 36.7473 7.42615 36.5234 7.15 36.5234L5.25 36.5234C5.19057 36.5234 5.13149 36.522 5.07281 36.519C4.66209 36.4986 4.27086 36.4075 3.91038 36.2581C3.6553 36.1523 3.36276 36.2733 3.25699 36.5284C3.15121 36.7835 3.27224 37.076 3.52732 37.1818C4.00416 37.3795 4.52198 37.4975 5.06358 37.5196C5.12541 37.5222 5.18757 37.5234 5.25 37.5234L7.15 37.5234ZM1.74505 35.0165C1.48997 35.1222 1.19743 35.0012 1.09166 34.7461C0.926422 34.3477 0.816856 33.9206 0.7724 33.4749C0.757583 33.3264 0.75 33.1758 0.75 33.0234L0.749999 31.2734C0.749999 30.9973 0.973854 30.7734 1.25 30.7734C1.52615 30.7734 1.75 30.9973 1.75 31.2734L1.75 33.0234C1.75 33.1821 1.76052 33.3382 1.7809 33.491C1.82159 33.7962 1.90155 34.0886 2.01539 34.3631C2.12116 34.6181 2.00013 34.9107 1.74505 35.0165ZM1.75 27.7734L1.75 24.2734C1.75 23.9973 1.52614 23.7734 1.25 23.7734C0.973853 23.7734 0.749999 23.9973 0.749999 24.2734L0.749999 27.7734C0.749999 28.0496 0.973853 28.2734 1.25 28.2734C1.52615 28.2734 1.75 28.0496 1.75 27.7734ZM0.749999 20.7734C0.749999 21.0496 0.973853 21.2734 1.25 21.2734C1.52614 21.2734 1.75 21.0496 1.75 20.7734L1.75 17.2734C1.75 16.9973 1.52614 16.7734 1.25 16.7734C0.973852 16.7734 0.749998 16.9973 0.749998 17.2734L0.749999 20.7734ZM0.749998 13.7734C0.749998 14.0496 0.973852 14.2734 1.25 14.2734C1.52614 14.2734 1.75 14.0496 1.75 13.7734L1.75 10.2734C1.75 9.9973 1.52614 9.77344 1.25 9.77344C0.973852 9.77344 0.749998 9.9973 0.749998 10.2734L0.749998 13.7734ZM0.749997 6.77344C0.749997 7.04959 0.973851 7.27344 1.25 7.27344C1.52614 7.27344 1.75 7.04959 1.75 6.77344L1.75 5.02344C1.75 4.90457 1.7559 4.78716 1.76744 4.67147C1.80204 4.32439 1.88725 3.9928 2.01539 3.68382C2.12116 3.42874 2.00013 3.13621 1.74505 3.03043C1.48996 2.92465 1.19743 3.04568 1.09166 3.30077C0.94753 3.64831 0.845761 4.01764 0.792607 4.40207C0.764508 4.6053 0.749997 4.81275 0.749997 5.02344L0.749997 6.77344ZM3.25699 1.51849C3.1512 1.26341 3.27224 0.970882 3.52732 0.865104C3.92578 0.699866 4.35286 0.590304 4.79852 0.545848C4.94707 0.531028 5.09768 0.523444 5.25 0.523444L7.15 0.523444C7.42614 0.523444 7.65 0.747302 7.65 1.02344C7.65 1.29959 7.42614 1.52344 7.15 1.52344L5.25 1.52344C5.09087 1.52344 4.93435 1.53403 4.78109 1.55453C4.47637 1.59527 4.18448 1.67516 3.91037 1.78883C3.65529 1.89461 3.36276 1.77357 3.25699 1.51849ZM10.95 1.52344C10.6739 1.52344 10.45 1.29959 10.45 1.02344C10.45 0.747302 10.6739 0.523444 10.95 0.523444L14.75 0.523443C15.0261 0.523443 15.25 0.747301 15.25 1.02344C15.25 1.29959 15.0261 1.52344 14.75 1.52344L10.95 1.52344ZM18.55 1.52344C18.2739 1.52344 18.05 1.29959 18.05 1.02344C18.05 0.747301 18.2739 0.523443 18.55 0.523443L22.35 0.523443C22.6261 0.523443 22.85 0.7473 22.85 1.02344C22.85 1.29958 22.6261 1.52344 22.35 1.52344L18.55 1.52344ZM26.15 1.52344C25.8739 1.52344 25.65 1.29958 25.65 1.02344C25.65 0.7473 25.8739 0.523442 26.15 0.523442L29.95 0.523442C30.2261 0.523442 30.45 0.7473 30.45 1.02344C30.45 1.29958 30.2261 1.52344 29.95 1.52344L26.15 1.52344ZM33.75 1.52344C33.4739 1.52344 33.25 1.29958 33.25 1.02344C33.25 0.7473 33.4739 0.523442 33.75 0.523442L37.55 0.523441C37.8261 0.523441 38.05 0.747299 38.05 1.02344C38.05 1.29958 37.8261 1.52344 37.55 1.52344L33.75 1.52344ZM41.35 1.52344C41.0739 1.52344 40.85 1.29958 40.85 1.02344C40.85 0.747299 41.0739 0.523441 41.35 0.523441L45.15 0.523441C45.4261 0.523441 45.65 0.747298 45.65 1.02344C45.65 1.29958 45.4261 1.52344 45.15 1.52344L41.35 1.52344ZM48.95 1.52344C48.6739 1.52344 48.45 1.29958 48.45 1.02344C48.45 0.747298 48.6739 0.52344 48.95 0.52344L52.75 0.52344C53.0261 0.52344 53.25 0.747298 53.25 1.02344C53.25 1.29958 53.0261 1.52344 52.75 1.52344L48.95 1.52344ZM56.55 1.52344C56.2739 1.52344 56.05 1.29958 56.05 1.02344C56.05 0.747298 56.2739 0.52344 56.55 0.52344L60.35 0.523439C60.6261 0.523439 60.85 0.747297 60.85 1.02344C60.85 1.29958 60.6261 1.52344 60.35 1.52344L56.55 1.52344ZM64.15 1.52344C63.8738 1.52344 63.65 1.29958 63.65 1.02344C63.65 0.747297 63.8738 0.523439 64.15 0.523439L67.95 0.523439C68.2261 0.523439 68.45 0.747296 68.45 1.02344C68.45 1.29958 68.2261 1.52344 67.95 1.52344L64.15 1.52344ZM71.75 1.52344C71.4738 1.52344 71.25 1.29958 71.25 1.02344C71.25 0.747296 71.4738 0.523438 71.75 0.523438L75.55 0.523438C75.8261 0.523438 76.05 0.747296 76.05 1.02344C76.05 1.29958 75.8261 1.52344 75.55 1.52344L71.75 1.52344ZM79.35 1.52344C79.0739 1.52344 78.85 1.29958 78.85 1.02344C78.85 0.747296 79.0739 0.523438 79.35 0.523438L81.25 0.523438L81.25 1.02344L81.25 1.52344L79.35 1.52344Z" fill="#F2F2F2"/>
<path d="M39.127 18.082V19.1211H35.4219V22.1152H40.4121V23.1816H29.2012V22.1152H34.1367V19.1211H30.5957V13.3789H39.0176V14.4316H31.8945V18.082H39.127ZM52.5117 22.0879V23.168H41.3008V22.0879H46.2363V19.5723H42.5859V13.2695H43.8848V15.375H49.9004V13.2695H51.1855V19.5723H47.5215V22.0879H52.5117ZM43.8848 18.5195H49.9004V16.4277H43.8848V18.5195Z" fill="white"/>
<path d="M113.398 16.373C113.398 18.2598 114.554 20.2559 116.379 21.1309L115.641 22.1152C114.308 21.4863 113.303 20.208 112.783 18.7109C112.243 20.3311 111.177 21.6846 109.775 22.334L109.051 21.3359C110.917 20.4814 112.12 18.3896 112.127 16.373V15.5664H109.42V14.5273H112.113V12.6816H113.426V14.5273H116.092V15.5664H113.398V16.373ZM117.445 24.6855V12.4355H118.744V17.3711H120.713V18.4648H118.744V24.6855H117.445ZM132.717 14.2676V15.3477H130.926V16.8516H132.717V17.9316H130.926V19.8457H129.627V12.4492H130.926V14.2676H132.717ZM121.793 14.2402V13.1875H127.371V16.6191H123.105V18.1094C125.231 18.1094 126.735 18.0273 128.52 17.7266L128.656 18.7793C126.763 19.1143 125.143 19.1895 122.791 19.1758H121.807V15.6211H126.1V14.2402H121.793ZM122.846 22.416C122.846 20.9941 124.411 20.1465 126.961 20.1465C129.477 20.1465 131.035 20.9941 131.035 22.416C131.035 23.8379 129.477 24.6582 126.961 24.6582C124.411 24.6582 122.846 23.8379 122.846 22.416ZM124.117 22.416C124.11 23.2158 125.163 23.6738 126.961 23.6602C128.731 23.6738 129.771 23.2158 129.764 22.416C129.771 21.623 128.731 21.165 126.961 21.1719C125.163 21.165 124.11 21.623 124.117 22.416Z" fill="#767676"/>
</svg>
