<svg width="301" height="400" viewBox="0 0 301 400" fill="none" xmlns="http://www.w3.org/2000/svg">
<rect x="0.472656" width="300" height="400" rx="40" fill="white"/>
<g filter="url(#filter0_d_153_3578)">
<rect x="35.4727" y="43.2812" width="31" height="30.9998" rx="5.21296" fill="white"/>
<path fill-rule="evenodd" clip-rule="evenodd" d="M51.542 62.3081C64.1945 53.5758 54.7741 46.8927 50.9744 50.8001C47.1735 46.8927 37.753 53.5758 50.4067 62.3081L50.1356 62.8502C50.1186 62.8843 50.1084 62.9214 50.1057 62.9594C50.103 62.9974 50.1079 63.0356 50.1199 63.0717C50.1442 63.1447 50.1966 63.205 50.2654 63.2394C50.3342 63.2739 50.4139 63.2795 50.4869 63.2552C50.5599 63.2309 50.6202 63.1785 50.6546 63.1097L50.701 63.017C50.7114 63.214 50.7288 63.3819 50.7601 63.5383C50.8388 63.9368 51.001 64.2589 51.279 64.8149L51.2941 64.8474C51.5397 65.3362 51.5049 65.832 51.352 66.2908C51.1956 66.7565 50.928 67.1608 50.7334 67.4527C50.6907 67.5166 50.6751 67.5948 50.6901 67.6702C50.7051 67.7456 50.7494 67.812 50.8133 67.8547C50.8772 67.8974 50.9555 67.9129 51.0309 67.898C51.1063 67.883 51.1726 67.8386 51.2153 67.7747L51.22 67.7666C51.4123 67.4793 51.7192 67.0183 51.9011 66.475C52.0865 65.9201 52.1467 65.2574 51.8131 64.5879C51.5142 63.9913 51.3902 63.7399 51.3277 63.4248C51.3053 63.3144 51.291 63.2025 51.2848 63.09L51.2941 63.1097C51.3285 63.1785 51.3888 63.2309 51.4618 63.2552C51.5348 63.2795 51.6145 63.2739 51.6833 63.2394C51.7522 63.205 51.8045 63.1447 51.8288 63.0717C51.8531 62.9987 51.8475 62.919 51.8131 62.8502L51.542 62.3081ZM49.4985 51.128C48.1466 50.4213 46.2549 50.9635 45.4972 52.4428C45.2227 52.9792 45.0802 53.6939 45.2632 54.5859C45.3269 54.8987 45.8042 54.8141 45.8737 54.5037C46.2039 53.0487 47.2372 51.6516 49.3363 51.5751C49.6074 51.5659 49.7395 51.2531 49.4985 51.128Z" fill="url(#paint0_linear_153_3578)"/>
</g>
<g filter="url(#filter1_d_153_3578)">
<rect x="75.2188" y="43.2812" width="31" height="30.9998" rx="5.21296" fill="white" shape-rendering="crispEdges"/>
<path d="M90.8431 48.7969C90.4765 48.8017 90.1804 49.0977 90.1756 49.4644V53.9145C90.1756 54.2831 90.4745 54.582 90.8431 54.582C91.2118 54.582 91.5106 54.2831 91.5106 53.9145V49.4644C91.5059 49.0977 91.2098 48.8017 90.8431 48.7969Z" fill="url(#paint1_linear_153_3578)"/>
<path d="M90.8431 61.2571C90.4765 61.2619 90.1804 61.5579 90.1756 61.9246V66.3747C90.1756 66.7433 90.4745 67.0422 90.8431 67.0422C91.2118 67.0422 91.5106 66.7433 91.5106 66.3747V61.9246C91.5059 61.5579 91.2098 61.2619 90.8431 61.2571Z" fill="url(#paint2_linear_153_3578)"/>
<path d="M86.5443 50.6125C86.3348 50.3365 85.9505 50.2634 85.6543 50.4434C85.5085 50.5456 85.4095 50.7018 85.3795 50.8773C85.3494 51.0528 85.3906 51.233 85.4941 51.3779L87.9951 55.0181C88.1097 55.2592 88.3571 55.4088 88.6239 55.3984C88.8906 55.388 89.1256 55.2196 89.2211 54.9703C89.3167 54.721 89.2545 54.4387 89.0631 54.2527L86.5443 50.6125Z" fill="url(#paint3_linear_153_3578)"/>
<path d="M93.6912 60.821C93.4798 60.5187 93.0634 60.445 92.7611 60.6563C92.4588 60.8677 92.3851 61.2841 92.5965 61.5864L95.1419 65.2266C95.3533 65.5289 95.7697 65.6026 96.072 65.3912C96.3743 65.1798 96.448 64.7634 96.2367 64.4611L93.6912 60.821Z" fill="url(#paint4_linear_153_3578)"/>
<path d="M82.6727 55.6589L86.8558 57.1808C86.9295 57.1936 87.0047 57.1936 87.0783 57.1808C87.3654 57.138 87.592 56.9146 87.6387 56.6281C87.6854 56.3416 87.5417 56.0577 87.283 55.9259L83.1266 54.404C82.9574 54.3292 82.7646 54.3291 82.5953 54.4036C82.426 54.4781 82.2958 54.6204 82.2366 54.7956C82.1779 54.9678 82.191 55.1565 82.2731 55.319C82.3551 55.4814 82.4992 55.604 82.6727 55.6589Z" fill="url(#paint5_linear_153_3578)"/>
<path d="M99.0135 60.1802L94.8304 58.6582C94.6596 58.5894 94.468 58.5932 94.3001 58.6688C94.1321 58.7444 94.0022 58.8852 93.9404 59.0588C93.8689 59.2294 93.8714 59.4221 93.9473 59.5908C94.0232 59.7595 94.1658 59.8891 94.3409 59.9488L98.5596 61.4796C98.6337 61.5072 98.7119 61.5222 98.791 61.5241C99.0693 61.5228 99.3176 61.349 99.414 61.088C99.4887 60.9151 99.488 60.7189 99.412 60.5466C99.336 60.3743 99.1916 60.2415 99.0135 60.1802Z" fill="url(#paint6_linear_153_3578)"/>
<path d="M87.6213 58.8095C87.5754 58.6383 87.4633 58.4924 87.3097 58.4039C87.1561 58.3154 86.9736 58.2916 86.8024 58.3378L82.5036 59.4593C82.1704 59.5373 81.9502 59.8547 81.9938 60.1942C82.0373 60.5336 82.3306 60.7851 82.6727 60.7765C82.7318 60.7851 82.7917 60.7851 82.8507 60.7765L87.1495 59.6284C87.503 59.5287 87.7123 59.1653 87.6213 58.8095Z" fill="url(#paint7_linear_153_3578)"/>
<path d="M94.065 57.0295C94.1476 57.321 94.4118 57.5237 94.7147 57.5279C94.7708 57.5365 94.8278 57.5365 94.8838 57.5279L99.1826 56.3798C99.428 56.3349 99.6278 56.1569 99.7007 55.9183C99.7736 55.6798 99.7075 55.4205 99.5292 55.2461C99.3509 55.0716 99.0902 55.0112 98.8533 55.0893L94.5545 56.2374C94.2067 56.3292 93.9915 56.6773 94.065 57.0295Z" fill="url(#paint8_linear_153_3578)"/>
<path d="M87.7548 60.5896L84.8978 63.9716C84.7487 64.1701 84.722 64.4349 84.8285 64.6591C84.935 64.8833 85.1571 65.0299 85.4051 65.0397C85.6047 65.0419 85.7945 64.9535 85.9213 64.7994L88.7783 61.3906C88.8933 61.2551 88.9495 61.0793 88.9344 60.9022C88.9194 60.7251 88.8344 60.5614 88.6982 60.4472C88.3969 60.232 87.9791 60.2951 87.7548 60.5896Z" fill="url(#paint9_linear_153_3578)"/>
<path d="M93.4153 55.5165C93.6185 55.5085 93.8076 55.4107 93.9315 55.2495L96.7885 51.8674C96.9979 51.5952 96.963 51.2078 96.7084 50.9774C96.5729 50.8624 96.3971 50.8062 96.22 50.8213C96.0429 50.8363 95.8791 50.9213 95.765 51.0575L92.908 54.4218C92.793 54.5573 92.7368 54.7331 92.7518 54.9101C92.7669 55.0872 92.8519 55.251 92.9881 55.3652C93.1073 55.466 93.2592 55.5198 93.4153 55.5165Z" fill="url(#paint10_linear_153_3578)"/>
</g>
<g filter="url(#filter2_d_153_3578)">
<rect x="114.961" y="43.2812" width="31" height="30.9998" rx="5.21296" fill="white"/>
<path d="M134.764 55.3789H122.129V63.0029C122.129 63.9015 122.492 64.7634 123.138 65.3989C123.784 66.0343 124.661 66.3913 125.575 66.3913H131.318C132.232 66.3913 133.108 66.0343 133.754 65.3989C134.4 64.7634 134.764 63.9015 134.764 63.0029V62.1558V55.3789Z" fill="url(#paint11_linear_153_3578)"/>
<path d="M134.764 55.3789H135.625C136.539 55.3789 137.415 55.7359 138.062 56.3714C138.708 57.0068 139.071 57.8687 139.071 58.7674C139.071 59.666 138.708 60.5279 138.062 61.1633C137.415 61.7988 136.539 62.1558 135.625 62.1558H134.764M134.764 55.3789H122.129V63.0029C122.129 63.9015 122.492 64.7634 123.138 65.3989C123.784 66.0343 124.661 66.3913 125.575 66.3913H131.318C132.232 66.3913 133.108 66.0343 133.754 65.3989C134.4 64.7634 134.764 63.9015 134.764 63.0029M134.764 55.3789V63.0029M134.764 55.3789V62.1558M134.764 62.1558V63.0029M124.426 49.4492V51.9905M127.872 49.4492V51.9905M131.318 49.4492V51.9905" stroke="url(#paint12_linear_153_3578)" stroke-width="1.0582" stroke-linecap="round" stroke-linejoin="round"/>
</g>
<g filter="url(#filter3_d_153_3578)">
<rect x="154.707" y="43.2812" width="31" height="30.9998" rx="5.21296" fill="white"/>
<path d="M163.996 47.9316C163.302 47.9379 162.618 48.0794 161.988 48.3467C161.359 48.614 160.799 49.0009 160.346 49.4816C159.405 50.4888 158.895 51.7737 158.911 53.0983V54.1316C158.904 54.9347 159.106 55.7278 159.499 56.4461C159.891 57.1644 160.464 57.7876 161.171 58.2649V67.0482C161.171 67.7333 161.469 68.3904 161.999 68.8749C162.528 69.3593 163.247 69.6315 163.996 69.6315C164.746 69.6315 165.465 69.3593 165.994 68.8749C166.524 68.3904 166.822 67.7333 166.822 67.0482V58.3062C167.528 57.829 168.101 57.2057 168.494 56.4874C168.887 55.7691 169.089 54.976 169.082 54.1729V53.1396C169.109 51.8009 168.598 50.4995 167.647 49.4816C167.194 49.0009 166.634 48.614 166.005 48.3467C165.375 48.0794 164.69 47.9379 163.996 47.9316ZM166.822 54.1316C166.849 54.6314 166.739 55.1294 166.502 55.5805C166.265 56.0316 165.909 56.4215 165.466 56.7149C165.191 56.9032 164.967 57.1462 164.81 57.4255C164.653 57.7048 164.568 58.0131 164.562 58.3269V67.0482C164.562 67.1852 164.502 67.3166 164.396 67.4135C164.29 67.5104 164.146 67.5648 163.996 67.5648C163.847 67.5648 163.703 67.5104 163.597 67.4135C163.491 67.3166 163.431 67.1852 163.431 67.0482V58.3269C163.424 58.0131 163.339 57.7048 163.183 57.4255C163.026 57.1462 162.802 56.9032 162.527 56.7149C162.084 56.4215 161.728 56.0316 161.491 55.5805C161.254 55.1294 161.144 54.6314 161.171 54.1316V53.0983C161.158 52.2779 161.471 51.4812 162.052 50.856C162.285 50.589 162.581 50.3734 162.918 50.2252C163.254 50.077 163.623 50.0001 163.996 50.0001C164.37 50.0001 164.739 50.077 165.075 50.2252C165.412 50.3734 165.708 50.589 165.94 50.856C166.521 51.4812 166.835 52.2779 166.822 53.0983V54.1316ZM181.515 49.4816C181.515 49.2076 181.396 48.9447 181.184 48.751C180.972 48.5572 180.684 48.4483 180.384 48.4483C180.085 48.4483 179.797 48.5572 179.585 48.751C179.373 48.9447 179.254 49.2076 179.254 49.4816V54.1316C179.281 54.6314 179.171 55.1294 178.934 55.5805C178.698 56.0316 178.341 56.4215 177.898 56.7149C177.616 56.9085 177.387 57.1597 177.23 57.4486C177.073 57.7375 176.992 58.056 176.994 58.3786V67.0482C176.994 67.1852 176.934 67.3166 176.828 67.4135C176.722 67.5104 176.579 67.5648 176.429 67.5648C176.279 67.5648 176.135 67.5104 176.029 67.4135C175.923 67.3166 175.864 67.1852 175.864 67.0482V58.3269C175.857 58.0131 175.772 57.7048 175.615 57.4255C175.458 57.1462 175.234 56.9032 174.959 56.7149C174.518 56.4196 174.164 56.0293 173.927 55.5786C173.691 55.128 173.579 54.631 173.603 54.1316V49.4816C173.603 49.2076 173.484 48.9447 173.272 48.751C173.06 48.5572 172.773 48.4483 172.473 48.4483C172.173 48.4483 171.886 48.5572 171.674 48.751C171.462 48.9447 171.343 49.2076 171.343 49.4816V54.6483C171.343 54.7868 171.374 54.9238 171.433 55.0513C171.657 56.356 172.437 57.5265 173.603 58.3062V67.0482C173.603 67.7333 173.901 68.3904 174.431 68.8749C174.961 69.3593 175.679 69.6315 176.429 69.6315C177.178 69.6315 177.897 69.3593 178.427 68.8749C178.957 68.3904 179.254 67.7333 179.254 67.0482V58.3062C180.42 57.5265 181.2 56.356 181.424 55.0513C181.484 54.9238 181.514 54.7868 181.515 54.6483V49.4816ZM175.299 53.6149V49.4816C175.299 49.2076 175.418 48.9447 175.63 48.751C175.842 48.5572 176.129 48.4483 176.429 48.4483C176.728 48.4483 177.016 48.5572 177.228 48.751C177.44 48.9447 177.559 49.2076 177.559 49.4816V53.6149C177.559 53.889 177.44 54.1518 177.228 54.3456C177.016 54.5394 176.728 54.6483 176.429 54.6483C176.129 54.6483 175.842 54.5394 175.63 54.3456C175.418 54.1518 175.299 53.889 175.299 53.6149Z" fill="url(#paint13_linear_153_3578)"/>
</g>
<g filter="url(#filter4_d_153_3578)">
<rect x="194.449" y="43.2812" width="31" height="30.9998" rx="5.21296" fill="white"/>
<path d="M200.462 47.9316C199.713 47.9316 199.105 48.5031 199.105 49.2081C199.105 49.9131 199.713 50.4846 200.462 50.4846H202.115L202.53 52.0447C202.534 52.0628 202.539 52.0806 202.544 52.0984L204.385 59.0282L203.174 60.1675C201.465 61.7758 202.676 64.5257 205.092 64.5257H216.737C217.486 64.5257 218.093 63.9542 218.093 63.2492C218.093 62.5442 217.486 61.9727 216.737 61.9727L205.092 61.9727L206.448 60.6963H215.38C215.894 60.6963 216.364 60.4231 216.594 59.9907L220.662 52.3319C220.872 51.9362 220.85 51.4663 220.603 51.09C220.356 50.7136 219.919 50.4846 219.449 50.4846H204.911L204.49 48.8985C204.339 48.3303 203.797 47.9316 203.174 47.9316H200.462Z" fill="url(#paint14_linear_153_3578)"/>
<path d="M218.093 67.7168C218.093 68.7743 217.182 69.6315 216.059 69.6315C214.935 69.6315 214.024 68.7743 214.024 67.7168C214.024 66.6594 214.935 65.8021 216.059 65.8021C217.182 65.8021 218.093 66.6594 218.093 67.7168Z" fill="url(#paint15_linear_153_3578)"/>
<path d="M205.209 69.6315C206.332 69.6315 207.243 68.7743 207.243 67.7168C207.243 66.6594 206.332 65.8021 205.209 65.8021C204.085 65.8021 203.174 66.6594 203.174 67.7168C203.174 68.7743 204.085 69.6315 205.209 69.6315Z" fill="url(#paint16_linear_153_3578)"/>
</g>
<g filter="url(#filter5_d_153_3578)">
<rect x="234.195" y="43.2812" width="31" height="30.9998" rx="5.21296" fill="white"/>
<path d="M242.801 52.4413V51.2358C242.801 50.2766 243.182 49.3567 243.861 48.6784C244.539 48.0002 245.459 47.6191 246.418 47.6191H251.24C252.199 47.6191 253.119 48.0002 253.797 48.6784C254.476 49.3567 254.857 50.2766 254.857 51.2358V52.4413H257.268C258.227 52.4413 259.147 52.8224 259.825 53.5006C260.504 54.1789 260.885 55.0988 260.885 56.058V65.7024C260.885 66.6616 260.504 67.5815 259.825 68.2597C259.147 68.938 258.227 69.319 257.268 69.319H240.39C239.431 69.319 238.511 68.938 237.833 68.2597C237.154 67.5815 236.773 66.6616 236.773 65.7024V56.058C236.773 55.0988 237.154 54.1789 237.833 53.5006C238.511 52.8224 239.431 52.4413 240.39 52.4413H242.801ZM250.035 59.6746V57.2635H247.623V59.6746H245.212V62.0857H247.623V64.4968H250.035V62.0857H252.446V59.6746H250.035ZM245.212 52.4413H252.446V51.2358C252.446 50.9161 252.319 50.6094 252.093 50.3833C251.866 50.1572 251.56 50.0302 251.24 50.0302H246.418C246.098 50.0302 245.792 50.1572 245.565 50.3833C245.339 50.6094 245.212 50.9161 245.212 51.2358V52.4413Z" fill="url(#paint17_linear_153_3578)"/>
</g>
<path fill-rule="evenodd" clip-rule="evenodd" d="M132.385 244.037C131.401 241.662 130.895 239.116 130.895 236.545C130.895 233.974 131.401 231.428 132.385 229.053C133.369 226.677 134.811 224.519 136.629 222.701C138.447 220.883 140.605 219.441 142.98 218.457C145.356 217.473 147.902 216.967 150.473 216.967C153.044 216.967 155.59 217.473 157.965 218.457C160.34 219.441 162.498 220.883 164.316 222.701C166.134 224.519 167.577 226.677 168.56 229.053C169.544 231.428 170.051 233.974 170.051 236.545C170.051 239.116 169.544 241.662 168.56 244.037C167.577 246.412 166.134 248.571 164.316 250.389C162.498 252.207 160.34 253.649 157.965 254.633C155.59 255.617 153.044 256.123 150.473 256.123C147.902 256.123 145.356 255.617 142.98 254.633C140.605 253.649 138.447 252.207 136.629 250.389C134.811 248.571 133.369 246.412 132.385 244.037ZM148.297 238.72L150.473 247.422L159.174 227.844L139.596 236.545L148.297 238.72Z" fill="#5FBA8E"/>
<path d="M168.793 219.05C176.897 215.55 217.237 201.589 209.017 187.06C197.542 166.778 131.833 190.109 125.544 173.646C116.838 150.857 225.145 139.146 220.576 121.082C213.268 92.1885 51.3915 148.068 43.0402 128.74C33.9016 107.59 90.3597 90.2027 98.7391 88.3594" stroke="#3DA2FF" stroke-linejoin="round" stroke-dasharray="3 3"/>
<rect x="160.375" y="216.051" width="7" height="7" fill="white" stroke="#3DA2FF"/>
<rect x="96.3711" y="84.8594" width="7" height="7" fill="white" stroke="#3DA2FF"/>
<path d="M0.472656 270H300.473V360C300.473 382.091 282.564 400 260.473 400H40.4727C18.3813 400 0.472656 382.091 0.472656 360V270Z" fill="#5FBA8E"/>
<path d="M77.1875 290.023V307.797H74.7852V298.91H73.125V306.938H70.7812V290.316H73.125V296.898H74.7852V290.023H77.1875ZM62.5781 303.461V291.996H65.0781V301.283C66.5039 301.244 68.0762 301.117 69.7852 300.785L70.0391 302.934C67.6562 303.344 65.625 303.471 63.7891 303.461H62.5781ZM88.2344 292.816C88.2246 294.975 89.4844 297.045 92.2969 297.914L90.9688 299.848C89.084 299.223 87.7656 298.012 87.0039 296.459C86.2324 298.246 84.8555 299.652 82.8242 300.336L81.4766 298.383C84.4453 297.396 85.7148 295.033 85.7344 292.582V290.961H88.2344V292.816ZM83.9375 304.359C83.9277 302.201 86.2812 300.922 90.0312 300.922C93.7129 300.922 96.0176 302.201 96.0273 304.359C96.0176 306.537 93.7129 307.807 90.0312 307.797C86.2812 307.807 83.9277 306.537 83.9375 304.359ZM86.4375 304.359C86.418 305.365 87.6973 305.844 90.0312 305.844C92.3359 305.844 93.5664 305.365 93.5664 304.359C93.5664 303.393 92.3359 302.875 90.0312 302.875C87.6973 302.875 86.418 303.393 86.4375 304.359ZM93.3516 300.57V290.023H95.8516V294.184H98.2539V296.254H95.8516V300.57H93.3516ZM112.254 290.043V295.082H114.52V297.133H112.254V302.035H109.754V290.043H112.254ZM97.8398 299.672C99.1387 299.672 100.613 299.662 102.156 299.623V298.578C100.213 298.314 99.0215 297.416 99.0312 296.098C99.0215 294.516 100.73 293.549 103.387 293.559C106.023 293.549 107.732 294.516 107.742 296.098C107.732 297.416 106.551 298.314 104.637 298.578V299.525C106.092 299.457 107.557 299.34 108.934 299.164L109.109 300.844C105.33 301.498 101.238 301.547 98.0938 301.547L97.8398 299.672ZM98.3086 293.129V291.293H102.156V289.887H104.637V291.293H108.484V293.129H98.3086ZM100.184 305.004C100.184 303.188 102.381 302.172 106.258 302.191C110.105 302.172 112.312 303.188 112.312 305.004C112.312 306.84 110.105 307.816 106.258 307.816C102.381 307.816 100.184 306.84 100.184 305.004ZM101.414 296.098C101.404 296.723 102.117 297.025 103.387 297.035C104.637 297.025 105.35 296.723 105.359 296.098C105.35 295.512 104.637 295.189 103.387 295.18C102.117 295.189 101.404 295.512 101.414 296.098ZM102.684 305.004C102.674 305.678 103.797 306.01 106.258 306C108.68 306.01 109.803 305.678 109.812 305.004C109.803 304.311 108.68 303.988 106.258 303.988C103.797 303.988 102.674 304.311 102.684 305.004ZM129.73 290.023V307.797H127.348V290.023H129.73ZM114.477 297.719C114.477 293.744 115.99 291.283 118.344 291.293C120.482 291.283 121.947 293.285 122.221 296.605H123.676V290.277H126.02V306.977H123.676V298.578H122.24C122.025 302.064 120.531 304.184 118.344 304.184C115.99 304.184 114.477 301.713 114.477 297.719ZM116.781 297.719C116.762 300.453 117.348 301.801 118.344 301.781C119.369 301.801 119.975 300.453 119.965 297.719C119.975 294.994 119.369 293.637 118.344 293.637C117.348 293.637 116.762 294.994 116.781 297.719ZM143.277 291.176V298.969H134.742V291.176H143.277ZM135.797 305.824C138.99 305.434 140.729 304.164 141.129 302.797H136.559V300.824H148.531V302.797H143.98C144.391 304.125 146.158 305.443 149.312 305.863L148.434 307.758C145.582 307.377 143.57 306.244 142.545 304.721C141.529 306.244 139.537 307.357 136.695 307.719L135.797 305.824ZM137.203 296.996H140.816V293.148H137.203V296.996ZM145.816 299.984V290.023H148.316V293.891H150.719V295.922H148.316V299.984H145.816ZM164.934 294.867V296.82H152.512V290.648H154.992V294.867H164.934ZM150.48 300.688V298.734H166.75V300.688H150.48ZM152.355 307.406V302.133H154.855V305.414H165.051V307.406H152.355ZM177.289 294.867C177.279 297.738 178.764 300.814 181.742 302.055L180.395 304.008C178.305 303.119 176.859 301.352 176.059 299.203C175.258 301.537 173.783 303.49 171.684 304.457L170.258 302.484C173.207 301.166 174.73 297.875 174.73 294.867V293.773H170.961V291.742H181V293.773H177.289V294.867ZM182.758 307.797V290.023H185.277V307.797H182.758ZM201.172 297.973V299.945H196.016V303.734H202.949V305.766H186.68V303.734H193.535V299.945H188.594V291.273H201.035V293.266H191.094V297.973H201.172ZM213.234 293.07C213.234 295.365 214.465 297.65 217.297 298.598L215.949 300.551C214.064 299.857 212.766 298.549 212.014 296.898C211.252 298.764 209.865 300.219 207.805 300.961L206.457 299.008C209.426 298.031 210.705 295.6 210.715 293.051V291.117H213.234V293.07ZM209.719 307.484V301.781H212.238V305.492H221.926V307.484H209.719ZM215.734 295.824V293.812H219.074V290.043H221.555V303.168H219.074V295.824H215.734ZM230.516 291.215V293.207H225.867V294.672H230.34V296.566H225.867V298.139C227.84 298.119 229.295 298.041 230.945 297.758L231.199 299.75C229.119 300.121 227.381 300.189 224.695 300.18H223.484V291.215H230.516ZM225.848 303.617V301.625H238.133V307.797H235.652V303.617H225.848ZM231.902 300.746V290.355H234.227V294.379H235.77V290.043H238.133V300.883H235.77V296.371H234.227V300.746H231.902Z" fill="white"/>
<path d="M28.7883 329.811C30.9367 329.803 32.4914 331.006 32.4914 332.779C32.4914 334.521 30.9367 335.74 28.7883 335.732C26.6633 335.74 25.1164 334.521 25.1164 332.779C25.1164 331.006 26.6633 329.803 28.7883 329.811ZM24.1945 336.701C26.7414 336.701 30.3117 336.654 33.3508 336.201L33.4758 337.482C32.257 337.717 30.9914 337.865 29.757 337.959V342.873H28.007V338.061C26.7023 338.115 25.4758 338.131 24.4133 338.139L24.1945 336.701ZM26.8039 332.779C26.7961 333.725 27.632 334.318 28.7883 334.311C29.9914 334.318 30.8352 333.725 30.8352 332.779C30.8352 331.803 29.9914 331.201 28.7883 331.217C27.632 331.201 26.7961 331.803 26.8039 332.779ZM34.2727 343.295V329.201H35.9914V343.295H34.2727ZM50.1414 329.186V343.311H48.407V329.186H50.1414ZM38.5477 339.295C40.7977 338.303 42.0945 335.928 42.0945 333.67V332.936H38.9852V331.545H42.0945V329.482H43.8133V331.545H46.8602V332.936H43.8289V333.67C43.8211 335.818 45.1414 338.123 47.4227 339.076L46.4695 340.404C44.8523 339.717 43.6336 338.311 42.9852 336.607C42.3523 338.412 41.1336 339.92 39.4852 340.639L38.5477 339.295ZM68.6602 329.201V339.623H66.9258V336.076H64.082V337.326H57.4727V330.123H59.207V332.404H62.3633V330.123H64.082V331.639H66.9258V329.201H68.6602ZM59.207 335.951H62.3633V333.748H59.207V335.951ZM59.3477 343.029V338.592H61.1133V341.623H68.9727V343.029H59.3477ZM64.082 334.67H66.9258V333.045H64.082V334.67ZM82.8883 329.201V337.451H81.1539V335.889H77.7945V334.482H81.1539V332.967H77.9273C77.0367 335.209 74.9742 336.779 71.9039 337.639L71.2008 336.264C74.5055 335.373 76.2711 333.693 76.5367 331.592H71.9508V330.186H78.4352C78.4352 330.678 78.3961 331.146 78.318 331.592H81.1539V329.201H82.8883ZM73.4195 340.42C73.4195 338.686 75.318 337.615 78.2164 337.607C81.0758 337.615 82.982 338.686 82.982 340.42C82.982 342.154 81.0758 343.24 78.2164 343.232C75.318 343.24 73.4195 342.154 73.4195 340.42ZM75.1539 340.42C75.1539 341.35 76.318 341.857 78.2164 341.857C80.0836 341.857 81.2398 341.35 81.2477 340.42C81.2398 339.475 80.0836 338.967 78.2164 338.967C76.318 338.967 75.1539 339.475 75.1539 340.42ZM106.026 350.436V351.826H99.1039V350.436H101.729V348.592H103.448V350.436H106.026ZM99.5102 355.857C99.4945 353.936 100.799 352.568 102.588 352.576C104.385 352.568 105.666 353.936 105.666 355.857C105.666 357.818 104.385 359.186 102.588 359.186C100.799 359.186 99.4945 357.818 99.5102 355.857ZM101.041 355.857C101.034 356.998 101.674 357.709 102.588 357.701C103.495 357.709 104.135 356.998 104.135 355.857C104.135 354.748 103.495 354.014 102.588 354.014C101.674 354.014 101.034 354.748 101.041 355.857ZM106.62 361.67V348.482H108.245V353.998H109.62V348.186H111.276V362.311H109.62V355.404H108.245V361.67H106.62ZM124.52 348.186V351.654H126.473V353.076H124.52V356.436H122.77V348.186H124.52ZM113.91 355.545V349.186H120.238V350.592H115.629V354.139C118.332 354.131 119.84 354.045 121.504 353.701L121.676 355.092C119.848 355.482 118.184 355.545 115.051 355.545H113.91ZM115.129 359.482C115.129 357.732 116.988 356.701 119.91 356.701C122.809 356.701 124.637 357.732 124.645 359.482C124.637 361.264 122.809 362.295 119.91 362.295C116.988 362.295 115.129 361.264 115.129 359.482ZM116.848 359.482C116.84 360.396 117.973 360.904 119.91 360.904C121.809 360.904 122.949 360.396 122.957 359.482C122.949 358.584 121.809 358.084 119.91 358.092C117.973 358.084 116.84 358.584 116.848 359.482ZM137.116 352.201C137.116 354.514 138.476 356.951 140.757 357.904L139.804 359.279C138.132 358.553 136.913 357.076 136.265 355.279C135.616 357.217 134.374 358.842 132.726 359.623L131.726 358.264C133.952 357.232 135.343 354.6 135.351 352.201V351.014H132.241V349.576H140.21V351.014H137.116V352.201ZM141.788 362.311V348.186H143.538V362.311H141.788ZM157.845 357.201V362.311H156.11V358.576H148.22V357.201H157.845ZM146.204 352.389C146.204 350.389 147.805 348.951 149.938 348.967C151.102 348.959 152.118 349.396 152.782 350.139H156.11V348.186H157.845V356.529H156.11V354.654H152.798C152.126 355.404 151.11 355.857 149.938 355.857C147.805 355.857 146.204 354.42 146.204 352.389ZM147.86 352.389C147.86 353.615 148.727 354.381 149.938 354.389C151.095 354.381 151.977 353.615 151.985 352.389C151.977 351.209 151.095 350.428 149.938 350.436C148.727 350.428 147.86 351.209 147.86 352.389ZM153.532 353.248H156.11V351.561H153.54C153.602 351.826 153.641 352.1 153.641 352.389C153.641 352.686 153.602 352.975 153.532 353.248Z" fill="#E0FF98"/>
<path d="M91.7102 329.545C94.7961 329.545 96.6086 330.396 96.6164 331.936C96.6086 333.514 94.7961 334.365 91.7102 334.373C88.6086 334.365 86.7883 333.514 86.7883 331.936C86.7883 330.396 88.6086 329.545 91.7102 329.545ZM85.382 336.311V335.311H98.0383V336.311H85.382ZM86.9133 338.451V337.514H96.4133V340.623H88.1633V342.061H96.8352V343.029H86.9445V339.717H95.2102V338.451H86.9133ZM88.0695 331.936C88.0539 332.904 89.4055 333.436 91.7102 333.436C94.0148 333.436 95.3586 332.904 95.3664 331.936C95.3586 331.021 94.0148 330.475 91.7102 330.467C89.4055 330.475 88.0539 331.021 88.0695 331.936ZM116.682 336.67V337.67H104.01V336.67H109.729V335.295H105.698V329.701H115.104V330.701H106.932V331.998H114.729V332.936H106.932V334.311H115.182V335.295H110.948V336.67H116.682ZM105.557 340.936C105.549 339.49 107.276 338.701 110.354 338.717C113.401 338.701 115.12 339.49 115.135 340.936C115.12 342.396 113.401 343.154 110.354 343.154C107.276 343.154 105.549 342.396 105.557 340.936ZM106.791 340.936C106.776 341.779 108.057 342.217 110.354 342.201C112.627 342.217 113.893 341.779 113.901 340.936C113.893 340.107 112.627 339.646 110.354 339.639C108.057 339.646 106.776 340.107 106.791 340.936ZM125.191 331.701V332.701H118.223V331.701H121.113V329.717H122.332V331.701H125.191ZM118.723 336.795C118.723 334.951 119.98 333.646 121.707 333.639C123.457 333.646 124.707 334.951 124.723 336.795C124.707 338.662 123.457 339.975 121.707 339.982C119.98 339.975 118.723 338.662 118.723 336.795ZM119.816 336.795C119.816 338.029 120.605 338.912 121.707 338.904C122.816 338.912 123.629 338.029 123.629 336.795C123.629 335.576 122.816 334.686 121.707 334.67C120.605 334.686 119.816 335.576 119.816 336.795ZM125.91 342.498V329.639H127.066V335.154H128.91V329.295H130.082V343.186H128.91V336.17H127.066V342.498H125.91ZM147.648 329.295V334.951H149.898V335.982H147.648V343.186H146.429V329.295H147.648ZM136.991 339.576C140.577 337.795 142.53 335.115 142.812 331.826H137.632V330.795H144.054C144.046 334.725 142.202 338.311 137.679 340.545L136.991 339.576ZM162.266 330.701V332.092C162.251 333.795 162.251 335.701 161.751 338.498L160.501 338.357C161.024 335.701 161.024 333.756 161.032 332.092V331.717H152.47V330.701H162.266ZM151.126 341.217V340.201H156.095V335.232H157.298V340.201H163.782V341.217H151.126ZM170.057 333.561C170.041 335.787 171.651 338.24 173.666 339.201L172.963 340.17C171.401 339.404 170.08 337.764 169.455 335.881C168.815 337.92 167.424 339.717 165.87 340.514L165.12 339.545C167.12 338.568 168.838 335.928 168.854 333.561V331.748H165.62V330.732H173.182V331.748H170.057V333.561ZM174.885 343.186V329.295H176.104V334.92H178.432V335.967H176.104V343.186H174.885ZM194.748 329.295V335.029H197.076V336.045H194.748V343.186H193.529V329.295H194.748ZM183.92 332.545V331.529H187.498V329.467H188.716V331.529H192.185V332.545H183.92ZM184.716 336.889C184.709 335.014 186.146 333.701 188.123 333.701C190.084 333.701 191.513 335.014 191.529 336.889C191.513 338.771 190.084 340.076 188.123 340.076C186.146 340.076 184.709 338.771 184.716 336.889ZM185.888 336.889C185.88 338.154 186.826 339.045 188.123 339.029C189.404 339.045 190.341 338.154 190.357 336.889C190.341 335.631 189.404 334.725 188.123 334.732C186.826 334.725 185.88 335.631 185.888 336.889ZM209.46 333.514V334.498H199.945V329.811H201.163V333.514H209.46ZM198.21 337.389V336.389H210.929V337.389H198.21ZM199.866 342.842V338.811H201.085V341.826H209.538V342.842H199.866ZM220.604 330.373C221.877 330.381 222.916 331.123 223.518 332.404H227.166V329.295H228.385V343.217H227.166V337.826H223.604C223.026 339.232 221.948 340.053 220.604 340.045C218.549 340.053 217.112 338.178 217.12 335.217C217.112 332.264 218.549 330.381 220.604 330.373ZM218.291 335.217C218.299 337.475 219.237 338.959 220.604 338.951C221.963 338.959 222.916 337.475 222.916 335.217C222.916 332.959 221.963 331.475 220.604 331.467C219.237 331.475 218.299 332.959 218.291 335.217ZM223.87 333.436C224.002 333.975 224.073 334.568 224.073 335.217C224.073 335.787 224.018 336.326 223.916 336.811H227.166V333.436H223.87ZM242.895 329.295V338.092H241.723V334.107H239.863V337.592H238.707V329.576H239.863V333.092H241.723V329.295H242.895ZM231.02 331.951V330.967H233.988V329.404H235.207V330.967H238.145V331.951H231.02ZM231.629 335.076C231.621 333.623 232.848 332.693 234.598 332.701C236.355 332.693 237.574 333.623 237.582 335.076C237.574 336.506 236.355 337.436 234.598 337.436C232.848 337.436 231.621 336.506 231.629 335.076ZM232.723 335.076C232.723 335.928 233.488 336.514 234.598 336.514C235.707 336.514 236.473 335.928 236.473 335.076C236.473 334.193 235.707 333.607 234.598 333.607C233.488 333.607 232.723 334.193 232.723 335.076ZM233.645 340.764C233.629 339.201 235.371 338.326 238.301 338.326C241.223 338.326 242.965 339.201 242.973 340.764C242.965 342.287 241.223 343.154 238.301 343.154C235.371 343.154 233.629 342.287 233.645 340.764ZM234.863 340.764C234.848 341.662 236.137 342.209 238.301 342.201C240.457 342.209 241.738 341.662 241.754 340.764C241.738 339.811 240.457 339.279 238.301 339.295C236.137 339.279 234.848 339.811 234.863 340.764ZM250.295 333.561C250.302 335.92 252.013 338.318 254.06 339.201L253.373 340.17C251.748 339.436 250.349 337.834 249.701 335.912C249.052 337.951 247.646 339.717 246.06 340.514L245.326 339.545C247.318 338.592 249.052 335.967 249.06 333.561V331.748H245.779V330.732H253.607V331.748H250.295V333.561ZM255.545 343.186V329.295H256.779V343.186H255.545ZM272.257 335.748V336.717H259.538V335.748H272.257ZM261.07 338.748V337.826H270.663V340.779H262.32V342.107H271.116V342.998H261.085V339.936H269.445V338.748H261.07ZM261.148 330.607V329.717H270.616V332.592H262.413V333.811H270.866V334.701H261.195V331.748H269.382V330.607H261.148ZM49.6352 348.295V355.482H48.4008V351.873H45.307V350.857H48.4008V348.295H49.6352ZM38.1039 354.529C40.1977 353.834 41.6352 352.092 41.6508 350.061V348.748H42.8539V350.061C42.8383 351.881 44.2758 353.553 46.307 354.217L45.6508 355.17C44.1117 354.623 42.8852 353.529 42.268 352.123C41.6742 353.709 40.4164 354.92 38.7758 355.514L38.1039 354.529ZM40.6352 357.17V356.186H49.6352V359.498H41.8695V361.014H50.1508V361.998H40.6664V358.561H48.4164V357.17H40.6352ZM63.8633 348.295V356.576H62.6289V352.936H59.832V351.92H62.6289V348.295H63.8633ZM52.4102 355.467C54.4727 354.725 55.9414 352.842 55.9414 350.857V350.342H52.8008V349.311H60.2852V350.342H57.1758V350.842C57.1758 352.654 58.5664 354.381 60.5977 355.076L59.957 356.061C58.4023 355.498 57.1914 354.326 56.5898 352.896C55.9961 354.521 54.707 355.818 53.0508 356.451L52.4102 355.467ZM54.5977 359.592C54.5898 357.959 56.3633 357.006 59.2539 357.014C62.1367 357.006 63.9102 357.959 63.9102 359.592C63.9102 361.232 62.1367 362.17 59.2539 362.186C56.3633 362.17 54.5898 361.232 54.5977 359.592ZM55.8164 359.592C55.8086 360.6 57.1211 361.209 59.2539 361.201C61.3789 361.209 62.6914 360.6 62.6914 359.592C62.6914 358.576 61.3789 357.967 59.2539 357.967C57.1211 357.967 55.8086 358.576 55.8164 359.592ZM77.3258 348.295V354.029H79.6539V355.045H77.3258V362.186H76.107V348.295H77.3258ZM66.4977 351.545V350.529H70.0758V348.467H71.2945V350.529H74.7633V351.545H66.4977ZM67.2945 355.889C67.2867 354.014 68.7242 352.701 70.7008 352.701C72.6617 352.701 74.0914 354.014 74.107 355.889C74.0914 357.771 72.6617 359.076 70.7008 359.076C68.7242 359.076 67.2867 357.771 67.2945 355.889ZM68.4664 355.889C68.4586 357.154 69.4039 358.045 70.7008 358.029C71.982 358.045 72.9195 357.154 72.9352 355.889C72.9195 354.631 71.982 353.725 70.7008 353.732C69.4039 353.725 68.4586 354.631 68.4664 355.889ZM87.8352 349.514V350.748H91.0852V348.311H92.3195V358.451H91.0852V354.748H87.8352V355.998H81.4602V349.514H87.8352ZM82.6789 355.014H86.632V350.529H82.6789V355.014ZM83.3352 361.889V357.545H84.5695V360.857H92.632V361.889H83.3352ZM87.8352 353.732H91.0852V351.779H87.8352V353.732ZM166.666 348.545C169.752 348.545 171.565 349.396 171.573 350.936C171.565 352.514 169.752 353.365 166.666 353.373C163.565 353.365 161.745 352.514 161.745 350.936C161.745 349.396 163.565 348.545 166.666 348.545ZM160.338 355.311V354.311H172.995V355.311H160.338ZM161.87 357.451V356.514H171.37V359.623H163.12V361.061H171.791V362.029H161.901V358.717H170.166V357.451H161.87ZM163.026 350.936C163.01 351.904 164.362 352.436 166.666 352.436C168.971 352.436 170.315 351.904 170.323 350.936C170.315 350.021 168.971 349.475 166.666 349.467C164.362 349.475 163.01 350.021 163.026 350.936ZM189.841 348.295V352.529H191.935V353.561H189.841V358.545H188.623V348.295H189.841ZM179.248 352.701C179.24 350.686 180.818 349.287 182.888 349.279C184.974 349.287 186.529 350.686 186.545 352.701C186.529 354.709 184.974 356.123 182.888 356.123C180.818 356.123 179.24 354.709 179.248 352.701ZM180.451 352.701C180.443 354.068 181.513 355.045 182.888 355.045C184.287 355.045 185.334 354.068 185.341 352.701C185.334 351.326 184.287 350.357 182.888 350.357C181.513 350.357 180.443 351.326 180.451 352.701ZM181.154 361.889V357.482H182.357V360.857H190.482V361.889H181.154ZM205.07 348.295V362.186H203.866V354.998H201.866V361.467H200.71V348.607H201.866V353.951H203.866V348.295H205.07ZM193.913 358.592V349.998H195.132V357.498C196.507 357.49 197.991 357.389 199.679 357.045L199.835 358.139C197.898 358.49 196.304 358.592 194.773 358.592H193.913ZM214.376 350.701V351.701H207.407V350.701H210.298V348.717H211.516V350.701H214.376ZM207.907 355.795C207.907 353.951 209.165 352.646 210.891 352.639C212.641 352.646 213.891 353.951 213.907 355.795C213.891 357.662 212.641 358.975 210.891 358.982C209.165 358.975 207.907 357.662 207.907 355.795ZM209.001 355.795C209.001 357.029 209.79 357.912 210.891 357.904C212.001 357.912 212.813 357.029 212.813 355.795C212.813 354.576 212.001 353.686 210.891 353.67C209.79 353.686 209.001 354.576 209.001 355.795ZM215.095 361.498V348.639H216.251V354.154H218.095V348.295H219.266V362.186H218.095V355.17H216.251V361.498H215.095ZM233.198 348.795V349.811H228.799C228.94 351.318 231.229 352.482 233.62 352.732L233.166 353.701C230.893 353.436 228.76 352.436 227.995 350.904C227.229 352.436 225.112 353.436 222.823 353.701L222.37 352.732C224.76 352.482 227.049 351.318 227.19 349.811H222.823V348.795H233.198ZM221.666 355.592V354.576H234.323V355.592H228.588V357.545H227.385V355.592H221.666ZM223.276 361.998V356.67H224.495V358.295H231.463V356.67H232.682V361.998H223.276ZM224.495 361.014H231.463V359.264H224.495V361.014ZM247.348 348.295V362.186H246.129V348.295H247.348ZM236.801 358.607V349.67H238.004V357.545C240.129 357.529 242.316 357.365 244.645 356.873L244.816 357.92C242.348 358.436 240.152 358.607 237.926 358.607H236.801ZM260.873 348.295V353.795H263.201V354.826H260.873V362.217H259.654V348.295H260.873ZM250.732 358.732V349.654H257.216V350.67H251.951V357.701C254.466 357.693 256.24 357.584 258.31 357.201L258.466 358.264C256.287 358.654 254.466 358.732 251.826 358.732H250.732Z" fill="white"/>
<circle cx="267.676" cy="252.123" r="4" fill="#F2F2F2"/>
<circle cx="279.676" cy="252.123" r="4" fill="#F2F2F2"/>
<rect x="239.676" y="248.123" width="20" height="8" rx="4" fill="#5FBA8E"/>
<path d="M273.96 155.421C273.866 155.328 273.792 155.217 273.741 155.095C273.69 154.973 273.664 154.843 273.664 154.711C273.664 154.579 273.69 154.448 273.741 154.326C273.792 154.204 273.866 154.094 273.96 154.001C274.053 153.907 274.164 153.833 274.285 153.782C274.407 153.731 274.538 153.705 274.67 153.705C274.802 153.705 274.933 153.731 275.055 153.782C275.176 153.833 275.287 153.907 275.38 154.001L283.38 162.001C283.474 162.094 283.548 162.204 283.599 162.326C283.65 162.448 283.676 162.579 283.676 162.711C283.676 162.843 283.65 162.973 283.599 163.095C283.548 163.217 283.474 163.328 283.38 163.421L275.38 171.421C275.192 171.609 274.936 171.715 274.67 171.715C274.538 171.715 274.408 171.689 274.286 171.638C274.164 171.588 274.053 171.514 273.96 171.421C273.867 171.328 273.793 171.217 273.742 171.095C273.692 170.973 273.666 170.843 273.666 170.711C273.666 170.579 273.692 170.448 273.742 170.327C273.793 170.205 273.867 170.094 273.96 170.001L281.26 162.711L273.96 155.421Z" fill="#F2F2F2"/>
<path d="M116.048 185.101L122.13 181.545L107.734 176.136L112.044 190.898L116.048 185.101ZM116.048 185.101L111.891 180.619" stroke="#3DA2FF" stroke-linecap="round" stroke-linejoin="round"/>
<g clip-path="url(#clip0_153_3578)">
<path d="M217.875 147.368L219.458 142.618L224.208 141.035L222.625 145.785L217.875 147.368Z" stroke="#3DA2FF" stroke-linecap="round" stroke-linejoin="round"/>
<path d="M221.043 151.328C224.978 151.328 228.168 148.138 228.168 144.203C228.168 140.268 224.978 137.078 221.043 137.078C217.108 137.078 213.918 140.268 213.918 144.203C213.918 148.138 217.108 151.328 221.043 151.328Z" stroke="#3DA2FF" stroke-linecap="round" stroke-linejoin="round"/>
</g>
<defs>
<filter id="filter0_d_153_3578" x="26.35" y="35.4618" width="49.2454" height="49.2454" filterUnits="userSpaceOnUse" color-interpolation-filters="sRGB">
<feFlood flood-opacity="0" result="BackgroundImageFix"/>
<feColorMatrix in="SourceAlpha" type="matrix" values="0 0 0 0 0 0 0 0 0 0 0 0 0 0 0 0 0 0 127 0" result="hardAlpha"/>
<feOffset dy="1.30324"/>
<feGaussianBlur stdDeviation="4.56134"/>
<feComposite in2="hardAlpha" operator="out"/>
<feColorMatrix type="matrix" values="0 0 0 0 0 0 0 0 0 0 0 0 0 0 0 0 0 0 0.12 0"/>
<feBlend mode="normal" in2="BackgroundImageFix" result="effect1_dropShadow_153_3578"/>
<feBlend mode="normal" in="SourceGraphic" in2="effect1_dropShadow_153_3578" result="shape"/>
</filter>
<filter id="filter1_d_153_3578" x="66.0961" y="35.4618" width="49.2454" height="49.2454" filterUnits="userSpaceOnUse" color-interpolation-filters="sRGB">
<feFlood flood-opacity="0" result="BackgroundImageFix"/>
<feColorMatrix in="SourceAlpha" type="matrix" values="0 0 0 0 0 0 0 0 0 0 0 0 0 0 0 0 0 0 127 0" result="hardAlpha"/>
<feOffset dy="1.30324"/>
<feGaussianBlur stdDeviation="4.56134"/>
<feComposite in2="hardAlpha" operator="out"/>
<feColorMatrix type="matrix" values="0 0 0 0 0 0 0 0 0 0 0 0 0 0 0 0 0 0 0.12 0"/>
<feBlend mode="normal" in2="BackgroundImageFix" result="effect1_dropShadow_153_3578"/>
<feBlend mode="normal" in="SourceGraphic" in2="effect1_dropShadow_153_3578" result="shape"/>
</filter>
<filter id="filter2_d_153_3578" x="105.838" y="35.4618" width="49.2454" height="49.2454" filterUnits="userSpaceOnUse" color-interpolation-filters="sRGB">
<feFlood flood-opacity="0" result="BackgroundImageFix"/>
<feColorMatrix in="SourceAlpha" type="matrix" values="0 0 0 0 0 0 0 0 0 0 0 0 0 0 0 0 0 0 127 0" result="hardAlpha"/>
<feOffset dy="1.30324"/>
<feGaussianBlur stdDeviation="4.56134"/>
<feComposite in2="hardAlpha" operator="out"/>
<feColorMatrix type="matrix" values="0 0 0 0 0 0 0 0 0 0 0 0 0 0 0 0 0 0 0.12 0"/>
<feBlend mode="normal" in2="BackgroundImageFix" result="effect1_dropShadow_153_3578"/>
<feBlend mode="normal" in="SourceGraphic" in2="effect1_dropShadow_153_3578" result="shape"/>
</filter>
<filter id="filter3_d_153_3578" x="145.584" y="35.4618" width="49.2454" height="49.2454" filterUnits="userSpaceOnUse" color-interpolation-filters="sRGB">
<feFlood flood-opacity="0" result="BackgroundImageFix"/>
<feColorMatrix in="SourceAlpha" type="matrix" values="0 0 0 0 0 0 0 0 0 0 0 0 0 0 0 0 0 0 127 0" result="hardAlpha"/>
<feOffset dy="1.30324"/>
<feGaussianBlur stdDeviation="4.56134"/>
<feComposite in2="hardAlpha" operator="out"/>
<feColorMatrix type="matrix" values="0 0 0 0 0 0 0 0 0 0 0 0 0 0 0 0 0 0 0.12 0"/>
<feBlend mode="normal" in2="BackgroundImageFix" result="effect1_dropShadow_153_3578"/>
<feBlend mode="normal" in="SourceGraphic" in2="effect1_dropShadow_153_3578" result="shape"/>
</filter>
<filter id="filter4_d_153_3578" x="185.327" y="35.4618" width="49.2454" height="49.2454" filterUnits="userSpaceOnUse" color-interpolation-filters="sRGB">
<feFlood flood-opacity="0" result="BackgroundImageFix"/>
<feColorMatrix in="SourceAlpha" type="matrix" values="0 0 0 0 0 0 0 0 0 0 0 0 0 0 0 0 0 0 127 0" result="hardAlpha"/>
<feOffset dy="1.30324"/>
<feGaussianBlur stdDeviation="4.56134"/>
<feComposite in2="hardAlpha" operator="out"/>
<feColorMatrix type="matrix" values="0 0 0 0 0 0 0 0 0 0 0 0 0 0 0 0 0 0 0.12 0"/>
<feBlend mode="normal" in2="BackgroundImageFix" result="effect1_dropShadow_153_3578"/>
<feBlend mode="normal" in="SourceGraphic" in2="effect1_dropShadow_153_3578" result="shape"/>
</filter>
<filter id="filter5_d_153_3578" x="225.073" y="35.4618" width="49.2454" height="49.2454" filterUnits="userSpaceOnUse" color-interpolation-filters="sRGB">
<feFlood flood-opacity="0" result="BackgroundImageFix"/>
<feColorMatrix in="SourceAlpha" type="matrix" values="0 0 0 0 0 0 0 0 0 0 0 0 0 0 0 0 0 0 127 0" result="hardAlpha"/>
<feOffset dy="1.30324"/>
<feGaussianBlur stdDeviation="4.56134"/>
<feComposite in2="hardAlpha" operator="out"/>
<feColorMatrix type="matrix" values="0 0 0 0 0 0 0 0 0 0 0 0 0 0 0 0 0 0 0.12 0"/>
<feBlend mode="normal" in2="BackgroundImageFix" result="effect1_dropShadow_153_3578"/>
<feBlend mode="normal" in="SourceGraphic" in2="effect1_dropShadow_153_3578" result="shape"/>
</filter>
<linearGradient id="paint0_linear_153_3578" x1="44.0234" y1="58.7809" x2="57.9245" y2="58.7809" gradientUnits="userSpaceOnUse">
<stop stop-color="#3DA2FF" stop-opacity="0.8"/>
<stop offset="1" stop-color="#5ECE98"/>
</linearGradient>
<linearGradient id="paint1_linear_153_3578" x1="81.9883" y1="57.9195" x2="99.7299" y2="57.9195" gradientUnits="userSpaceOnUse">
<stop stop-color="#3DA2FF" stop-opacity="0.8"/>
<stop offset="1" stop-color="#5ECE98"/>
</linearGradient>
<linearGradient id="paint2_linear_153_3578" x1="81.9883" y1="57.9195" x2="99.7299" y2="57.9195" gradientUnits="userSpaceOnUse">
<stop stop-color="#3DA2FF" stop-opacity="0.8"/>
<stop offset="1" stop-color="#5ECE98"/>
</linearGradient>
<linearGradient id="paint3_linear_153_3578" x1="81.9883" y1="57.9195" x2="99.7299" y2="57.9195" gradientUnits="userSpaceOnUse">
<stop stop-color="#3DA2FF" stop-opacity="0.8"/>
<stop offset="1" stop-color="#5ECE98"/>
</linearGradient>
<linearGradient id="paint4_linear_153_3578" x1="81.9883" y1="57.9195" x2="99.7299" y2="57.9195" gradientUnits="userSpaceOnUse">
<stop stop-color="#3DA2FF" stop-opacity="0.8"/>
<stop offset="1" stop-color="#5ECE98"/>
</linearGradient>
<linearGradient id="paint5_linear_153_3578" x1="81.9883" y1="57.9195" x2="99.7299" y2="57.9195" gradientUnits="userSpaceOnUse">
<stop stop-color="#3DA2FF" stop-opacity="0.8"/>
<stop offset="1" stop-color="#5ECE98"/>
</linearGradient>
<linearGradient id="paint6_linear_153_3578" x1="81.9883" y1="57.9195" x2="99.7299" y2="57.9195" gradientUnits="userSpaceOnUse">
<stop stop-color="#3DA2FF" stop-opacity="0.8"/>
<stop offset="1" stop-color="#5ECE98"/>
</linearGradient>
<linearGradient id="paint7_linear_153_3578" x1="81.9883" y1="57.9195" x2="99.7299" y2="57.9195" gradientUnits="userSpaceOnUse">
<stop stop-color="#3DA2FF" stop-opacity="0.8"/>
<stop offset="1" stop-color="#5ECE98"/>
</linearGradient>
<linearGradient id="paint8_linear_153_3578" x1="81.9883" y1="57.9195" x2="99.7299" y2="57.9195" gradientUnits="userSpaceOnUse">
<stop stop-color="#3DA2FF" stop-opacity="0.8"/>
<stop offset="1" stop-color="#5ECE98"/>
</linearGradient>
<linearGradient id="paint9_linear_153_3578" x1="81.9883" y1="57.9195" x2="99.7299" y2="57.9195" gradientUnits="userSpaceOnUse">
<stop stop-color="#3DA2FF" stop-opacity="0.8"/>
<stop offset="1" stop-color="#5ECE98"/>
</linearGradient>
<linearGradient id="paint10_linear_153_3578" x1="81.9883" y1="57.9195" x2="99.7299" y2="57.9195" gradientUnits="userSpaceOnUse">
<stop stop-color="#3DA2FF" stop-opacity="0.8"/>
<stop offset="1" stop-color="#5ECE98"/>
</linearGradient>
<linearGradient id="paint11_linear_153_3578" x1="122.129" y1="57.9203" x2="139.071" y2="57.9203" gradientUnits="userSpaceOnUse">
<stop stop-color="#3DA2FF" stop-opacity="0.8"/>
<stop offset="1" stop-color="#5ECE98"/>
</linearGradient>
<linearGradient id="paint12_linear_153_3578" x1="122.129" y1="57.9203" x2="139.071" y2="57.9203" gradientUnits="userSpaceOnUse">
<stop stop-color="#3DA2FF" stop-opacity="0.8"/>
<stop offset="1" stop-color="#5ECE98"/>
</linearGradient>
<linearGradient id="paint13_linear_153_3578" x1="158.91" y1="58.7816" x2="181.515" y2="58.7816" gradientUnits="userSpaceOnUse">
<stop stop-color="#3DA2FF" stop-opacity="0.8"/>
<stop offset="1" stop-color="#5ECE98"/>
</linearGradient>
<linearGradient id="paint14_linear_153_3578" x1="199.105" y1="58.7816" x2="220.805" y2="58.7816" gradientUnits="userSpaceOnUse">
<stop stop-color="#3DA2FF" stop-opacity="0.8"/>
<stop offset="1" stop-color="#5ECE98"/>
</linearGradient>
<linearGradient id="paint15_linear_153_3578" x1="199.105" y1="58.7816" x2="220.805" y2="58.7816" gradientUnits="userSpaceOnUse">
<stop stop-color="#3DA2FF" stop-opacity="0.8"/>
<stop offset="1" stop-color="#5ECE98"/>
</linearGradient>
<linearGradient id="paint16_linear_153_3578" x1="199.105" y1="58.7816" x2="220.805" y2="58.7816" gradientUnits="userSpaceOnUse">
<stop stop-color="#3DA2FF" stop-opacity="0.8"/>
<stop offset="1" stop-color="#5ECE98"/>
</linearGradient>
<linearGradient id="paint17_linear_153_3578" x1="236.773" y1="58.4691" x2="260.885" y2="58.4691" gradientUnits="userSpaceOnUse">
<stop stop-color="#3DA2FF" stop-opacity="0.8"/>
<stop offset="1" stop-color="#5ECE98"/>
</linearGradient>
<clipPath id="clip0_153_3578">
<rect width="19" height="19" fill="white" transform="translate(211.543 134.703)"/>
</clipPath>
</defs>
</svg>
