<svg width="301" height="400" viewBox="0 0 301 400" fill="none" xmlns="http://www.w3.org/2000/svg">
<g clip-path="url(#clip0_153_3492)">
<rect x="0.472656" width="300" height="400" rx="40" fill="white"/>
<path fill-rule="evenodd" clip-rule="evenodd" d="M132.385 244.037C131.401 241.662 130.895 239.116 130.895 236.545C130.895 233.974 131.401 231.428 132.385 229.053C133.369 226.677 134.811 224.519 136.629 222.701C138.447 220.883 140.605 219.441 142.98 218.457C145.356 217.473 147.902 216.967 150.473 216.967C153.044 216.967 155.59 217.473 157.965 218.457C160.34 219.441 162.498 220.883 164.316 222.701C166.134 224.519 167.577 226.677 168.56 229.053C169.544 231.428 170.051 233.974 170.051 236.545C170.051 239.116 169.544 241.662 168.56 244.037C167.577 246.412 166.134 248.571 164.316 250.389C162.498 252.207 160.34 253.649 157.965 254.633C155.59 255.617 153.044 256.123 150.473 256.123C147.902 256.123 145.356 255.617 142.98 254.633C140.605 253.649 138.447 252.207 136.629 250.389C134.811 248.571 133.369 246.412 132.385 244.037ZM148.297 238.72L150.473 247.422L159.174 227.844L139.596 236.545L148.297 238.72Z" fill="#5FBA8E"/>
<path d="M0.472656 270H300.473V360C300.473 382.091 282.564 400 260.473 400H40.4727C18.3813 400 0.472656 382.091 0.472656 360V270Z" fill="#5FBA8E"/>
<path d="M72.6133 291.684C72.6133 293.549 73.8926 295.238 76.8516 295.883L75.7188 297.836C73.5996 297.328 72.1445 296.264 71.3438 294.828C70.5332 296.41 69.0488 297.621 66.8711 298.168L65.6992 296.234C68.6973 295.531 70.0156 293.646 70.0156 291.684V290.746H72.6133V291.684ZM65.5039 299.301C68.6973 299.301 73.1211 299.262 76.9102 298.715L77.0664 300.512C75.6016 300.795 74.0977 300.98 72.6133 301.107V307.27H70.1328V301.254C68.5801 301.322 67.1055 301.332 65.8164 301.332L65.5039 299.301ZM77.9844 307.797V290.043H80.4453V307.797H77.9844ZM98 298.676V300.668H91.2617V303.754H88.7422V300.668H81.7305V298.676H98ZM83.4102 294.047C83.4102 291.791 85.9883 290.375 89.8555 290.355C93.7031 290.375 96.2715 291.791 96.2812 294.047C96.2715 296.312 93.7031 297.719 89.8555 297.719C85.9883 297.719 83.4102 296.312 83.4102 294.047ZM83.6641 307.484V302.172H86.1836V305.473H96.2031V307.484H83.6641ZM86.1055 294.047C86.0957 295.131 87.5605 295.717 89.8555 295.727C92.1504 295.717 93.6055 295.131 93.6055 294.047C93.6055 292.914 92.1504 292.328 89.8555 292.328C87.5605 292.328 86.0957 292.914 86.1055 294.047ZM110.707 291.02V293.031H104.828V294.418H110.336V296.391H104.828V297.836C107.709 297.836 109.584 297.748 111.664 297.348L111.938 299.32C109.545 299.73 107.387 299.809 103.793 299.789H102.309V291.02H110.707ZM104.125 307.602V301.195H115.746V307.602H104.125ZM106.586 305.609H113.285V303.129H106.586V305.609ZM113.246 300.414V290.023H115.746V294.184H118.148V296.234H115.746V300.414H113.246ZM123.613 293.109C123.613 295.092 124.59 297.016 126.953 297.953L125.605 299.867C124.102 299.262 123.057 298.178 122.422 296.84C121.777 298.363 120.654 299.643 119.004 300.336L117.676 298.402C120.186 297.328 121.191 295.121 121.191 293.109V291.059H123.613V293.109ZM120.918 303.578V301.586H133.203V307.797H130.723V303.578H120.918ZM127.031 300.707V290.316H129.355V294.359H130.84V290.043H133.203V300.805H130.84V296.391H129.355V300.707H127.031ZM144.215 291.801V293.227C144.195 294.896 144.195 297.084 143.727 300.043L141.266 299.848C141.676 297.27 141.715 295.365 141.734 293.793H134.996V291.801H144.215ZM134.059 302.172C135.055 302.172 136.168 302.162 137.32 302.133V296.898H139.781V302.055C141.529 301.986 143.297 301.859 144.938 301.645L145.094 303.5C141.432 304.115 137.408 304.184 134.293 304.164L134.059 302.172ZM145.777 307.797V290.023H148.297V297.172H150.719V299.242H148.297V307.797H145.777ZM164.695 297.25V299.242H161.238V302.162C162.703 302.104 164.168 302.006 165.555 301.859L165.75 303.676C161.863 304.271 157.82 304.301 154.48 304.301L154.188 302.27C155.604 302.279 157.146 302.279 158.738 302.24V299.242H155.359V291.605H164.598V293.578H157.84V297.25H164.695ZM166.57 307.836V290.023H169.051V307.836H166.57ZM184.711 294.125V296.078H179.75V297.25H186.605V299.223H170.395V297.25H177.25V296.078H172.426V290.609H184.574V292.602H174.906V294.125H184.711ZM172.27 302.016V300.18H184.633V304.711H174.73V305.766H185.102V307.66H172.289V302.973H182.172V302.016H172.27ZM191.465 291.273C194.18 291.273 196.143 293.725 196.152 297.602C196.143 301.508 194.18 303.949 191.465 303.949C188.74 303.949 186.768 301.508 186.777 297.602C186.768 293.725 188.74 291.273 191.465 291.273ZM189.18 297.602C189.18 300.248 190.107 301.693 191.465 301.684C192.852 301.693 193.76 300.248 193.77 297.602C193.76 294.965 192.852 293.52 191.465 293.52C190.107 293.52 189.18 294.965 189.18 297.602ZM198.203 307.797V290.023H200.703V296.723H203.32V298.793H200.703V307.797H198.203ZM211.07 290.941C214.889 290.941 217.76 292.875 217.77 295.805C217.76 298.49 215.494 300.287 212.301 300.639V303.676H219.234V305.727H202.965V303.676H209.82V300.639C206.646 300.277 204.391 298.48 204.391 295.805C204.391 292.875 207.252 290.941 211.07 290.941ZM206.852 295.805C206.852 297.68 208.58 298.725 211.07 298.734C213.57 298.725 215.299 297.68 215.309 295.805C215.299 294.027 213.57 292.924 211.07 292.934C208.58 292.924 206.852 294.027 206.852 295.805ZM234.191 290.023V307.797H231.672V290.023H234.191ZM219.309 302.758C223.898 300.59 225.92 297.777 226.32 293.832H220.266V291.879H228.859C228.85 297.27 226.965 301.752 220.617 304.75L219.309 302.758Z" fill="white"/>
<path d="M33.1523 332.266V337.625H35.3242V339.047H33.1523V346.406H31.418V332.266H33.1523ZM22.668 342.953V333.609H29.2773V335.016H24.4023V341.5C26.5977 341.492 28.3398 341.383 30.2773 341.047L30.4805 342.516C28.2852 342.891 26.3867 342.953 23.8398 342.953H22.668ZM49.3805 334.156V335.578H47.4586V337.188H49.3805V338.625H47.4586V340.562H45.7242V332.266H47.4586V334.156H49.3805ZM36.4742 336.453C36.4664 334.461 38.107 333.062 40.2867 333.078C42.4586 333.062 44.0836 334.461 44.0992 336.453C44.0836 338.438 42.4586 339.836 40.2867 339.844C38.107 339.836 36.4664 338.438 36.4742 336.453ZM38.0836 343.641C38.0836 341.914 39.943 340.898 42.8648 340.891C45.7633 340.898 47.5914 341.914 47.5992 343.641C47.5914 345.352 45.7633 346.375 42.8648 346.375C39.943 346.375 38.0836 345.352 38.0836 343.641ZM38.1773 336.453C38.1695 337.625 39.068 338.367 40.2867 338.375C41.4898 338.367 42.3883 337.625 42.3961 336.453C42.3883 335.289 41.4898 334.523 40.2867 334.531C39.068 334.523 38.1695 335.289 38.1773 336.453ZM39.818 343.641C39.818 344.531 40.9273 344.984 42.8648 344.984C44.7945 344.984 45.8805 344.531 45.8805 343.641C45.8805 342.758 44.7945 342.281 42.8648 342.281C40.9273 342.281 39.818 342.758 39.818 343.641ZM61.6867 332.281V336.719H63.6555V338.156H61.6867V342.828H59.9523V332.281H61.6867ZM50.5617 335.234V333.844H53.8898V332.266H55.6242V333.844H58.9367V335.234H50.5617ZM51.2805 338.516C51.2805 336.891 52.6945 335.812 54.7492 335.812C56.7883 335.812 58.1945 336.891 58.2023 338.516C58.1945 340.133 56.7883 341.188 54.7492 341.188C52.6945 341.188 51.2805 340.133 51.2805 338.516ZM52.6398 346.109V342H54.3742V344.703H62.2492V346.109H52.6398ZM52.968 338.516C52.9602 339.367 53.6789 339.852 54.7492 339.844C55.8195 339.852 56.5461 339.367 56.5461 338.516C56.5461 337.656 55.8195 337.156 54.7492 337.156C53.6789 337.156 52.9602 337.656 52.968 338.516ZM74.0336 334.812C74.0336 336.539 75.1508 338.164 77.3617 338.844L76.5336 340.203C74.9477 339.703 73.8227 338.695 73.2055 337.422C72.5805 338.906 71.393 340.086 69.6898 340.656L68.8148 339.281C71.0883 338.539 72.2836 336.703 72.2836 334.828V334.656H69.2992V333.25H76.9711V334.656H74.0336V334.812ZM70.7367 343.672C70.7367 341.984 72.5648 341 75.518 341C78.4477 341 80.2445 341.984 80.2523 343.672C80.2445 345.375 78.4477 346.375 75.518 346.375C72.5648 346.375 70.7367 345.375 70.7367 343.672ZM72.4711 343.672C72.4711 344.547 73.5805 345.008 75.518 345.016C77.4477 345.008 78.5336 344.547 78.5336 343.672C78.5336 342.812 77.4477 342.359 75.518 342.359C73.5805 342.359 72.4711 342.812 72.4711 343.672ZM78.3773 340.688V332.266H80.1117V335.656H82.0805V337.078H80.1117V340.688H78.3773ZM96.1055 343.234V344.641H83.1992V343.234H88.7305V339.969H90.4492V343.234H96.1055ZM83.5742 338.875C86.5273 338.398 88.6445 336.281 88.6523 334.156V333.125H90.4961V334.156C90.4961 336.289 92.6289 338.398 95.6055 338.875L94.8555 340.312C92.4727 339.859 90.5117 338.492 89.5742 336.641C88.6445 338.484 86.707 339.867 84.3242 340.312L83.5742 338.875ZM110.318 338.672V339.984H97.4117V338.672H110.318ZM98.9117 342.047V340.828H108.755V344.047H100.662V345.031H109.177V346.234H98.9273V342.922H107.037V342.047H98.9117ZM99.0055 333.781V332.578H108.724V335.766H100.771V336.688H108.974V337.875H99.0523V334.641H106.99V333.781H99.0055ZM123.04 333.094V334.516H118.165V335.828H122.759V337.219H118.165V338.609C120.61 338.602 122.126 338.547 123.852 338.219L124.04 339.594C122.126 339.93 120.438 339.984 117.555 339.969H116.43V333.094H123.04ZM117.868 346.219V341.203H126.993V346.219H117.868ZM119.587 344.812H125.274V342.562H119.587V344.812ZM125.259 340.547V332.266H126.993V335.641H128.962V337.078H126.993V340.547H125.259ZM134.487 334.828C134.495 336.406 135.37 337.969 137.221 338.703L136.284 340.031C135.041 339.531 134.166 338.609 133.666 337.484C133.143 338.75 132.221 339.828 130.877 340.406L129.955 339.062C131.901 338.211 132.807 336.422 132.815 334.828V333.109H134.487V334.828ZM132.487 342.891V341.5H142.159V346.391H140.424V342.891H132.487ZM137.471 340.75V332.516H139.096V335.797H140.502V332.281H142.159V340.828H140.502V337.234H139.096V340.75H137.471ZM212.309 354.703V356.078H208.246V357.156H213.824V358.531H200.949V357.156H206.512V356.078H202.59V351.766H212.184V353.172H204.324V354.703H212.309ZM202.465 360.719V359.438H212.215V362.875H204.184V363.922H212.605V365.25H202.48V361.656H210.512V360.719H202.465ZM218.974 352.297C221.099 352.297 222.63 354.234 222.646 357.281C222.63 360.352 221.099 362.281 218.974 362.281C216.826 362.281 215.295 360.352 215.302 357.281C215.295 354.234 216.826 352.297 218.974 352.297ZM216.974 357.281C216.966 359.453 217.787 360.711 218.974 360.719C220.17 360.711 220.966 359.453 220.974 357.281C220.966 355.125 220.17 353.859 218.974 353.859C217.787 353.859 216.966 355.125 216.974 357.281ZM224.505 365.391V351.266H226.24V356.688H228.412V358.156H226.24V365.391H224.505ZM235.827 352.062C238.859 352.07 241.101 353.578 241.093 355.875C241.101 357.992 239.28 359.406 236.687 359.664V362.25H242.312V363.672H229.405V362.25H234.968V359.664C232.405 359.406 230.585 357.992 230.593 355.875C230.585 353.578 232.82 352.07 235.827 352.062ZM232.296 355.875C232.288 357.398 233.765 358.312 235.827 358.312C237.921 358.312 239.39 357.398 239.39 355.875C239.39 354.398 237.921 353.461 235.827 353.469C233.765 353.461 232.288 354.398 232.296 355.875ZM248.04 354.969C248.048 357.25 248.829 359.625 250.743 360.828L249.79 362.156C248.516 361.391 247.688 360.078 247.22 358.539C246.712 360.234 245.805 361.672 244.477 362.484L243.399 361.188C245.454 359.945 246.36 357.453 246.368 355.047V352.516H248.04V354.969ZM249.227 357.562V356.125H251.243V351.516H252.884V364.703H251.243V357.562H249.227ZM254.149 365.391V351.266H255.821V365.391H254.149ZM270.768 362.25V363.672H257.862V362.25H260.846V358.68C259.721 358.031 259.041 357.016 259.049 355.766C259.041 353.516 261.245 352.031 264.284 352.031C267.338 352.031 269.557 353.516 269.549 355.766C269.557 357 268.893 357.992 267.799 358.641V362.25H270.768ZM260.752 355.766C260.745 357.211 262.174 358.133 264.284 358.125C266.385 358.133 267.846 357.211 267.846 355.766C267.846 354.297 266.385 353.398 264.284 353.406C262.174 353.398 260.745 354.297 260.752 355.766ZM262.565 362.25H266.034V359.305C265.495 359.422 264.909 359.484 264.284 359.484C263.674 359.484 263.096 359.422 262.565 359.312V362.25Z" fill="#E0FF98"/>
<path d="M155.152 332.375V338.109H157.48V339.125H155.152V346.266H153.934V332.375H155.152ZM144.324 335.625V334.609H147.902V332.547H149.121V334.609H152.59V335.625H144.324ZM145.121 339.969C145.113 338.094 146.551 336.781 148.527 336.781C150.488 336.781 151.918 338.094 151.934 339.969C151.918 341.852 150.488 343.156 148.527 343.156C146.551 343.156 145.113 341.852 145.121 339.969ZM146.293 339.969C146.285 341.234 147.23 342.125 148.527 342.109C149.809 342.125 150.746 341.234 150.762 339.969C150.746 338.711 149.809 337.805 148.527 337.812C147.23 337.805 146.285 338.711 146.293 339.969ZM169.38 332.375V337.875H171.709V338.906H169.38V346.297H168.162V332.375H169.38ZM159.24 342.812V333.734H165.724V334.75H160.459V341.781C162.974 341.773 164.748 341.664 166.818 341.281L166.974 342.344C164.795 342.734 162.974 342.812 160.334 342.812H159.24ZM188.805 332.375V346.297H187.571V337.984H183.243V336.969H187.571V332.375H188.805ZM178.04 342.922V333.938H179.274V341.891C181.399 341.867 183.282 341.758 185.368 341.328L185.524 342.344C183.305 342.805 181.352 342.922 179.102 342.922H178.04ZM204.205 340.453V341.469H198.409V346.266H197.205V341.469H191.487V340.453H204.205ZM193.127 338.562V333.156H202.549V338.562H193.127ZM194.33 337.594H201.33V334.156H194.33V337.594ZM217.255 333.125V335.391H220.427V332.375H221.646V339.516H220.427V336.391H217.255V338.797H210.802V333.125H217.255ZM212.021 337.812H216.052V334.109H212.021V337.812ZM212.646 341.203V340.219H221.646V343.547H213.896V345.094H222.177V346.078H212.677V342.609H220.427V341.203H212.646ZM228.109 333.453C229.999 333.461 231.366 335.086 231.554 337.688H234.671V332.375H235.89V346.297H234.671V338.703H231.57C231.437 341.43 230.046 343.133 228.109 343.125C226.054 343.133 224.616 341.258 224.624 338.297C224.616 335.344 226.054 333.461 228.109 333.453ZM225.796 338.297C225.804 340.555 226.741 342.039 228.109 342.031C229.468 342.039 230.421 340.555 230.421 338.297C230.421 336.039 229.468 334.555 228.109 334.547C226.741 334.555 225.804 336.039 225.796 338.297ZM250.118 332.375V340.516H248.884V338.297H246.29V337.297H248.884V336.031H246.29V335.016H248.884V332.375H250.118ZM238.665 339.562C240.766 338.836 242.204 337.078 242.212 335.078V334.344H239.071V333.328H246.524V334.344H243.462V335.062C243.446 336.891 244.821 338.57 246.852 339.266L246.212 340.219C244.649 339.672 243.446 338.539 242.845 337.125C242.251 338.703 240.977 339.938 239.321 340.531L238.665 339.562ZM239.384 345.172C241.141 344.539 242.196 343.031 242.212 341.688V340.938H243.384V341.688C243.376 342.938 244.04 344.242 245.36 345.008C246.696 344.172 247.376 342.758 247.384 341.688V340.938H248.587V341.688C248.579 343.125 249.618 344.57 251.43 345.172L250.79 346.094C249.407 345.586 248.438 344.617 247.97 343.445C247.532 344.578 246.68 345.656 245.384 346.203C244.055 345.688 243.196 344.664 242.774 343.492C242.274 344.609 241.321 345.586 239.993 346.094L239.384 345.172ZM263.58 332.375V337.875H265.909V338.906H263.58V346.297H262.362V332.375H263.58ZM253.44 342.812V333.734H259.924V334.75H254.659V341.781C257.174 341.773 258.948 341.664 261.018 341.281L261.174 342.344C258.995 342.734 257.174 342.812 254.534 342.812H253.44ZM274.09 333.594V334.828H277.34V332.391H278.574V342.531H277.34V338.828H274.09V340.078H267.715V333.594H274.09ZM268.934 339.094H272.887V334.609H268.934V339.094ZM269.59 345.969V341.625H270.824V344.938H278.887V345.969H269.59ZM274.09 337.812H277.34V335.859H274.09V337.812ZM43.9898 359.344V360.375H38.193V365.266H36.9898V360.375H31.2711V359.344H43.9898ZM32.7086 355C32.7164 353.117 34.6773 351.945 37.5992 351.938C40.5133 351.945 42.4898 353.117 42.4898 355C42.4898 356.852 40.5133 358.023 37.5992 358.016C34.6773 358.023 32.7164 356.852 32.7086 355ZM33.9742 355C33.9586 356.234 35.4352 357.031 37.5992 357.031C39.7633 357.031 41.232 356.234 41.2398 355C41.232 353.742 39.7633 352.938 37.5992 352.938C35.4352 352.938 33.9586 353.742 33.9742 355ZM58.1711 358.391V359.391H45.5148V358.391H58.1711ZM46.2648 356.656C48.8664 356.43 51.0695 355.352 51.1711 353.766H46.8273V352.781H51.2336V351.344H52.4367V352.781H56.8898V353.766H52.5148C52.6008 355.352 54.7961 356.43 57.4211 356.656L57.0148 357.625C54.7258 357.367 52.6789 356.531 51.843 355.125C50.9914 356.531 48.9445 357.367 46.6711 357.625L46.2648 356.656ZM46.9211 361.891V360.891H56.6086V365.266H55.3742V361.891H46.9211ZM70.493 351.375V357.109H72.8211V358.125H70.493V365.266H69.2742V351.375H70.493ZM59.6648 354.625V353.609H63.243V351.547H64.4617V353.609H67.9305V354.625H59.6648ZM60.4617 358.969C60.4539 357.094 61.8914 355.781 63.868 355.781C65.8289 355.781 67.2586 357.094 67.2742 358.969C67.2586 360.852 65.8289 362.156 63.868 362.156C61.8914 362.156 60.4539 360.852 60.4617 358.969ZM61.6336 358.969C61.6258 360.234 62.5711 361.125 63.868 361.109C65.1492 361.125 66.0867 360.234 66.1023 358.969C66.0867 357.711 65.1492 356.805 63.868 356.812C62.5711 356.805 61.6258 357.711 61.6336 358.969ZM84.8305 351.375V355.516H86.9398V356.547H84.8305V361.438H83.6117V351.375H84.8305ZM74.6273 358.969V352.578H80.8148V353.609H75.8461V357.938C78.6352 357.945 80.2211 357.859 82.0805 357.484L82.2367 358.5C80.2836 358.875 78.6273 358.969 75.7055 358.969H74.6273ZM76.143 364.969V360.422H77.3461V363.938H85.4711V364.969H76.143ZM97.193 352.062C99.2711 352.047 100.763 353.195 100.755 354.891C100.763 356.586 99.2711 357.742 97.193 357.734C95.1148 357.742 93.6305 356.586 93.6305 354.891C93.6305 353.195 95.1148 352.047 97.193 352.062ZM92.5836 358.922C95.193 358.93 98.7633 358.875 101.849 358.422L101.927 359.344C100.599 359.586 99.2242 359.734 97.8805 359.82V364.844H96.6617V359.891C95.2477 359.953 93.9117 359.961 92.7555 359.969L92.5836 358.922ZM94.8336 354.891C94.818 355.977 95.8102 356.727 97.193 356.719C98.5914 356.727 99.5914 355.977 99.5836 354.891C99.5914 353.812 98.5914 353.047 97.193 353.062C95.8102 353.047 94.818 353.812 94.8336 354.891ZM102.865 365.281V351.391H104.068V365.281H102.865ZM118.296 351.375V365.266H117.062V351.375H118.296ZM107.124 361.625C109.187 360.688 110.765 358.344 110.765 355.906V354.797H107.499V353.797H110.749V351.641H111.968V353.797H115.202V354.797H111.968V355.906C111.968 358.234 113.593 360.484 115.687 361.375L114.999 362.328C113.39 361.617 112.038 360.117 111.39 358.281C110.765 360.219 109.421 361.82 107.812 362.578L107.124 361.625ZM132.587 351.375V365.297H131.368V357.562H128.04V361.781H121.634V352.469H122.868V356.094H126.837V352.469H128.04V356.547H131.368V351.375H132.587ZM122.868 360.766H126.837V357.078H122.868V360.766ZM147.955 359.078V360.078H135.284V359.078H147.955ZM136.94 364.969V361.094H138.159V363.938H146.627V364.969H136.94ZM136.971 357.766V351.906H146.377V352.891H138.205V354.344H146.002V355.297H138.205V356.797H146.455V357.766H136.971ZM155.855 351.625C158.941 351.625 160.754 352.477 160.762 354.016C160.754 355.594 158.941 356.445 155.855 356.453C152.754 356.445 150.934 355.594 150.934 354.016C150.934 352.477 152.754 351.625 155.855 351.625ZM149.527 358.391V357.391H162.184V358.391H149.527ZM151.059 360.531V359.594H160.559V362.703H152.309V364.141H160.98V365.109H151.09V361.797H159.355V360.531H151.059ZM152.215 354.016C152.199 354.984 153.551 355.516 155.855 355.516C158.16 355.516 159.504 354.984 159.512 354.016C159.504 353.102 158.16 352.555 155.855 352.547C153.551 352.555 152.199 353.102 152.215 354.016ZM179.374 354.719V355.734H169.89V351.609H171.093V354.719H179.374ZM168.155 357.953V356.953H180.874V357.953H175.077V359.438H179.234V362.609H171.015V364.125H179.734V365.109H169.78V361.719H178.03V360.391H169.749V359.438H173.89V357.953H168.155ZM193.899 351.375V365.297H192.68V357.75H189.977V356.719H192.68V351.375H193.899ZM182.884 353.688V352.672H189.134V357.531H184.149V360.906C186.548 360.906 188.282 360.828 190.305 360.453L190.399 361.484C188.313 361.859 186.509 361.945 183.993 361.953H182.93V356.516H187.946V353.688H182.884Z" fill="white"/>
<circle cx="243.676" cy="252.123" r="4" fill="#F2F2F2"/>
<circle cx="279.676" cy="252.123" r="4" fill="#F2F2F2"/>
<rect x="251.676" y="248.123" width="20" height="8" rx="4" fill="#5FBA8E"/>
<path d="M273.96 155.421C273.866 155.328 273.792 155.217 273.741 155.095C273.69 154.973 273.664 154.843 273.664 154.711C273.664 154.579 273.69 154.448 273.741 154.326C273.792 154.204 273.866 154.094 273.96 154.001C274.053 153.907 274.164 153.833 274.285 153.782C274.407 153.731 274.538 153.705 274.67 153.705C274.802 153.705 274.933 153.731 275.055 153.782C275.176 153.833 275.287 153.907 275.38 154.001L283.38 162.001C283.474 162.094 283.548 162.204 283.599 162.326C283.65 162.448 283.676 162.579 283.676 162.711C283.676 162.843 283.65 162.973 283.599 163.095C283.548 163.217 283.474 163.328 283.38 163.421L275.38 171.421C275.192 171.609 274.936 171.715 274.67 171.715C274.538 171.715 274.408 171.689 274.286 171.638C274.164 171.588 274.053 171.514 273.96 171.421C273.867 171.328 273.793 171.217 273.742 171.095C273.692 170.973 273.666 170.843 273.666 170.711C273.666 170.579 273.692 170.448 273.742 170.327C273.793 170.205 273.867 170.094 273.96 170.001L281.26 162.711L273.96 155.421Z" fill="#F2F2F2"/>
<path d="M26.2041 155.421C26.2978 155.328 26.3722 155.217 26.423 155.095C26.4737 154.973 26.4999 154.843 26.4999 154.711C26.4999 154.579 26.4737 154.448 26.423 154.326C26.3722 154.204 26.2978 154.094 26.2041 154.001C26.1111 153.907 26.0005 153.833 25.8787 153.782C25.7568 153.731 25.6261 153.705 25.4941 153.705C25.3621 153.705 25.2314 153.731 25.1095 153.782C24.9876 153.833 24.877 153.907 24.7841 154.001L16.7841 162.001C16.6904 162.094 16.616 162.204 16.5652 162.326C16.5144 162.448 16.4883 162.579 16.4883 162.711C16.4883 162.843 16.5144 162.973 16.5652 163.095C16.616 163.217 16.6904 163.328 16.7841 163.421L24.7841 171.421C24.9724 171.609 25.2278 171.715 25.4941 171.715C25.6259 171.715 25.7565 171.689 25.8783 171.638C26.0002 171.588 26.1108 171.514 26.2041 171.421C26.2973 171.328 26.3713 171.217 26.4217 171.095C26.4722 170.973 26.4982 170.843 26.4982 170.711C26.4982 170.579 26.4722 170.448 26.4217 170.327C26.3713 170.205 26.2973 170.094 26.2041 170.001L18.9041 162.711L26.2041 155.421Z" fill="#F2F2F2"/>
<g filter="url(#filter0_d_153_3492)">
<rect x="21.4922" y="49.1367" width="65.6" height="24" rx="12" fill="#F0F8FF" shape-rendering="crispEdges"/>
<rect x="21.8922" y="49.5367" width="64.8" height="23.2" rx="11.6" stroke="#3DA2FF" stroke-width="0.8" shape-rendering="crispEdges"/>
<path d="M41.4285 57.1217C41.1549 56.8483 40.8299 56.6314 40.4723 56.4834C40.1147 56.3354 39.7314 56.2593 39.3443 56.2593C38.9571 56.2593 38.5738 56.3354 38.2162 56.4834C37.8586 56.6314 37.5336 56.8483 37.26 57.1217L36.692 57.6888L36.1241 57.1217C35.5713 56.5697 34.8215 56.2596 34.0398 56.2596C33.258 56.2596 32.5083 56.5697 31.9555 57.1217C31.4027 57.6737 31.0922 58.4224 31.0922 59.203C31.0922 59.9836 31.4027 60.7323 31.9555 61.2843L32.5235 61.8515L36.692 66.0141L40.8606 61.8515L41.4285 61.2843C41.7023 61.011 41.9195 60.6866 42.0677 60.3295C42.2159 59.9723 42.2922 59.5896 42.2922 59.203C42.2922 58.8164 42.2159 58.4337 42.0677 58.0765C41.9195 57.7194 41.7023 57.395 41.4285 57.1217Z" fill="#FF5858"/>
<path d="M54.9859 59.682V60.4039H53.4109V65.5227H52.5578V55.7992H53.4109V59.682H54.9859ZM46.2906 63.0508V56.7617H47.1437V62.3289C48.5656 62.3289 50.0148 62.2195 51.6172 61.8805L51.7266 62.6133C50.0477 62.9523 48.5383 63.0508 47.0672 63.0508H46.2906ZM58.7484 56.5102C60.2742 56.5156 61.357 57.4453 61.3625 58.7961C61.357 60.1523 60.2742 61.0766 58.7484 61.082C57.2117 61.0766 56.118 60.1523 56.1234 58.7961C56.118 57.4453 57.2117 56.5156 58.7484 56.5102ZM55.6203 62.668C57.4141 62.6734 59.8914 62.657 62.0406 62.3398L62.1062 62.9742C59.8805 63.3898 57.4906 63.4008 55.7406 63.4008L55.6203 62.668ZM56.9656 58.7961C56.9602 59.7039 57.7094 60.3273 58.7484 60.3273C59.7766 60.3273 60.5258 59.7039 60.5203 58.7961C60.5258 57.8938 59.7766 57.2648 58.7484 57.2648C57.7094 57.2648 56.9602 57.8938 56.9656 58.7961ZM62.6859 65.5445V55.7992H63.5391V65.5445H62.6859ZM70.375 57.6367C70.375 58.3422 70.6047 59.4633 71.3813 60.1906C72.1414 59.4852 72.3656 58.3914 72.3656 57.6367V57.1883H71.6219V56.4883H74.3891V57.1883H73.1969V57.6367C73.1859 58.5828 73.6508 59.8516 74.7609 60.4148L74.3016 61.0383C73.525 60.6336 73.0492 59.9117 72.7922 59.1297C72.5789 59.9227 72.1523 60.6938 71.3813 61.1367C70.6156 60.6883 70.1891 59.9117 69.9703 59.1297C69.7133 59.9063 69.2375 60.6391 68.4719 61.0383L67.9906 60.4148C69.1063 59.8242 69.5711 58.55 69.5766 57.6367V57.1883H68.3406V56.4883H71.1406V57.1883H70.375V57.6367ZM69.7078 65.3914V62.0336H76.1828V65.3914H69.7078ZM70.55 64.6914H75.3516V62.7227H70.55V64.6914ZM75.3297 61.5086V55.7992H76.1828V61.5086H75.3297Z" fill="#27342E"/>
</g>
<g filter="url(#filter1_d_153_3492)">
<rect x="93.4922" y="49.1367" width="53.6" height="24" rx="12" fill="white" shape-rendering="crispEdges"/>
<g clip-path="url(#clip1_153_3492)">
<path d="M111.242 59.5765H103.486V64.2565C103.486 64.8082 103.709 65.3372 104.106 65.7273C104.502 66.1174 105.04 66.3365 105.601 66.3365H109.127C109.688 66.3365 110.226 66.1174 110.622 65.7273C111.019 65.3372 111.242 64.8082 111.242 64.2565V63.7365V59.5765Z" fill="#3DA2FF"/>
<path d="M111.242 59.5765H111.771C112.332 59.5765 112.87 59.7957 113.266 60.1857C113.663 60.5758 113.886 61.1049 113.886 61.6565C113.886 62.2082 113.663 62.7372 113.266 63.1273C112.87 63.5174 112.332 63.7365 111.771 63.7365H111.242M111.242 59.5765H103.486V64.2565C103.486 64.8082 103.709 65.3372 104.106 65.7273C104.502 66.1174 105.04 66.3365 105.601 66.3365H109.127C109.688 66.3365 110.226 66.1174 110.622 65.7273C111.019 65.3372 111.242 64.8082 111.242 64.2565M111.242 59.5765V64.2565M111.242 59.5765V63.7365M111.242 63.7365V64.2565M104.896 55.9365V57.4965M107.011 55.9365V57.4965M109.127 55.9365V57.4965" stroke="#3DA2FF" stroke-width="0.8" stroke-linecap="round" stroke-linejoin="round"/>
</g>
<path d="M123.248 56.8164C123.243 59.6219 122.286 62.1922 118.786 63.9148L118.305 63.2586C120.131 62.3672 121.23 61.2406 121.821 59.9336L118.491 60.2508L118.348 59.4961L122.084 59.2445C122.259 58.6977 122.357 58.1234 122.395 57.5273H118.841V56.8164H123.248ZM124.878 65.5227V55.7992H125.731V59.7586H127.306V60.4805H125.731V65.5227H124.878ZM136.253 55.7992V65.5227H135.422V55.7992H136.253ZM127.777 62.3836C128.077 62.3836 128.427 62.3836 128.805 62.3781V57.757H127.984V57.0461H132.458V57.757H131.637V62.2633C132.004 62.2305 132.354 62.1977 132.677 62.1539L132.731 62.7883C131.195 63.0727 129.155 63.1219 127.886 63.1164L127.777 62.3836ZM129.592 62.3617C129.997 62.3508 130.423 62.3344 130.839 62.3125V57.757H129.592V62.3617ZM132.173 60.2727V59.4961H133.53V56.0398H134.35V65.0086H133.53V60.2727H132.173Z" fill="#27342E"/>
</g>
<g filter="url(#filter2_d_153_3492)">
<rect x="153.492" y="49.1367" width="68.4" height="24" rx="12" fill="white" shape-rendering="crispEdges"/>
<path d="M167.885 55.5371C167.527 55.5404 167.174 55.6134 166.849 55.7513C166.524 55.8893 166.235 56.089 166.001 56.3371C165.515 56.8569 165.252 57.5201 165.26 58.2038V58.7371C165.257 59.1516 165.361 59.5609 165.564 59.9317C165.767 60.3024 166.062 60.6241 166.427 60.8704V65.4038C166.427 65.7574 166.581 66.0965 166.854 66.3466C167.128 66.5966 167.499 66.7371 167.885 66.7371C168.272 66.7371 168.643 66.5966 168.917 66.3466C169.19 66.0965 169.344 65.7574 169.344 65.4038V60.8918C169.708 60.6454 170.004 60.3238 170.207 59.953C170.41 59.5823 170.514 59.1729 170.51 58.7584V58.2251C170.524 57.5341 170.261 56.8625 169.769 56.3371C169.536 56.089 169.247 55.8893 168.922 55.7513C168.597 55.6134 168.244 55.5404 167.885 55.5371ZM169.344 58.7371C169.358 58.9951 169.301 59.2521 169.179 59.4849C169.056 59.7177 168.872 59.919 168.644 60.0704C168.502 60.1676 168.386 60.293 168.305 60.4372C168.224 60.5814 168.181 60.7405 168.177 60.9024V65.4038C168.177 65.4745 168.146 65.5423 168.092 65.5923C168.037 65.6423 167.963 65.6704 167.885 65.6704C167.808 65.6704 167.734 65.6423 167.679 65.5923C167.624 65.5423 167.594 65.4745 167.594 65.4038V60.9024C167.59 60.7405 167.546 60.5814 167.465 60.4372C167.384 60.293 167.269 60.1676 167.127 60.0704C166.898 59.919 166.714 59.7177 166.592 59.4849C166.47 59.2521 166.413 58.9951 166.427 58.7371V58.2038C166.42 57.7804 166.582 57.3692 166.882 57.0464C167.002 56.9086 167.155 56.7974 167.329 56.7209C167.502 56.6444 167.693 56.6047 167.885 56.6047C168.078 56.6047 168.268 56.6444 168.442 56.7209C168.616 56.7974 168.768 56.9086 168.889 57.0464C169.189 57.3692 169.35 57.7804 169.344 58.2038V58.7371ZM176.927 56.3371C176.927 56.1957 176.866 56.06 176.756 55.96C176.647 55.86 176.498 55.8038 176.344 55.8038C176.189 55.8038 176.041 55.86 175.931 55.96C175.822 56.06 175.76 56.1957 175.76 56.3371V58.7371C175.774 58.9951 175.717 59.2521 175.595 59.4849C175.473 59.7177 175.289 59.919 175.06 60.0704C174.915 60.1703 174.797 60.3 174.716 60.4491C174.634 60.5982 174.593 60.7626 174.594 60.9291V65.4038C174.594 65.4745 174.563 65.5423 174.508 65.5923C174.454 65.6423 174.379 65.6704 174.302 65.6704C174.225 65.6704 174.15 65.6423 174.096 65.5923C174.041 65.5423 174.01 65.4745 174.01 65.4038V60.9024C174.007 60.7405 173.963 60.5814 173.882 60.4372C173.801 60.293 173.685 60.1676 173.544 60.0704C173.316 59.918 173.133 59.7166 173.011 59.484C172.889 59.2514 172.831 58.9949 172.844 58.7371V56.3371C172.844 56.1957 172.782 56.06 172.673 55.96C172.563 55.86 172.415 55.8038 172.26 55.8038C172.106 55.8038 171.957 55.86 171.848 55.96C171.738 56.06 171.677 56.1957 171.677 56.3371V59.0038C171.677 59.0753 171.693 59.146 171.724 59.2118C171.839 59.8852 172.242 60.4893 172.844 60.8918V65.4038C172.844 65.7574 172.997 66.0965 173.271 66.3466C173.544 66.5966 173.915 66.7371 174.302 66.7371C174.689 66.7371 175.06 66.5966 175.333 66.3466C175.607 66.0965 175.76 65.7574 175.76 65.4038V60.8918C176.362 60.4893 176.765 59.8852 176.88 59.2118C176.911 59.146 176.927 59.0753 176.927 59.0038V56.3371ZM173.719 58.4704V56.3371C173.719 56.1957 173.78 56.06 173.89 55.96C173.999 55.86 174.147 55.8038 174.302 55.8038C174.457 55.8038 174.605 55.86 174.714 55.96C174.824 56.06 174.885 56.1957 174.885 56.3371V58.4704C174.885 58.6119 174.824 58.7475 174.714 58.8476C174.605 58.9476 174.457 59.0038 174.302 59.0038C174.147 59.0038 173.999 58.9476 173.89 58.8476C173.78 58.7475 173.719 58.6119 173.719 58.4704Z" fill="#3DA2FF"/>
<path d="M187.596 56.018C189.713 56.018 191.025 56.7016 191.031 57.8664C191.025 59.0148 189.713 59.6875 187.596 59.682C185.48 59.6875 184.151 59.0148 184.151 57.8664C184.151 56.7016 185.48 56.018 187.596 56.018ZM183.166 61.2352V60.5242H192.026V61.2352H183.166ZM184.249 65.3914V62.1977H190.943V65.3914H184.249ZM185.037 57.8664C185.031 58.5719 186.021 58.9984 187.596 59.0039C189.155 58.9984 190.15 58.5719 190.156 57.8664C190.15 57.1391 189.155 56.707 187.596 56.707C186.021 56.707 185.031 57.1391 185.037 57.8664ZM185.102 64.6914H190.101V62.8867H185.102V64.6914ZM196.291 57.2102C196.281 58.6266 197.309 59.8898 198.752 60.393L198.315 61.0711C197.188 60.6555 196.297 59.8188 195.859 58.7414C195.433 59.8953 194.536 60.8031 193.393 61.2461L192.945 60.568C194.399 60.0266 195.416 58.6813 195.416 57.2102V56.2805H196.291V57.2102ZM194.334 62.8539V62.143H200.874V65.5227H200.021V62.8539H194.334ZM200.021 61.6617V55.7992H200.874V61.6617H200.021ZM210.587 55.7992V61.4977H209.723V58.9602H207.754V58.2383H209.723V55.7992H210.587ZM202.57 60.7211C204.002 60.2125 205.041 58.9109 205.041 57.5273V57.1445H202.843V56.4336H208.082V57.1445H205.906V57.5273C205.906 58.7797 206.879 59.9938 208.301 60.5023L207.852 61.1805C206.759 60.7813 205.911 59.9664 205.49 58.9602C205.069 60.0867 204.172 60.9781 203.018 61.3992L202.57 60.7211ZM204.232 65.3914V61.9789H210.587V65.3914H204.232ZM205.085 64.6914H209.745V62.668H205.085V64.6914Z" fill="#27342E"/>
</g>
<g filter="url(#filter3_d_153_3492)">
<rect x="228.292" y="49.1367" width="68.4" height="24" rx="12" fill="white" shape-rendering="crispEdges"/>
<path d="M240.991 55.5352C240.604 55.5352 240.291 55.8301 240.291 56.194C240.291 56.5578 240.604 56.8528 240.991 56.8528H241.844L242.058 57.658C242.06 57.6674 242.063 57.6766 242.065 57.6857L243.015 61.2624L242.391 61.8505C241.509 62.6806 242.133 64.0999 243.381 64.0999H249.391C249.777 64.0999 250.091 63.8049 250.091 63.441C250.091 63.0772 249.777 62.7822 249.391 62.7822L243.381 62.7822L244.081 62.1234H248.691C248.956 62.1234 249.198 61.9824 249.317 61.7592L251.417 57.8063C251.525 57.602 251.514 57.3595 251.386 57.1653C251.259 56.971 251.033 56.8528 250.791 56.8528H243.287L243.07 56.0342C242.992 55.7409 242.712 55.5352 242.391 55.5352H240.991Z" fill="#3DA2FF"/>
<path d="M250.091 65.7469C250.091 66.2927 249.621 66.7352 249.041 66.7352C248.461 66.7352 247.991 66.2927 247.991 65.7469C247.991 65.2011 248.461 64.7587 249.041 64.7587C249.621 64.7587 250.091 65.2011 250.091 65.7469Z" fill="#3DA2FF"/>
<path d="M243.441 66.7352C244.021 66.7352 244.491 66.2927 244.491 65.7469C244.491 65.2011 244.021 64.7587 243.441 64.7587C242.861 64.7587 242.391 65.2011 242.391 65.7469C242.391 66.2927 242.861 66.7352 243.441 66.7352Z" fill="#3DA2FF"/>
<path d="M266.027 55.7992V63.0398H265.163V60.218H263.501V59.4961H265.163V58.3695H263.501V57.6586H265.163V55.7992H266.027ZM257.988 60.8305C258.377 60.8305 258.798 60.825 259.246 60.8195V57.2977H258.262V56.5977H263.424V57.2977H262.429V60.7047C262.877 60.6773 263.32 60.6391 263.742 60.5898L263.785 61.2352C261.899 61.525 259.678 61.5578 258.098 61.5633L257.988 60.8305ZM259.76 65.3148V62.4383H260.624V64.593H266.29V65.3148H259.76ZM260.077 60.8031C260.575 60.7922 261.089 60.7758 261.598 60.7539V57.2977H260.077V60.8031ZM270.829 56.5102C272.355 56.5156 273.438 57.4453 273.443 58.7961C273.438 60.1523 272.355 61.0766 270.829 61.082C269.292 61.0766 268.199 60.1523 268.204 58.7961C268.199 57.4453 269.292 56.5156 270.829 56.5102ZM267.701 62.668C269.495 62.6734 271.972 62.657 274.121 62.3398L274.187 62.9742C271.961 63.3898 269.571 63.4008 267.821 63.4008L267.701 62.668ZM269.046 58.7961C269.041 59.7039 269.79 60.3273 270.829 60.3273C271.857 60.3273 272.606 59.7039 272.601 58.7961C272.606 57.8938 271.857 57.2648 270.829 57.2648C269.79 57.2648 269.041 57.8938 269.046 58.7961ZM274.767 65.5445V55.7992H275.62V65.5445H274.767ZM285.387 55.7992V61.4977H284.523V58.9602H282.554V58.2383H284.523V55.7992H285.387ZM277.37 60.7211C278.802 60.2125 279.842 58.9109 279.842 57.5273V57.1445H277.643V56.4336H282.882V57.1445H280.706V57.5273C280.706 58.7797 281.679 59.9938 283.101 60.5023L282.652 61.1805C281.559 60.7813 280.711 59.9664 280.29 58.9602C279.869 60.0867 278.972 60.9781 277.818 61.3992L277.37 60.7211ZM279.032 65.3914V61.9789H285.387V65.3914H279.032ZM279.885 64.6914H284.545V62.668H279.885V64.6914Z" fill="#27342E"/>
</g>
<rect x="150.973" y="213.467" width="7" height="7" fill="white" stroke="#3DA2FF"/>
<g filter="url(#filter4_d_153_3492)">
<rect x="113.886" y="77.1367" width="74.2" height="24" rx="12" fill="white" shape-rendering="crispEdges"/>
<path d="M128.272 83.5371C128.047 83.5401 127.866 83.7218 127.863 83.9469V86.6786C127.863 86.9049 128.046 87.0883 128.272 87.0883C128.499 87.0883 128.682 86.9049 128.682 86.6786V83.9469C128.679 83.7218 128.497 83.5401 128.272 83.5371Z" fill="#5FBA8E"/>
<path d="M128.272 91.1859C128.047 91.1888 127.866 91.3706 127.863 91.5956V94.3274C127.863 94.5537 128.046 94.7371 128.272 94.7371C128.499 94.7371 128.682 94.5537 128.682 94.3274V91.5956C128.679 91.3706 128.497 91.1888 128.272 91.1859Z" fill="#5FBA8E"/>
<path d="M125.634 84.6516C125.505 84.4822 125.269 84.4374 125.087 84.5478C124.998 84.6106 124.937 84.7064 124.918 84.8142C124.9 84.9219 124.925 85.0325 124.989 85.1215L126.524 87.356C126.594 87.504 126.746 87.5958 126.91 87.5895C127.074 87.5831 127.218 87.4797 127.277 87.3267C127.335 87.1737 127.297 87.0004 127.18 86.8862L125.634 84.6516Z" fill="#5FBA8E"/>
<path d="M130.021 90.9182C129.891 90.7326 129.635 90.6874 129.45 90.8171C129.264 90.9469 129.219 91.2025 129.349 91.388L130.911 93.6226C131.041 93.8081 131.297 93.8534 131.482 93.7236C131.668 93.5939 131.713 93.3383 131.583 93.1527L130.021 90.9182Z" fill="#5FBA8E"/>
<path d="M123.257 87.7494L125.825 88.6836C125.87 88.6915 125.916 88.6915 125.961 88.6836C126.138 88.6574 126.277 88.5202 126.305 88.3443C126.334 88.1685 126.246 87.9942 126.087 87.9133L123.536 86.9791C123.432 86.9332 123.313 86.9331 123.209 86.9788C123.106 87.0246 123.026 87.1119 122.989 87.2195C122.953 87.3252 122.961 87.441 123.012 87.5407C123.062 87.6405 123.15 87.7157 123.257 87.7494Z" fill="#5FBA8E"/>
<path d="M133.288 90.5248L130.72 89.5906C130.615 89.5483 130.498 89.5507 130.394 89.5971C130.291 89.6435 130.212 89.7299 130.174 89.8364C130.13 89.9412 130.131 90.0594 130.178 90.163C130.224 90.2666 130.312 90.3462 130.419 90.3828L133.009 91.3225C133.055 91.3394 133.103 91.3486 133.151 91.3498C133.322 91.349 133.474 91.2423 133.534 91.0821C133.579 90.976 133.579 90.8555 133.532 90.7498C133.486 90.644 133.397 90.5625 133.288 90.5248Z" fill="#5FBA8E"/>
<path d="M126.295 89.6835C126.266 89.5783 126.198 89.4887 126.103 89.4344C126.009 89.3801 125.897 89.3655 125.792 89.3939L123.153 90.0823C122.949 90.1302 122.813 90.325 122.84 90.5334C122.867 90.7418 123.047 90.8962 123.257 90.8909C123.293 90.8962 123.33 90.8962 123.366 90.8909L126.005 90.1861C126.222 90.1249 126.351 89.9018 126.295 89.6835Z" fill="#5FBA8E"/>
<path d="M130.25 88.5908C130.301 88.7697 130.463 88.8941 130.649 88.8967C130.683 88.902 130.718 88.902 130.753 88.8967L133.392 88.1919C133.542 88.1644 133.665 88.0551 133.71 87.9087C133.754 87.7622 133.714 87.6031 133.604 87.496C133.495 87.3889 133.335 87.3518 133.189 87.3997L130.551 88.1045C130.337 88.1609 130.205 88.3746 130.25 88.5908Z" fill="#5FBA8E"/>
<path d="M126.377 90.7761L124.623 92.8522C124.531 92.974 124.515 93.1366 124.58 93.2742C124.646 93.4118 124.782 93.5018 124.934 93.5078C125.057 93.5092 125.173 93.455 125.251 93.3603L127.005 91.2678C127.075 91.1847 127.11 91.0768 127.101 90.9681C127.091 90.8593 127.039 90.7588 126.956 90.6887C126.771 90.5566 126.514 90.5953 126.377 90.7761Z" fill="#5FBA8E"/>
<path d="M129.851 87.662C129.976 87.6571 130.092 87.597 130.168 87.4981L131.922 85.422C132.05 85.2549 132.029 85.0171 131.873 84.8756C131.79 84.8051 131.682 84.7706 131.573 84.7798C131.464 84.789 131.364 84.8412 131.294 84.9248L129.54 86.99C129.469 87.0732 129.435 87.1811 129.444 87.2898C129.453 87.3985 129.505 87.499 129.589 87.5691C129.662 87.631 129.755 87.664 129.851 87.662Z" fill="#5FBA8E"/>
<path d="M145.413 84.5539V85.068C145.407 85.7078 145.407 86.6758 145.161 87.9445L144.297 87.8789C144.532 86.7195 144.554 85.8938 144.565 85.2758H140.567V84.5539H145.413ZM139.966 88.8523C140.595 88.8523 141.305 88.8469 142.055 88.825V86.7086H142.908V88.7977C143.985 88.7539 145.101 88.6773 146.113 88.5352L146.167 89.1695C144.127 89.5195 141.787 89.5578 140.053 89.5633L139.966 88.8523ZM141.464 93.3148V90.4602H142.328V92.593H147.961V93.3148H141.464ZM146.769 91.1164V83.7992H147.644V86.9711H149.066V87.7039H147.644V91.1164H146.769ZM155.092 84.4117V84.9367C155.087 85.5438 155.087 86.4242 154.83 87.5727L153.977 87.4961C154.206 86.468 154.228 85.7133 154.228 85.1336H150.247V84.4117H155.092ZM149.645 88.4805C150.28 88.4805 150.991 88.475 151.734 88.4531V86.5227H152.588V88.4313C153.67 88.3875 154.78 88.3164 155.792 88.1852L155.847 88.8195C153.807 89.1477 151.488 89.2023 149.733 89.2023L149.645 88.4805ZM150.925 91.7289C150.925 90.6406 152.15 90.0008 154.163 90.0008C156.175 90.0008 157.405 90.6406 157.4 91.7289C157.405 92.8555 156.175 93.4953 154.163 93.4898C152.15 93.4953 150.925 92.8555 150.925 91.7289ZM151.789 91.7289C151.784 92.418 152.691 92.8062 154.163 92.8117C155.628 92.8062 156.53 92.418 156.536 91.7289C156.53 91.0727 155.628 90.6734 154.163 90.668C152.691 90.6734 151.784 91.0727 151.789 91.7289ZM156.448 89.8805V83.7992H157.323V86.468H158.745V87.1898H157.323V89.8805H156.448ZM167.441 83.7992V89.5633H166.577V88.032H164.302V88.8633H159.839V84.543H164.302V85.3852H166.577V83.7992H167.441ZM160.692 88.1633H163.459V85.243H160.692V88.1633ZM160.955 91.6852C160.949 90.5148 162.191 89.8422 164.214 89.8477C166.232 89.8422 167.473 90.5148 167.473 91.6852C167.473 92.8445 166.232 93.5008 164.214 93.5008C162.191 93.5008 160.949 92.8445 160.955 91.6852ZM161.808 91.6852C161.802 92.3906 162.721 92.8227 164.214 92.8227C165.702 92.8227 166.62 92.3906 166.62 91.6852C166.62 90.9523 165.702 90.5258 164.214 90.5148C162.721 90.5258 161.802 90.9523 161.808 91.6852ZM164.302 87.3102H166.577V86.0961H164.302V87.3102ZM177.963 91.543V92.2539H169.059V91.543H173.041V89.1586H173.883V91.543H177.963ZM169.409 88.557C171.11 88.2672 173.002 86.8453 173.008 85.2102V84.4664H173.905V85.2102C173.91 86.8344 175.83 88.2672 177.525 88.557L177.142 89.268C175.66 88.9617 174.096 87.9609 173.467 86.5609C172.827 87.9555 171.28 88.9617 169.792 89.268L169.409 88.557Z" fill="#27342E"/>
</g>
<g filter="url(#filter5_d_153_3492)">
<rect x="194.486" y="77.1367" width="72.6" height="24" rx="12" fill="white" shape-rendering="crispEdges"/>
<path fill-rule="evenodd" clip-rule="evenodd" d="M208.439 91.3033C216.206 85.9429 210.423 81.8405 208.09 84.2391C205.757 81.8405 199.974 85.9429 207.742 91.3033L207.575 91.6361C207.565 91.657 207.559 91.6798 207.557 91.7031C207.555 91.7264 207.558 91.7499 207.566 91.772C207.581 91.8169 207.613 91.8539 207.655 91.875C207.697 91.8961 207.746 91.8996 207.791 91.8847C207.836 91.8697 207.873 91.8376 207.894 91.7954L207.923 91.7385C207.929 91.8594 207.94 91.9625 207.959 92.0585C208.007 92.3031 208.107 92.5008 208.277 92.8421L208.287 92.862C208.437 93.1621 208.416 93.4665 208.322 93.7481C208.226 94.034 208.062 94.2821 207.942 94.4613C207.916 94.5006 207.907 94.5486 207.916 94.5949C207.925 94.6412 207.952 94.6819 207.991 94.7081C208.031 94.7343 208.079 94.7439 208.125 94.7347C208.171 94.7255 208.212 94.6983 208.238 94.659L208.241 94.6541C208.359 94.4777 208.548 94.1947 208.659 93.8612C208.773 93.5205 208.81 93.1138 208.605 92.7028C208.422 92.3365 208.346 92.1822 208.307 91.9888C208.293 91.921 208.285 91.8523 208.281 91.7833L208.287 91.7954C208.308 91.8376 208.345 91.8697 208.39 91.8847C208.434 91.8996 208.483 91.8961 208.526 91.875C208.568 91.8539 208.6 91.8169 208.615 91.772C208.63 91.7272 208.626 91.6783 208.605 91.6361L208.439 91.3033ZM207.184 84.4403C206.354 84.0065 205.193 84.3393 204.728 85.2474C204.56 85.5767 204.472 86.0154 204.585 86.563C204.624 86.755 204.917 86.7031 204.959 86.5125C205.162 85.6193 205.796 84.7617 207.085 84.7148C207.251 84.7091 207.332 84.5171 207.184 84.4403Z" fill="#5FBA8E"/>
<path d="M227.913 88.7758V89.4867H223.953V91.4773H223.1V89.4867H219.009V88.7758H227.913ZM220.147 93.3148V90.5148H221.011V92.593H226.917V93.3148H220.147ZM220.169 87.6602V84.2805H226.753V87.6602H220.169ZM221.011 86.9711H225.9V84.9586H221.011V86.9711ZM236.247 83.7992V87.9445H237.8V88.6664H236.247V93.5227H235.383V83.7992H236.247ZM228.58 90.9305C229.373 90.9305 230.297 90.925 231.259 90.8977V89.8258C230.127 89.6945 229.389 89.0273 229.4 88.0648C229.389 86.9656 230.319 86.2547 231.697 86.2602C233.053 86.2547 233.999 86.9656 234.005 88.0648C233.999 89.0328 233.25 89.6945 232.123 89.8258V90.8648C233.026 90.8211 233.945 90.7445 234.792 90.6242L234.847 91.2805C232.725 91.6414 230.428 91.6633 228.722 91.6633L228.58 90.9305ZM228.755 85.6914V84.9914H231.259V83.8211H232.123V84.9914H234.617V85.6914H228.755ZM230.198 88.0648C230.204 88.7375 230.795 89.1805 231.697 89.1695C232.583 89.1805 233.179 88.7375 233.184 88.0648C233.179 87.3867 232.583 86.9273 231.697 86.9273C230.795 86.9273 230.204 87.3867 230.198 88.0648ZM241.836 86.4133C241.83 88.1906 243.039 89.9734 244.472 90.6242L243.947 91.3023C242.837 90.7664 241.88 89.6125 241.415 88.2289C240.966 89.6945 240.009 90.925 238.872 91.4992L238.325 90.7773C239.774 90.1156 240.972 88.2563 240.983 86.4133V84.6414H241.836V86.4133ZM245.533 93.5445V83.7992H246.397V93.5445H245.533ZM256.12 83.7992V88.8305H255.256V86.3039H253.091V85.593H255.256V83.7992H256.12ZM248.048 88.1633C249.514 87.6766 250.52 86.457 250.531 85.0352V84.1164H251.373V85.0352C251.363 86.3094 252.369 87.4797 253.791 87.9445L253.331 88.6117C252.254 88.2289 251.395 87.4633 250.963 86.4789C250.548 87.5891 249.667 88.4367 248.519 88.8523L248.048 88.1633ZM249.82 90.0117V89.3227H256.12V91.6414H250.684V92.7023H256.481V93.3914H249.842V90.9852H255.267V90.0117H249.82Z" fill="#27342E"/>
</g>
<g filter="url(#filter6_d_153_3492)">
<rect x="273.486" y="77.1367" width="65.2" height="24" rx="12" fill="white" shape-rendering="crispEdges"/>
<path d="M283.226 85.2741C283.39 84.8916 283.663 84.5656 284.011 84.3367C284.358 84.1078 284.765 83.986 285.181 83.9863H290.589C291.439 83.9863 292.207 84.4929 292.542 85.2741L293.216 86.8449C293.279 86.9936 293.394 87.116 293.539 87.1883C293.964 87.4008 294.265 87.796 294.359 88.261L294.644 89.6881C294.672 89.8253 294.686 89.9641 294.685 90.1046V90.4557C294.685 91.1476 294.354 91.7672 293.835 92.1531V93.7613C293.835 93.874 293.79 93.9821 293.711 94.0618C293.631 94.1415 293.523 94.1863 293.41 94.1863H291.71C291.597 94.1863 291.489 94.1415 291.41 94.0618C291.33 93.9821 291.285 93.874 291.285 93.7613V92.624C290.187 92.6648 288.952 92.6988 287.885 92.6988C286.818 92.6988 285.583 92.6648 284.485 92.624V93.7613C284.485 93.874 284.44 93.9821 284.361 94.0618C284.281 94.1415 284.173 94.1863 284.06 94.1863H282.36C282.247 94.1863 282.139 94.1415 282.06 94.0618C281.98 93.9821 281.935 93.874 281.935 93.7613V92.1531C281.417 91.7672 281.085 91.1476 281.085 90.4557V90.1046C281.085 89.9648 281.099 89.8252 281.127 89.6881L281.412 88.2601C281.505 87.796 281.807 87.3999 282.231 87.1883C282.376 87.1161 282.491 86.9943 282.555 86.8449L283.228 85.2741H283.226ZM288.964 85.7076C288.933 85.6895 288.897 85.6825 288.861 85.6877C288.825 85.693 288.793 85.7102 288.768 85.7365L286.227 88.4454C286.206 88.4682 286.192 88.4966 286.186 88.5272C286.181 88.5578 286.185 88.5893 286.197 88.6178C286.21 88.6463 286.23 88.6706 286.256 88.6877C286.282 88.7047 286.312 88.7139 286.343 88.714H287.398L286.826 90.5798C286.816 90.6143 286.817 90.6513 286.83 90.6849C286.843 90.7184 286.867 90.7467 286.898 90.7651C286.962 90.8016 287.043 90.7906 287.094 90.7362L289.542 88.0272C289.563 88.0045 289.577 87.9761 289.582 87.9454C289.588 87.9148 289.584 87.8834 289.571 87.8549C289.559 87.8264 289.539 87.8021 289.513 87.785C289.487 87.7679 289.456 87.7587 289.425 87.7586H288.371L289.035 85.8929C289.046 85.8584 289.044 85.8214 289.031 85.7878C289.018 85.7542 288.994 85.726 288.963 85.7076H288.964Z" fill="#3DA2FF"/>
<path d="M304.871 85.1773C304.866 86.4789 306.599 87.5836 308.295 87.8352L307.977 88.5133C306.462 88.2563 304.98 87.4469 304.39 86.2766C303.799 87.4469 302.317 88.2563 300.824 88.5133L300.485 87.8352C302.175 87.5836 303.903 86.4789 303.909 85.1773V85.1117H300.791V84.4117H307.977V85.1117H304.871V85.1773ZM299.96 90.0555V89.3445H308.82V90.0555H304.795V93.5227H303.952V90.0555H299.96ZM318.532 89.3445V90.0555H316.18V93.5227H315.316V90.0555H312.823V93.5227H311.937V90.0555H309.629V89.3445H318.532ZM310.635 86.3148C310.641 85.0188 312.013 84.1984 314.059 84.193C316.098 84.1984 317.482 85.0188 317.482 86.3148C317.482 87.6109 316.098 88.4203 314.059 88.4148C312.013 88.4203 310.641 87.6109 310.635 86.3148ZM311.521 86.3148C311.51 87.1734 312.544 87.7258 314.059 87.7258C315.573 87.7258 316.602 87.1734 316.607 86.3148C316.602 85.4508 315.573 84.893 314.059 84.893C312.544 84.893 311.51 85.4508 311.521 86.3148ZM328.223 91.543V92.2539H319.32V91.543H323.301V89.1586H324.143V91.543H328.223ZM319.67 88.557C321.37 88.2672 323.262 86.8453 323.268 85.2102V84.4664H324.165V85.2102C324.17 86.8344 326.09 88.2672 327.785 88.557L327.402 89.268C325.92 88.9617 324.356 87.9609 323.727 86.5609C323.087 87.9555 321.54 88.9617 320.052 89.268L319.67 88.557Z" fill="#27342E"/>
</g>
<path d="M151.883 213.908C136.886 202.334 117.28 180.535 133.817 160.408C154.656 135.045 176.527 164.153 166.054 173.85C155.581 183.547 120.259 192.658 89.6423 166.438C48.6368 131.32 44.8789 103.352 44.8789 79.0898" stroke="#3DA2FF" stroke-linecap="round" stroke-linejoin="round" stroke-dasharray="3 3"/>
<rect x="41.3789" y="69.6367" width="7" height="7" fill="white" stroke="#3DA2FF"/>
<g clip-path="url(#clip2_153_3492)">
<path d="M179.125 165.38L180.708 160.63L185.458 159.047L183.875 163.797L179.125 165.38Z" stroke="#3DA2FF" stroke-linecap="round" stroke-linejoin="round"/>
<path d="M182.293 169.34C186.228 169.34 189.418 166.15 189.418 162.215C189.418 158.28 186.228 155.09 182.293 155.09C178.358 155.09 175.168 158.28 175.168 162.215C175.168 166.15 178.358 169.34 182.293 169.34Z" stroke="#3DA2FF" stroke-linecap="round" stroke-linejoin="round"/>
</g>
<path d="M77.4045 174.184L84.0027 171.715L70.7375 163.935L72.473 179.215L77.4045 174.184ZM77.4045 174.184L74.071 169.06" stroke="#3DA2FF" stroke-linecap="round" stroke-linejoin="round"/>
</g>
<defs>
<filter id="filter0_d_153_3492" x="15.8922" y="44.3367" width="76.8" height="35.2" filterUnits="userSpaceOnUse" color-interpolation-filters="sRGB">
<feFlood flood-opacity="0" result="BackgroundImageFix"/>
<feColorMatrix in="SourceAlpha" type="matrix" values="0 0 0 0 0 0 0 0 0 0 0 0 0 0 0 0 0 0 127 0" result="hardAlpha"/>
<feOffset dy="0.8"/>
<feGaussianBlur stdDeviation="2.8"/>
<feComposite in2="hardAlpha" operator="out"/>
<feColorMatrix type="matrix" values="0 0 0 0 0 0 0 0 0 0 0 0 0 0 0 0 0 0 0.12 0"/>
<feBlend mode="normal" in2="BackgroundImageFix" result="effect1_dropShadow_153_3492"/>
<feBlend mode="normal" in="SourceGraphic" in2="effect1_dropShadow_153_3492" result="shape"/>
</filter>
<filter id="filter1_d_153_3492" x="87.8922" y="44.3367" width="64.8" height="35.2" filterUnits="userSpaceOnUse" color-interpolation-filters="sRGB">
<feFlood flood-opacity="0" result="BackgroundImageFix"/>
<feColorMatrix in="SourceAlpha" type="matrix" values="0 0 0 0 0 0 0 0 0 0 0 0 0 0 0 0 0 0 127 0" result="hardAlpha"/>
<feOffset dy="0.8"/>
<feGaussianBlur stdDeviation="2.8"/>
<feComposite in2="hardAlpha" operator="out"/>
<feColorMatrix type="matrix" values="0 0 0 0 0 0 0 0 0 0 0 0 0 0 0 0 0 0 0.12 0"/>
<feBlend mode="normal" in2="BackgroundImageFix" result="effect1_dropShadow_153_3492"/>
<feBlend mode="normal" in="SourceGraphic" in2="effect1_dropShadow_153_3492" result="shape"/>
</filter>
<filter id="filter2_d_153_3492" x="147.892" y="44.3367" width="79.6" height="35.2" filterUnits="userSpaceOnUse" color-interpolation-filters="sRGB">
<feFlood flood-opacity="0" result="BackgroundImageFix"/>
<feColorMatrix in="SourceAlpha" type="matrix" values="0 0 0 0 0 0 0 0 0 0 0 0 0 0 0 0 0 0 127 0" result="hardAlpha"/>
<feOffset dy="0.8"/>
<feGaussianBlur stdDeviation="2.8"/>
<feComposite in2="hardAlpha" operator="out"/>
<feColorMatrix type="matrix" values="0 0 0 0 0 0 0 0 0 0 0 0 0 0 0 0 0 0 0.12 0"/>
<feBlend mode="normal" in2="BackgroundImageFix" result="effect1_dropShadow_153_3492"/>
<feBlend mode="normal" in="SourceGraphic" in2="effect1_dropShadow_153_3492" result="shape"/>
</filter>
<filter id="filter3_d_153_3492" x="222.692" y="44.3367" width="79.6" height="35.2" filterUnits="userSpaceOnUse" color-interpolation-filters="sRGB">
<feFlood flood-opacity="0" result="BackgroundImageFix"/>
<feColorMatrix in="SourceAlpha" type="matrix" values="0 0 0 0 0 0 0 0 0 0 0 0 0 0 0 0 0 0 127 0" result="hardAlpha"/>
<feOffset dy="0.8"/>
<feGaussianBlur stdDeviation="2.8"/>
<feComposite in2="hardAlpha" operator="out"/>
<feColorMatrix type="matrix" values="0 0 0 0 0 0 0 0 0 0 0 0 0 0 0 0 0 0 0.12 0"/>
<feBlend mode="normal" in2="BackgroundImageFix" result="effect1_dropShadow_153_3492"/>
<feBlend mode="normal" in="SourceGraphic" in2="effect1_dropShadow_153_3492" result="shape"/>
</filter>
<filter id="filter4_d_153_3492" x="108.286" y="72.3367" width="85.4" height="35.2" filterUnits="userSpaceOnUse" color-interpolation-filters="sRGB">
<feFlood flood-opacity="0" result="BackgroundImageFix"/>
<feColorMatrix in="SourceAlpha" type="matrix" values="0 0 0 0 0 0 0 0 0 0 0 0 0 0 0 0 0 0 127 0" result="hardAlpha"/>
<feOffset dy="0.8"/>
<feGaussianBlur stdDeviation="2.8"/>
<feComposite in2="hardAlpha" operator="out"/>
<feColorMatrix type="matrix" values="0 0 0 0 0 0 0 0 0 0 0 0 0 0 0 0 0 0 0.12 0"/>
<feBlend mode="normal" in2="BackgroundImageFix" result="effect1_dropShadow_153_3492"/>
<feBlend mode="normal" in="SourceGraphic" in2="effect1_dropShadow_153_3492" result="shape"/>
</filter>
<filter id="filter5_d_153_3492" x="188.886" y="72.3367" width="83.8" height="35.2" filterUnits="userSpaceOnUse" color-interpolation-filters="sRGB">
<feFlood flood-opacity="0" result="BackgroundImageFix"/>
<feColorMatrix in="SourceAlpha" type="matrix" values="0 0 0 0 0 0 0 0 0 0 0 0 0 0 0 0 0 0 127 0" result="hardAlpha"/>
<feOffset dy="0.8"/>
<feGaussianBlur stdDeviation="2.8"/>
<feComposite in2="hardAlpha" operator="out"/>
<feColorMatrix type="matrix" values="0 0 0 0 0 0 0 0 0 0 0 0 0 0 0 0 0 0 0.12 0"/>
<feBlend mode="normal" in2="BackgroundImageFix" result="effect1_dropShadow_153_3492"/>
<feBlend mode="normal" in="SourceGraphic" in2="effect1_dropShadow_153_3492" result="shape"/>
</filter>
<filter id="filter6_d_153_3492" x="267.886" y="72.3367" width="76.4" height="35.2" filterUnits="userSpaceOnUse" color-interpolation-filters="sRGB">
<feFlood flood-opacity="0" result="BackgroundImageFix"/>
<feColorMatrix in="SourceAlpha" type="matrix" values="0 0 0 0 0 0 0 0 0 0 0 0 0 0 0 0 0 0 127 0" result="hardAlpha"/>
<feOffset dy="0.8"/>
<feGaussianBlur stdDeviation="2.8"/>
<feComposite in2="hardAlpha" operator="out"/>
<feColorMatrix type="matrix" values="0 0 0 0 0 0 0 0 0 0 0 0 0 0 0 0 0 0 0.12 0"/>
<feBlend mode="normal" in2="BackgroundImageFix" result="effect1_dropShadow_153_3492"/>
<feBlend mode="normal" in="SourceGraphic" in2="effect1_dropShadow_153_3492" result="shape"/>
</filter>
<clipPath id="clip0_153_3492">
<rect width="300" height="400" fill="white" transform="translate(0.472656)"/>
</clipPath>
<clipPath id="clip1_153_3492">
<rect width="14.4" height="14.4" fill="white" transform="translate(99.8922 53.9365)"/>
</clipPath>
<clipPath id="clip2_153_3492">
<rect width="19" height="19" fill="white" transform="translate(172.793 152.715)"/>
</clipPath>
</defs>
</svg>
