<svg width="301" height="400" viewBox="0 0 301 400" fill="none" xmlns="http://www.w3.org/2000/svg">
<rect x="0.472656" width="300" height="400" rx="40" fill="white"/>
<path d="M0.472656 270H300.473V360C300.473 382.091 282.564 400 260.473 400H40.4727C18.3813 400 0.472656 382.091 0.472656 360V270Z" fill="#5FBA8E"/>
<path d="M96.5527 293.07C96.5527 295.365 97.7832 297.65 100.615 298.598L99.2676 300.551C97.3828 299.857 96.084 298.549 95.332 296.898C94.5703 298.764 93.1836 300.219 91.123 300.961L89.7754 299.008C92.7441 298.031 94.0234 295.6 94.0332 293.051V291.117H96.5527V293.07ZM93.0371 307.484V301.781H95.5566V305.492H105.244V307.484H93.0371ZM99.0527 295.824V293.812H102.393V290.043H104.873V303.168H102.393V295.824H99.0527ZM113.834 291.215V293.207H109.186V294.672H113.658V296.566H109.186V298.139C111.158 298.119 112.613 298.041 114.264 297.758L114.518 299.75C112.438 300.121 110.699 300.189 108.014 300.18H106.803V291.215H113.834ZM109.166 303.617V301.625H121.451V307.797H118.971V303.617H109.166ZM115.221 300.746V290.355H117.545V294.379H119.088V290.043H121.451V300.883H119.088V296.371H117.545V300.746H115.221ZM136.564 290.043V295.492H138.967V297.523H136.564V303.305H134.064V290.043H136.564ZM122.463 293.871V291.898H126.506V290.004H128.986V291.898H133.01V293.871H122.463ZM123.322 297.934C123.322 295.873 125.148 294.496 127.736 294.496C130.314 294.496 132.111 295.873 132.111 297.934C132.111 299.984 130.314 301.332 127.736 301.332C125.148 301.332 123.322 299.984 123.322 297.934ZM125.041 307.484V302.289H127.521V305.492H137.209V307.484H125.041ZM125.764 297.934C125.754 298.91 126.545 299.438 127.736 299.438C128.938 299.438 129.748 298.91 129.748 297.934C129.748 296.947 128.938 296.4 127.736 296.391C126.545 296.4 125.754 296.947 125.764 297.934ZM152.455 291.215V293.207H148.92C148.93 295.277 150.189 297.279 153.021 298.109L151.83 300.062C149.867 299.467 148.5 298.266 147.719 296.752C146.928 298.539 145.482 299.965 143.354 300.668L142.084 298.695C145.033 297.768 146.371 295.463 146.4 293.207H142.768V291.215H152.455ZM144.545 304.34C144.535 302.172 146.879 300.912 150.639 300.922C154.34 300.912 156.625 302.172 156.635 304.34C156.625 306.518 154.34 307.807 150.639 307.797C146.879 307.807 144.535 306.518 144.545 304.34ZM147.045 304.34C147.025 305.355 148.305 305.863 150.639 305.863C152.943 305.863 154.174 305.355 154.174 304.34C154.174 303.344 152.943 302.846 150.639 302.855C148.305 302.846 147.025 303.344 147.045 304.34ZM153.959 300.57V290.023H156.459V294.145H158.861V296.176H156.459V300.57H153.959ZM174.912 303.676V305.668H158.643V303.676H165.439V299.652H167.92V303.676H174.912ZM159.033 298.148C163.057 297.523 165.322 294.818 165.342 292.309V291.039H167.998V292.309C167.988 294.848 170.283 297.523 174.346 298.148L173.291 300.219C170.166 299.652 167.842 297.982 166.67 295.766C165.508 297.973 163.193 299.662 160.088 300.219L159.033 298.148ZM192.639 290.023V295.121H195.041V297.191H192.639V302.973H190.139V290.023H192.639ZM178.654 295.688C178.645 293.041 180.803 291.166 183.537 291.176C186.262 291.166 188.381 293.041 188.381 295.688C188.381 298.295 186.262 300.199 183.537 300.199C180.803 300.199 178.645 298.295 178.654 295.688ZM181.115 307.484V301.605H183.596V305.492H193.283V307.484H181.115ZM181.115 295.688C181.096 297.133 182.18 298.031 183.537 298.031C184.904 298.031 185.949 297.133 185.959 295.688C185.949 294.203 184.904 293.334 183.537 293.344C182.18 293.334 181.096 294.203 181.115 295.688ZM210.154 290.023V307.797H207.752V298.91H206.092V306.938H203.748V290.316H206.092V296.898H207.752V290.023H210.154ZM195.545 303.461V291.996H198.045V301.283C199.471 301.244 201.043 301.117 202.752 300.785L203.006 302.934C200.623 303.344 198.592 303.471 196.756 303.461H195.545Z" fill="white"/>
<path d="M55.1664 332.375V346.266H53.9633V339.078H51.9633V345.547H50.807V332.688H51.9633V338.031H53.9633V332.375H55.1664ZM44.0102 342.672V334.078H45.2289V341.578C46.6039 341.57 48.0883 341.469 49.7758 341.125L49.932 342.219C47.9945 342.57 46.4008 342.672 44.8695 342.672H44.0102ZM68.2852 332.375V338.031H70.5352V339.062H68.2852V346.266H67.0664V332.375H68.2852ZM57.6289 342.656C61.2148 340.875 63.168 338.195 63.4492 334.906H58.2695V333.875H64.6914C64.6836 337.805 62.8398 341.391 58.3164 343.625L57.6289 342.656ZM80.9289 335C80.9289 336.938 82.3352 338.766 84.3664 339.5L83.6789 340.453C82.1555 339.852 80.9367 338.648 80.343 337.133C79.757 338.812 78.4914 340.141 76.8508 340.797L76.1945 339.797C78.2805 339.031 79.718 337.086 79.7258 334.953V333.234H80.9289V335ZM78.7102 345.969V341.609H79.9445V344.938H88.007V345.969H78.7102ZM83.3664 336.688V335.656H86.4602V332.391H87.6945V342.797H86.4602V336.688H83.3664ZM96.4227 333.391V334.422H92.2039V336.156H96.2664V337.125H92.2039V339.047C94.2273 339.039 95.493 338.961 96.9852 338.672L97.1102 339.688C95.4773 340.008 94.1648 340.07 91.907 340.078H91.032V333.391H96.4227ZM92.8445 342.531V341.531H102.204V346.266H101.001V342.531H92.8445ZM97.9383 340.719V332.656H99.0789V336.016H101.032V332.391H102.204V340.812H101.032V337.016H99.0789V340.719H97.9383ZM115.495 332.391V336.969H117.588V338H115.495V342.797H114.276V332.391H115.495ZM104.666 335.094V334.094H108.198V332.391H109.416V334.094H112.948V335.094H104.666ZM105.463 338.453C105.455 336.875 106.799 335.859 108.807 335.859C110.791 335.859 112.135 336.875 112.151 338.453C112.135 340.016 110.791 341.023 108.807 341.016C106.799 341.023 105.455 340.016 105.463 338.453ZM106.635 338.453C106.627 339.43 107.495 340.062 108.807 340.047C110.104 340.062 110.979 339.43 110.995 338.453C110.979 337.461 110.104 336.82 108.807 336.828C107.495 336.82 106.627 337.461 106.635 338.453ZM106.807 345.969V341.969H108.01V344.938H116.135V345.969H106.807ZM127.982 335.016C127.99 336.836 129.349 338.461 131.388 339.125L130.81 340.094C129.209 339.562 127.998 338.461 127.396 337.062C126.802 338.656 125.521 339.898 123.857 340.5L123.232 339.516C125.31 338.812 126.763 337.023 126.779 335.016V334.422H123.607V333.406H131.107V334.422H127.982V335.016ZM125.076 343.672C125.084 342.07 126.826 341.141 129.685 341.141C132.537 341.141 134.263 342.07 134.263 343.672C134.263 345.297 132.537 346.234 129.685 346.234C126.826 346.234 125.084 345.297 125.076 343.672ZM126.31 343.672C126.295 344.672 127.591 345.258 129.685 345.25C131.787 345.258 133.068 344.672 133.076 343.672C133.068 342.703 131.787 342.125 129.685 342.125C127.591 342.125 126.295 342.703 126.31 343.672ZM132.92 340.766V332.375H134.138V335.922H136.232V336.953H134.138V340.766H132.92ZM150.226 343.438V344.453H137.507V343.438H143.195V340.031H144.398V343.438H150.226ZM138.007 339.172C140.437 338.758 143.14 336.727 143.148 334.391V333.328H144.429V334.391C144.437 336.711 147.179 338.758 149.601 339.172L149.054 340.188C146.937 339.75 144.702 338.32 143.804 336.32C142.89 338.312 140.679 339.75 138.554 340.188L138.007 339.172ZM156.282 333.391C158.462 333.398 160.009 334.727 160.016 336.656C160.009 338.594 158.462 339.914 156.282 339.922C154.087 339.914 152.524 338.594 152.532 336.656C152.524 334.727 154.087 333.398 156.282 333.391ZM151.813 342.188C154.376 342.195 157.915 342.172 160.985 341.719L161.079 342.625C157.899 343.219 154.485 343.234 151.985 343.234L151.813 342.188ZM153.735 336.656C153.727 337.953 154.798 338.844 156.282 338.844C157.751 338.844 158.821 337.953 158.813 336.656C158.821 335.367 157.751 334.469 156.282 334.469C154.798 334.469 153.727 335.367 153.735 336.656ZM161.907 346.297V332.375H163.126V346.297H161.907ZM181.895 332.375V340.656H180.66V337.016H177.863V336H180.66V332.375H181.895ZM170.441 339.547C172.504 338.805 173.973 336.922 173.973 334.938V334.422H170.832V333.391H178.316V334.422H175.207V334.922C175.207 336.734 176.598 338.461 178.629 339.156L177.988 340.141C176.434 339.578 175.223 338.406 174.621 336.977C174.027 338.602 172.738 339.898 171.082 340.531L170.441 339.547ZM172.629 343.672C172.621 342.039 174.395 341.086 177.285 341.094C180.168 341.086 181.941 342.039 181.941 343.672C181.941 345.312 180.168 346.25 177.285 346.266C174.395 346.25 172.621 345.312 172.629 343.672ZM173.848 343.672C173.84 344.68 175.152 345.289 177.285 345.281C179.41 345.289 180.723 344.68 180.723 343.672C180.723 342.656 179.41 342.047 177.285 342.047C175.152 342.047 173.84 342.656 173.848 343.672ZM195.451 332.391V336.594H197.529V337.625H195.451V341.703H194.216V332.391H195.451ZM184.545 340.281C185.654 340.281 186.951 340.281 188.31 340.242V339.219C186.693 339.07 185.646 338.328 185.654 337.172C185.646 335.906 186.951 335.125 188.904 335.125C190.873 335.125 192.154 335.906 192.17 337.172C192.154 338.32 191.138 339.062 189.529 339.219V340.195C190.826 340.133 192.138 340.023 193.357 339.844L193.466 340.734C190.451 341.266 187.13 341.289 184.685 341.281L184.545 340.281ZM184.888 334.594V333.656H188.31V332.266H189.529V333.656H192.935V334.594H184.888ZM186.248 343.375V342.391H195.451V346.266H194.216V343.375H186.248ZM186.826 337.172C186.818 337.898 187.623 338.391 188.904 338.375C190.185 338.391 190.998 337.898 190.998 337.172C190.998 336.438 190.185 335.984 188.904 336C187.623 335.984 186.818 336.438 186.826 337.172ZM209.695 332.391V336.969H211.788V338H209.695V342.797H208.476V332.391H209.695ZM198.866 335.094V334.094H202.398V332.391H203.616V334.094H207.148V335.094H198.866ZM199.663 338.453C199.655 336.875 200.999 335.859 203.007 335.859C204.991 335.859 206.335 336.875 206.351 338.453C206.335 340.016 204.991 341.023 203.007 341.016C200.999 341.023 199.655 340.016 199.663 338.453ZM200.835 338.453C200.827 339.43 201.695 340.062 203.007 340.047C204.304 340.062 205.179 339.43 205.195 338.453C205.179 337.461 204.304 336.82 203.007 336.828C201.695 336.82 200.827 337.461 200.835 338.453ZM201.007 345.969V341.969H202.21V344.938H210.335V345.969H201.007ZM228.995 332.375V340.656H227.76V337.016H224.963V336H227.76V332.375H228.995ZM217.541 339.547C219.604 338.805 221.073 336.922 221.073 334.938V334.422H217.932V333.391H225.416V334.422H222.307V334.922C222.307 336.734 223.698 338.461 225.729 339.156L225.088 340.141C223.534 339.578 222.323 338.406 221.721 336.977C221.127 338.602 219.838 339.898 218.182 340.531L217.541 339.547ZM219.729 343.672C219.721 342.039 221.495 341.086 224.385 341.094C227.268 341.086 229.041 342.039 229.041 343.672C229.041 345.312 227.268 346.25 224.385 346.266C221.495 346.25 219.721 345.312 219.729 343.672ZM220.948 343.672C220.94 344.68 222.252 345.289 224.385 345.281C226.51 345.289 227.823 344.68 227.823 343.672C227.823 342.656 226.51 342.047 224.385 342.047C222.252 342.047 220.94 342.656 220.948 343.672ZM244.426 343.469V344.484H231.707V343.469H237.426V340.469H233.207V333.359H234.441V335.875H241.66V333.359H242.863V340.469H238.629V343.469H244.426ZM234.441 339.469H241.66V336.875H234.441V339.469ZM258.638 338.828V339.797H245.92V338.828H258.638ZM247.451 341.828V340.906H257.045V343.859H248.701V345.188H257.498V346.078H247.466V343.016H255.826V341.828H247.451ZM247.529 333.688V332.797H256.998V335.672H248.795V336.891H257.248V337.781H247.576V334.828H255.763V333.688H247.529Z" fill="white"/>
<path d="M66.1023 351.266V355.406H68.0711V356.844H66.1023V361.594H64.368V351.266H66.1023ZM55.118 355.766C55.1102 353.68 56.782 352.211 58.9305 352.203C61.0789 352.211 62.7273 353.68 62.743 355.766C62.7273 357.82 61.0789 359.312 58.9305 359.312C56.782 359.312 55.1102 357.82 55.118 355.766ZM56.8211 355.766C56.8133 356.984 57.7508 357.789 58.9305 357.781C60.1258 357.789 61.032 356.984 61.0398 355.766C61.032 354.516 60.1258 353.719 58.9305 353.719C57.7508 353.719 56.8133 354.516 56.8211 355.766ZM57.0555 365.109V360.516H58.7898V363.703H66.6648V365.109H57.0555ZM81.3148 351.266V365.391H79.643V358.25H78.0805V364.672H76.4555V351.531H78.0805V356.828H79.643V351.266H81.3148ZM69.7992 361.875V352.891H71.5492V360.344C72.768 360.32 74.0961 360.211 75.5805 359.922L75.7523 361.438C73.8461 361.773 72.2289 361.875 70.7367 361.875H69.7992ZM94.5586 351.266V354.547H96.5273V355.984H94.5586V359.5H92.8242V351.266H94.5586ZM83.9023 358.75V352.094H85.6211V354.016H88.918V352.094H90.6367V358.75H83.9023ZM85.4492 365.188V360.188H94.6523V361.578H87.1836V363.812H94.918V365.188H85.4492ZM85.6211 357.375H88.918V355.359H85.6211V357.375ZM109.177 352.562V353.922C109.162 355.68 109.162 357.641 108.615 360.594L106.865 360.406C107.42 357.656 107.42 355.648 107.427 353.953H98.9898V352.562H109.177ZM97.6461 363.562V362.141H102.396V357.234H104.115V362.141H110.521V363.562H97.6461ZM123.352 355.469V356.891H128.962V358.297H116.055V356.891H121.634V355.469H123.352ZM116.665 355C119.212 354.844 120.899 353.984 121.251 352.984H117.243V351.656H127.79V352.984H123.743C124.079 353.992 125.751 354.844 128.337 355L127.79 356.297C125.173 356.094 123.243 355.211 122.509 353.867C121.766 355.203 119.837 356.094 117.227 356.297L116.665 355ZM117.243 361.188V359.875H121.618V358.734H123.368V359.875H127.743V361.188H117.243ZM118.18 363.562C118.173 362.352 119.727 361.703 122.477 361.703C125.212 361.703 126.805 362.352 126.805 363.562C126.805 364.797 125.212 365.445 122.477 365.438C119.727 365.445 118.173 364.797 118.18 363.562ZM119.962 363.562C119.954 364.039 120.845 364.281 122.477 364.281C124.141 364.281 124.993 364.039 125.009 363.562C124.993 363.078 124.141 362.875 122.477 362.875C120.845 362.875 119.954 363.078 119.962 363.562ZM134.096 352.297C136.221 352.297 137.752 354.234 137.768 357.281C137.752 360.352 136.221 362.281 134.096 362.281C131.948 362.281 130.416 360.352 130.424 357.281C130.416 354.234 131.948 352.297 134.096 352.297ZM132.096 357.281C132.088 359.453 132.909 360.711 134.096 360.719C135.291 360.711 136.088 359.453 136.096 357.281C136.088 355.125 135.291 353.859 134.096 353.859C132.909 353.859 132.088 355.125 132.096 357.281ZM139.627 365.391V351.266H141.362V356.688H143.534V358.156H141.362V365.391H139.627ZM157.434 362.25V363.672H144.527V362.25H147.512V358.68C146.387 358.031 145.707 357.016 145.715 355.766C145.707 353.516 147.91 352.031 150.949 352.031C154.004 352.031 156.223 353.516 156.215 355.766C156.223 357 155.559 357.992 154.465 358.641V362.25H157.434ZM147.418 355.766C147.41 357.211 148.84 358.133 150.949 358.125C153.051 358.133 154.512 357.211 154.512 355.766C154.512 354.297 153.051 353.398 150.949 353.406C148.84 353.398 147.41 354.297 147.418 355.766ZM149.23 362.25H152.699V359.305C152.16 359.422 151.574 359.484 150.949 359.484C150.34 359.484 149.762 359.422 149.23 359.312V362.25ZM171.662 362.312V363.75H158.755V362.312H164.318V360.016H160.287V355.391H168.412V353.641H160.255V352.234H170.13V356.766H162.021V358.594H170.459V360.016H166.037V362.312H171.662ZM188.321 351.266V354.547H190.29V355.984H188.321V359.219H186.587V351.266H188.321ZM177.774 358.594V352.172H184.055V353.578H179.493V357.188C182.149 357.18 183.626 357.086 185.305 356.75L185.493 358.125C183.641 358.531 182.001 358.594 178.915 358.594H177.774ZM179.196 365.203V359.859H188.321V365.203H179.196ZM180.915 363.828H186.602V361.25H180.915V363.828ZM195.205 352.297C197.33 352.297 198.862 354.234 198.877 357.281C198.862 360.352 197.33 362.281 195.205 362.281C193.057 362.281 191.526 360.352 191.534 357.281C191.526 354.234 193.057 352.297 195.205 352.297ZM193.205 357.281C193.198 359.453 194.018 360.711 195.205 360.719C196.401 360.711 197.198 359.453 197.205 357.281C197.198 355.125 196.401 353.859 195.205 353.859C194.018 353.859 193.198 355.125 193.205 357.281ZM200.737 365.391V351.266H202.471V356.688H204.643V358.156H202.471V365.391H200.737ZM216.98 356.375V357.75H207.309V352.047H216.824V353.438H209.09V356.375H216.98ZM205.621 360.719V359.312H218.527V360.719H212.902V365.359H211.184V360.719H205.621ZM224.271 354.969C224.279 357.25 225.06 359.625 226.974 360.828L226.021 362.156C224.748 361.391 223.92 360.078 223.451 358.539C222.943 360.234 222.037 361.672 220.709 362.484L219.63 361.188C221.685 359.945 222.591 357.453 222.599 355.047V352.516H224.271V354.969ZM225.459 357.562V356.125H227.474V351.516H229.115V364.703H227.474V357.562H225.459ZM230.38 365.391V351.266H232.052V365.391H230.38ZM246.999 362.25V363.672H234.093V362.25H237.077V358.68C235.952 358.031 235.273 357.016 235.28 355.766C235.273 353.516 237.476 352.031 240.515 352.031C243.57 352.031 245.788 353.516 245.78 355.766C245.788 357 245.124 357.992 244.03 358.641V362.25H246.999ZM236.984 355.766C236.976 357.211 238.405 358.133 240.515 358.125C242.616 358.133 244.077 357.211 244.077 355.766C244.077 354.297 242.616 353.398 240.515 353.406C238.405 353.398 236.976 354.297 236.984 355.766ZM238.796 362.25H242.265V359.305C241.726 359.422 241.14 359.484 240.515 359.484C239.905 359.484 239.327 359.422 238.796 359.312V362.25Z" fill="#E0FF98"/>
<circle cx="243.676" cy="251.703" r="4" fill="#F2F2F2"/>
<circle cx="255.676" cy="251.703" r="4" fill="#F2F2F2"/>
<rect x="263.676" y="247.703" width="20" height="8" rx="4" fill="#5FBA8E"/>
<path d="M273.96 155.421C273.866 155.328 273.792 155.217 273.741 155.095C273.69 154.973 273.664 154.843 273.664 154.711C273.664 154.579 273.69 154.448 273.741 154.326C273.792 154.204 273.866 154.094 273.96 154.001C274.053 153.907 274.164 153.833 274.285 153.782C274.407 153.731 274.538 153.705 274.67 153.705C274.802 153.705 274.933 153.731 275.055 153.782C275.176 153.833 275.287 153.907 275.38 154.001L283.38 162.001C283.474 162.094 283.548 162.204 283.599 162.326C283.65 162.448 283.676 162.579 283.676 162.711C283.676 162.843 283.65 162.973 283.599 163.095C283.548 163.217 283.474 163.328 283.38 163.421L275.38 171.421C275.192 171.609 274.936 171.715 274.67 171.715C274.538 171.715 274.408 171.689 274.286 171.638C274.164 171.588 274.053 171.514 273.96 171.421C273.867 171.328 273.793 171.217 273.742 171.095C273.692 170.973 273.666 170.843 273.666 170.711C273.666 170.579 273.692 170.448 273.742 170.327C273.793 170.205 273.867 170.094 273.96 170.001L281.26 162.711L273.96 155.421Z" fill="#F2F2F2"/>
<path d="M26.2041 155.421C26.2978 155.328 26.3722 155.217 26.423 155.095C26.4737 154.973 26.4999 154.843 26.4999 154.711C26.4999 154.579 26.4737 154.448 26.423 154.326C26.3722 154.204 26.2978 154.094 26.2041 154.001C26.1111 153.907 26.0005 153.833 25.8787 153.782C25.7568 153.731 25.6261 153.705 25.4941 153.705C25.3621 153.705 25.2314 153.731 25.1095 153.782C24.9876 153.833 24.877 153.907 24.7841 154.001L16.7841 162.001C16.6904 162.094 16.616 162.204 16.5652 162.326C16.5144 162.448 16.4883 162.579 16.4883 162.711C16.4883 162.843 16.5144 162.973 16.5652 163.095C16.616 163.217 16.6904 163.328 16.7841 163.421L24.7841 171.421C24.9724 171.609 25.2278 171.715 25.4941 171.715C25.6259 171.715 25.7565 171.689 25.8783 171.638C26.0002 171.588 26.1108 171.514 26.2041 171.421C26.2973 171.328 26.3713 171.217 26.4217 171.095C26.4722 170.973 26.4982 170.843 26.4982 170.711C26.4982 170.579 26.4722 170.448 26.4217 170.327C26.3713 170.205 26.2973 170.094 26.2041 170.001L18.9041 162.711L26.2041 155.421Z" fill="#F2F2F2"/>
<rect x="57.3359" y="71.5" width="87" height="125" rx="4.5" fill="#F8F8F8" stroke="#3DA2FF"/>
<path d="M64.8359 104.188C64.8359 101.978 66.6268 100.188 68.8359 100.188H132.836C135.045 100.188 136.836 101.978 136.836 104.188V196.375H64.8359V104.188Z" fill="url(#paint0_linear_153_3547)"/>
<rect x="148.742" y="117.5" width="57" height="79" rx="4.5" fill="#F6F6F6" stroke="#F2F2F2"/>
<rect x="208.34" y="117.5" width="57" height="79" rx="4.5" fill="#F6F6F6" stroke="#F2F2F2"/>
<g filter="url(#filter0_d_153_3547)">
<rect x="21.4922" y="84" width="65.75" height="24.375" rx="12.1875" fill="white" shape-rendering="crispEdges"/>
<rect x="21.8984" y="84.4062" width="64.9375" height="23.5625" rx="11.7812" stroke="#3DA2FF" stroke-width="0.8125" shape-rendering="crispEdges"/>
<path d="M31.3855 92.2649C31.5521 91.8764 31.829 91.5454 32.182 91.3129C32.5349 91.0804 32.9484 90.9567 33.3711 90.957H38.8633C39.7266 90.957 40.507 91.4715 40.8471 92.2649L41.5308 93.8602C41.5956 94.0113 41.7121 94.1356 41.8589 94.209C42.2905 94.4248 42.597 94.8263 42.6919 95.2985L42.9811 96.7479C43.0099 96.8872 43.024 97.0282 43.0234 97.1709V97.5275C43.0234 98.2302 42.6867 98.8595 42.1601 99.2514V100.885C42.1601 100.999 42.1147 101.109 42.0337 101.19C41.9528 101.271 41.843 101.316 41.7285 101.316H40.0019C39.8875 101.316 39.7777 101.271 39.6967 101.19C39.6158 101.109 39.5703 100.999 39.5703 100.885V99.7297C38.4549 99.7711 37.2006 99.8057 36.1172 99.8057C35.0338 99.8057 33.7794 99.7711 32.6641 99.7297V100.885C32.6641 100.999 32.6186 101.109 32.5376 101.19C32.4567 101.271 32.3469 101.316 32.2324 101.316H30.5059C30.3914 101.316 30.2816 101.271 30.2006 101.19C30.1197 101.109 30.0742 100.999 30.0742 100.885V99.2514C29.5476 98.8595 29.2109 98.2302 29.2109 97.5275V97.1709C29.2111 97.0289 29.2253 96.8872 29.2532 96.7479L29.5424 95.2976C29.6374 94.8263 29.9439 94.424 30.3746 94.209C30.5224 94.1358 30.6391 94.012 30.7035 93.8602L31.3873 92.2649H31.3855ZM37.2127 92.7052C37.1812 92.6868 37.1443 92.6797 37.1083 92.685C37.0722 92.6903 37.039 92.7078 37.0141 92.7345L34.4329 95.4858C34.4114 95.5089 34.3972 95.5378 34.3918 95.5689C34.3865 95.5999 34.3903 95.6319 34.4029 95.6609C34.4154 95.6898 34.4361 95.7145 34.4625 95.7318C34.4888 95.7492 34.5196 95.7585 34.5512 95.7586H35.6225L35.0415 97.6535C35.031 97.6886 35.0325 97.7261 35.0458 97.7602C35.0591 97.7943 35.0834 97.823 35.1149 97.8417C35.1797 97.8788 35.2617 97.8676 35.3135 97.8123L37.7997 95.0611C37.8212 95.038 37.8355 95.0091 37.8408 94.978C37.8461 94.9469 37.8423 94.915 37.8297 94.886C37.8172 94.8571 37.7965 94.8324 37.7702 94.8151C37.7438 94.7977 37.713 94.7884 37.6814 94.7883H36.6101L37.2852 92.8934C37.2957 92.8583 37.2942 92.8207 37.2809 92.7866C37.2676 92.7525 37.2433 92.7239 37.2118 92.7052H37.2127Z" fill="#3DA2FF"/>
<path d="M53.1334 92.6116C53.1278 93.9335 54.8885 95.0554 56.6103 95.3109L56.2881 95.9996C54.7496 95.7386 53.2444 94.9166 52.6446 93.728C52.0447 94.9166 50.5396 95.7386 49.0233 95.9996L48.6789 95.3109C50.3951 95.0554 52.1503 93.9335 52.1558 92.6116V92.5449H48.9899V91.834H56.2881V92.5449H53.1334V92.6116ZM48.1457 97.5659V96.8439H57.1435V97.5659H53.0556V101.087H52.2003V97.5659H48.1457ZM67.0078 96.8439V97.5659H64.6194V101.087H63.7419V97.5659H61.2092V101.087H60.3094V97.5659H57.9655V96.8439H67.0078ZM58.9875 93.7668C58.993 92.4505 60.3871 91.6174 62.4644 91.6118C64.5361 91.6174 65.9413 92.4505 65.9413 93.7668C65.9413 95.0832 64.5361 95.9052 62.4644 95.8997C60.3871 95.9052 58.993 95.0832 58.9875 93.7668ZM59.8873 93.7668C59.8762 94.6389 60.9259 95.1998 62.4644 95.1998C64.0029 95.1998 65.0471 94.6389 65.0527 93.7668C65.0471 92.8893 64.0029 92.3228 62.4644 92.3228C60.9259 92.3228 59.8762 92.8893 59.8873 93.7668ZM76.8498 99.0767V99.7987H67.8076V99.0767H71.851V96.655H72.7064V99.0767H76.8498ZM68.163 96.0441C69.8904 95.7497 71.8121 94.3056 71.8177 92.6449V91.8895H72.7286V92.6449C72.7341 94.2945 74.6837 95.7497 76.4055 96.0441L76.0167 96.7661C74.5115 96.4551 72.923 95.4387 72.2842 94.0168C71.6344 95.4331 70.0626 96.4551 68.5518 96.7661L68.163 96.0441Z" fill="#27342E"/>
</g>
<g filter="url(#filter1_d_153_3547)">
<rect x="42.8672" y="111.625" width="74.125" height="24.375" rx="12.1875" fill="white" shape-rendering="crispEdges"/>
<rect x="43.2734" y="112.031" width="73.3125" height="23.5625" rx="11.7812" stroke="#3DA2FF" stroke-width="0.8125" shape-rendering="crispEdges"/>
<path fill-rule="evenodd" clip-rule="evenodd" d="M57.0348 126.012C64.923 120.567 59.0498 116.401 56.6809 118.837C54.3113 116.401 48.4382 120.567 56.327 126.012L56.158 126.35C56.1474 126.371 56.1411 126.394 56.1394 126.418C56.1377 126.441 56.1407 126.465 56.1482 126.488C56.1634 126.533 56.196 126.571 56.2389 126.592C56.2818 126.614 56.3315 126.617 56.377 126.602C56.4225 126.587 56.4601 126.554 56.4816 126.511L56.5105 126.454C56.517 126.576 56.5278 126.681 56.5473 126.779C56.5964 127.027 56.6975 127.228 56.8709 127.574L56.8803 127.595C57.0334 127.899 57.0117 128.209 56.9164 128.495C56.8189 128.785 56.652 129.037 56.5307 129.219C56.5041 129.259 56.4944 129.308 56.5037 129.355C56.5131 129.402 56.5407 129.443 56.5805 129.47C56.6204 129.496 56.6692 129.506 56.7162 129.497C56.7632 129.487 56.8045 129.46 56.8311 129.42L56.834 129.415C56.9539 129.236 57.1453 128.948 57.2587 128.609C57.3743 128.263 57.4118 127.85 57.2038 127.433C57.0175 127.061 56.9402 126.904 56.9012 126.708C56.8872 126.639 56.8783 126.569 56.8745 126.499L56.8803 126.511C56.9017 126.554 56.9393 126.587 56.9848 126.602C57.0303 126.617 57.08 126.614 57.1229 126.592C57.1658 126.571 57.1985 126.533 57.2136 126.488C57.2288 126.442 57.2253 126.392 57.2038 126.35L57.0348 126.012ZM55.7608 119.041C54.918 118.601 53.7386 118.939 53.2662 119.861C53.0951 120.195 53.0062 120.641 53.1204 121.197C53.1601 121.392 53.4576 121.339 53.501 121.146C53.7068 120.239 54.351 119.368 55.6597 119.32C55.8287 119.314 55.911 119.119 55.7608 119.041Z" fill="#5FBA8E"/>
<path d="M77.0114 123.891V124.613H72.9901V126.635H72.1237V124.613H67.9691V123.891H77.0114ZM69.1244 128.501V125.657H70.002V127.768H76.0005V128.501H69.1244ZM69.1466 122.758V119.326H75.8339V122.758H69.1466ZM70.002 122.058H74.9674V120.014H70.002V122.058ZM85.476 118.837V123.047H87.0533V123.78H85.476V128.712H84.5984V118.837H85.476ZM77.689 126.08C78.4943 126.08 79.433 126.074 80.4105 126.046V124.958C79.2608 124.824 78.511 124.147 78.5221 123.169C78.511 122.053 79.4552 121.331 80.8549 121.336C82.2323 121.331 83.1932 122.053 83.1987 123.169C83.1932 124.152 82.4323 124.824 81.2881 124.958V126.013C82.2045 125.969 83.1376 125.891 83.9985 125.769L84.0541 126.435C81.899 126.802 79.5663 126.824 77.8334 126.824L77.689 126.08ZM77.8667 120.759V120.048H80.4105V118.859H81.2881V120.048H83.8208V120.759H77.8667ZM79.333 123.169C79.3386 123.852 79.9384 124.302 80.8549 124.291C81.7546 124.302 82.36 123.852 82.3656 123.169C82.36 122.48 81.7546 122.014 80.8549 122.014C79.9384 122.014 79.3386 122.48 79.333 123.169ZM91.1523 121.492C91.1468 123.297 92.3743 125.108 93.8295 125.769L93.2963 126.457C92.1688 125.913 91.1968 124.741 90.7247 123.336C90.2692 124.824 89.2972 126.074 88.142 126.657L87.5865 125.924C89.0584 125.252 90.2748 123.364 90.2859 121.492V119.692H91.1523V121.492ZM94.907 128.734V118.837H95.7845V128.734H94.907ZM105.66 118.837V123.947H104.782V121.381H102.583V120.659H104.782V118.837H105.66ZM97.4619 123.269C98.9504 122.775 99.9724 121.536 99.9835 120.092V119.159H100.839V120.092C100.828 121.386 101.85 122.575 103.294 123.047L102.827 123.725C101.733 123.336 100.861 122.558 100.422 121.558C100 122.686 99.106 123.547 97.9396 123.969L97.4619 123.269ZM99.2615 125.146V124.447H105.66V126.802H100.139V127.879H106.026V128.579H99.2837V126.135H104.793V125.146H99.2615Z" fill="#27342E"/>
</g>
<rect x="140.336" y="68.5" width="7" height="7" fill="white" stroke="#3DA2FF"/>
<rect x="140.336" y="192.5" width="7" height="7" fill="white" stroke="#3DA2FF"/>
<rect x="54.3359" y="68.5" width="7" height="7" fill="white" stroke="#3DA2FF"/>
<rect x="54.3359" y="192.5" width="7" height="7" fill="white" stroke="#3DA2FF"/>
<path d="M160.746 42.5795C160.521 42.0991 160.204 41.6674 159.813 41.3093C159.422 40.9511 158.964 40.6734 158.465 40.492C157.966 40.3105 157.437 40.229 156.907 40.252C156.377 40.275 155.857 40.4021 155.376 40.6261L154.379 41.0904L153.913 40.0938C153.46 39.1237 152.639 38.373 151.632 38.0066C150.626 37.6403 149.515 37.6884 148.544 38.1404C147.573 38.5923 146.822 39.4111 146.457 40.4166C146.091 41.4221 146.14 42.532 146.593 43.502L147.059 44.4987L150.478 51.8138L157.798 48.4055L158.795 47.9411C159.276 47.7174 159.707 47.4013 160.066 47.0107C160.424 46.6202 160.701 46.1629 160.883 45.665C161.064 45.1671 161.145 44.6383 161.121 44.1089C161.098 43.5795 160.97 43.0597 160.746 42.5795Z" stroke="#3DA2FF" stroke-linecap="round" stroke-linejoin="round"/>
<path d="M39.5234 0.511719C57.9028 10.4771 96.2344 38.2438 98.3614 66.9433C98.1404 58.0854 104.821 40.3694 117.311 40.3694C129.8 40.3694 131.594 58.0854 130.93 66.9433C132.037 61.1856 136.51 49.6702 145.545 49.6702" stroke="#3DA2FF" stroke-linecap="round" stroke-linejoin="round" stroke-dasharray="3 3"/>
<defs>
<filter id="filter0_d_153_3547" x="15.8047" y="79.125" width="77.125" height="35.75" filterUnits="userSpaceOnUse" color-interpolation-filters="sRGB">
<feFlood flood-opacity="0" result="BackgroundImageFix"/>
<feColorMatrix in="SourceAlpha" type="matrix" values="0 0 0 0 0 0 0 0 0 0 0 0 0 0 0 0 0 0 127 0" result="hardAlpha"/>
<feOffset dy="0.8125"/>
<feGaussianBlur stdDeviation="2.84375"/>
<feComposite in2="hardAlpha" operator="out"/>
<feColorMatrix type="matrix" values="0 0 0 0 0 0 0 0 0 0 0 0 0 0 0 0 0 0 0.12 0"/>
<feBlend mode="normal" in2="BackgroundImageFix" result="effect1_dropShadow_153_3547"/>
<feBlend mode="normal" in="SourceGraphic" in2="effect1_dropShadow_153_3547" result="shape"/>
</filter>
<filter id="filter1_d_153_3547" x="37.1797" y="106.75" width="85.5" height="35.75" filterUnits="userSpaceOnUse" color-interpolation-filters="sRGB">
<feFlood flood-opacity="0" result="BackgroundImageFix"/>
<feColorMatrix in="SourceAlpha" type="matrix" values="0 0 0 0 0 0 0 0 0 0 0 0 0 0 0 0 0 0 127 0" result="hardAlpha"/>
<feOffset dy="0.8125"/>
<feGaussianBlur stdDeviation="2.84375"/>
<feComposite in2="hardAlpha" operator="out"/>
<feColorMatrix type="matrix" values="0 0 0 0 0 0 0 0 0 0 0 0 0 0 0 0 0 0 0.12 0"/>
<feBlend mode="normal" in2="BackgroundImageFix" result="effect1_dropShadow_153_3547"/>
<feBlend mode="normal" in="SourceGraphic" in2="effect1_dropShadow_153_3547" result="shape"/>
</filter>
<linearGradient id="paint0_linear_153_3547" x1="52.8698" y1="104.626" x2="137.65" y2="190.255" gradientUnits="userSpaceOnUse">
<stop stop-color="#3DA2FF" stop-opacity="0"/>
<stop offset="1" stop-color="#5ECE98" stop-opacity="0.97"/>
</linearGradient>
</defs>
</svg>
