<svg width="49" height="48" viewBox="0 0 49 48" fill="none" xmlns="http://www.w3.org/2000/svg">
<g id="icon / bootstrap / filled / x-circle" clip-path="url(#clip0_153_3632)">
<path id="Vector" d="M48.25 24C48.25 30.3652 45.7214 36.4697 41.2206 40.9706C36.7197 45.4714 30.6152 48 24.25 48C17.8848 48 11.7803 45.4714 7.27944 40.9706C2.77856 36.4697 0.25 30.3652 0.25 24C0.25 17.6348 2.77856 11.5303 7.27944 7.02944C11.7803 2.52856 17.8848 0 24.25 0C30.6152 0 36.7197 2.52856 41.2206 7.02944C45.7214 11.5303 48.25 17.6348 48.25 24ZM16.312 13.938C16.0303 13.6563 15.6483 13.4981 15.25 13.4981C14.8517 13.4981 14.4697 13.6563 14.188 13.938C13.9063 14.2197 13.7481 14.6017 13.7481 15C13.7481 15.3983 13.9063 15.7803 14.188 16.062L22.129 24L14.188 31.938C14.0485 32.0775 13.9379 32.243 13.8624 32.4252C13.787 32.6075 13.7481 32.8028 13.7481 33C13.7481 33.1972 13.787 33.3925 13.8624 33.5748C13.9379 33.757 14.0485 33.9225 14.188 34.062C14.4697 34.3437 14.8517 34.5019 15.25 34.5019C15.4472 34.5019 15.6425 34.463 15.8248 34.3876C16.007 34.3121 16.1725 34.2015 16.312 34.062L24.25 26.121L32.188 34.062C32.3275 34.2015 32.493 34.3121 32.6752 34.3876C32.8575 34.463 33.0528 34.5019 33.25 34.5019C33.4472 34.5019 33.6425 34.463 33.8248 34.3876C34.007 34.3121 34.1725 34.2015 34.312 34.062C34.4515 33.9225 34.5621 33.757 34.6376 33.5748C34.713 33.3925 34.7519 33.1972 34.7519 33C34.7519 32.8028 34.713 32.6075 34.6376 32.4252C34.5621 32.243 34.4515 32.0775 34.312 31.938L26.371 24L34.312 16.062C34.4515 15.9225 34.5621 15.757 34.6376 15.5748C34.713 15.3925 34.7519 15.1972 34.7519 15C34.7519 14.8028 34.713 14.6075 34.6376 14.4252C34.5621 14.243 34.4515 14.0775 34.312 13.938C34.1725 13.7985 34.007 13.6879 33.8248 13.6124C33.6425 13.537 33.4472 13.4981 33.25 13.4981C33.0528 13.4981 32.8575 13.537 32.6752 13.6124C32.493 13.6879 32.3275 13.7985 32.188 13.938L24.25 21.879L16.312 13.938Z" fill="#263930"/>
</g>
<defs>
<clipPath id="clip0_153_3632">
<rect width="48" height="48" fill="white" transform="translate(0.25)"/>
</clipPath>
</defs>
</svg>
