<svg width="58" height="58" viewBox="0 0 58 58" fill="none" xmlns="http://www.w3.org/2000/svg">
<g id="&#235;&#172;&#184;&#237;&#153;&#148;&#236;&#139;&#156;&#236;&#132;&#164;" filter="url(#filter0_d_868_762)">
<rect x="13" y="13" width="32" height="32" rx="16" fill="#3DA2FF"/>
<path id="Vector" fill-rule="evenodd" clip-rule="evenodd" d="M29.4371 31.7065C39.1456 25.006 31.9171 19.878 29.0015 22.8762C26.0851 19.878 18.8566 25.006 28.566 31.7065L28.358 32.1225C28.3449 32.1486 28.3371 32.1771 28.335 32.2063C28.3329 32.2354 28.3366 32.2647 28.3459 32.2924C28.3646 32.3485 28.4047 32.3948 28.4575 32.4212C28.5103 32.4476 28.5715 32.4519 28.6275 32.4332C28.6835 32.4146 28.7298 32.3744 28.7562 32.3216L28.7917 32.2505C28.7997 32.4016 28.8131 32.5305 28.8371 32.6505C28.8975 32.9563 29.022 33.2034 29.2353 33.6301L29.2469 33.6549C29.4353 34.0301 29.4086 34.4105 29.2913 34.7625C29.1713 35.1198 28.966 35.4301 28.8166 35.6541C28.7839 35.7031 28.7719 35.7631 28.7834 35.821C28.7949 35.8788 28.8289 35.9297 28.878 35.9625C28.927 35.9953 28.987 36.0072 29.0449 35.9957C29.1027 35.9842 29.1536 35.9502 29.1864 35.9012L29.19 35.895C29.3375 35.6745 29.5731 35.3207 29.7126 34.9038C29.8549 34.4781 29.9011 33.9696 29.6451 33.4558C29.4157 32.9981 29.3206 32.8052 29.2726 32.5634C29.2554 32.4787 29.2444 32.3928 29.2397 32.3065L29.2469 32.3216C29.2733 32.3744 29.3196 32.4146 29.3756 32.4332C29.4316 32.4519 29.4927 32.4476 29.5455 32.4212C29.5983 32.3948 29.6385 32.3485 29.6572 32.2924C29.6758 32.2364 29.6715 32.1753 29.6451 32.1225L29.4371 31.7065ZM27.8691 23.1278C26.8317 22.5856 25.3802 23.0016 24.7988 24.1367C24.5882 24.5482 24.4788 25.0967 24.6193 25.7811C24.6682 26.0211 25.0344 25.9562 25.0877 25.718C25.3411 24.6016 26.134 23.5296 27.7446 23.4709C27.9526 23.4638 28.054 23.2238 27.8691 23.1278Z" fill="white"/>
</g>
<defs>
<filter id="filter0_d_868_762" x="0.7" y="0.7" width="56.6" height="56.6" filterUnits="userSpaceOnUse" color-interpolation-filters="sRGB">
<feFlood flood-opacity="0" result="BackgroundImageFix"/>
<feColorMatrix in="SourceAlpha" type="matrix" values="0 0 0 0 0 0 0 0 0 0 0 0 0 0 0 0 0 0 127 0" result="hardAlpha"/>
<feMorphology radius="2" operator="dilate" in="SourceAlpha" result="effect1_dropShadow_868_762"/>
<feOffset/>
<feGaussianBlur stdDeviation="5.15"/>
<feComposite in2="hardAlpha" operator="out"/>
<feColorMatrix type="matrix" values="0 0 0 0 0 0 0 0 0 0 0 0 0 0 0 0 0 0 0.12 0"/>
<feBlend mode="normal" in2="BackgroundImageFix" result="effect1_dropShadow_868_762"/>
<feBlend mode="normal" in="SourceGraphic" in2="effect1_dropShadow_868_762" result="shape"/>
</filter>
</defs>
</svg>
