<svg width="58" height="58" viewBox="0 0 58 58" fill="none" xmlns="http://www.w3.org/2000/svg">
<g id="&#236;&#157;&#140;&#236;&#139;&#157;&#236;&#160;&#144;" filter="url(#filter0_d_868_764)">
<rect x="13" y="13" width="32" height="32" rx="16" fill="#3DA2FF"/>
<g id="Layer 190">
<path id="Vector" d="M24.9885 22C24.5407 22.0041 24.0991 22.0953 23.693 22.2678C23.2868 22.4402 22.9256 22.6898 22.6333 23C22.0261 23.6498 21.6971 24.4788 21.7073 25.3333V26C21.7032 26.5181 21.8332 27.0298 22.0867 27.4932C22.3401 27.9567 22.7098 28.3587 23.1656 28.6667V34.3333C23.1656 34.7754 23.3576 35.1993 23.6995 35.5118C24.0414 35.8244 24.505 36 24.9885 36C25.472 36 25.9356 35.8244 26.2775 35.5118C26.6194 35.1993 26.8114 34.7754 26.8114 34.3333V28.6933C27.2672 28.3854 27.6369 27.9833 27.8903 27.5199C28.1438 27.0564 28.2738 26.5448 28.2698 26.0267V25.36C28.287 24.4963 27.9576 23.6567 27.3437 23C27.0514 22.6898 26.6902 22.4402 26.2841 22.2678C25.8779 22.0953 25.4363 22.0041 24.9885 22ZM26.8114 26C26.8288 26.3224 26.7578 26.6437 26.605 26.9348C26.4522 27.2258 26.2224 27.4774 25.9364 27.6667C25.7592 27.7881 25.6146 27.9449 25.5135 28.1251C25.4124 28.3053 25.3576 28.5042 25.3531 28.7067V34.3333C25.3531 34.4217 25.3147 34.5065 25.2463 34.569C25.1779 34.6315 25.0852 34.6667 24.9885 34.6667C24.8918 34.6667 24.7991 34.6315 24.7307 34.569C24.6623 34.5065 24.6239 34.4217 24.6239 34.3333V28.7067C24.6195 28.5042 24.5646 28.3053 24.4635 28.1251C24.3625 27.9449 24.2178 27.7881 24.0406 27.6667C23.7546 27.4774 23.5248 27.2258 23.372 26.9348C23.2192 26.6437 23.1483 26.3224 23.1656 26V25.3333C23.1574 24.8041 23.3595 24.2901 23.7343 23.8867C23.8846 23.7144 24.0754 23.5753 24.2925 23.4797C24.5096 23.3841 24.7475 23.3345 24.9885 23.3345C25.2295 23.3345 25.4674 23.3841 25.6845 23.4797C25.9016 23.5753 26.0924 23.7144 26.2427 23.8867C26.6175 24.2901 26.8196 24.8041 26.8114 25.3333V26ZM36.2906 23C36.2906 22.8232 36.2138 22.6536 36.077 22.5286C35.9403 22.4036 35.7548 22.3333 35.5614 22.3333C35.368 22.3333 35.1826 22.4036 35.0458 22.5286C34.9091 22.6536 34.8323 22.8232 34.8323 23V26C34.8496 26.3224 34.7787 26.6437 34.6259 26.9348C34.4731 27.2258 34.2433 27.4774 33.9573 27.6667C33.7751 27.7915 33.6275 27.9536 33.5262 28.14C33.425 28.3264 33.3728 28.5319 33.3739 28.74V34.3333C33.3739 34.4217 33.3355 34.5065 33.2671 34.569C33.1988 34.6315 33.106 34.6667 33.0093 34.6667C32.9126 34.6667 32.8199 34.6315 32.7515 34.569C32.6832 34.5065 32.6448 34.4217 32.6448 34.3333V28.7067C32.6403 28.5042 32.5854 28.3053 32.4844 28.1251C32.3833 27.9449 32.2387 27.7881 32.0614 27.6667C31.7769 27.4761 31.5481 27.2243 31.3955 26.9336C31.2429 26.6429 31.1711 26.3222 31.1864 26V23C31.1864 22.8232 31.1096 22.6536 30.9729 22.5286C30.8361 22.4036 30.6506 22.3333 30.4573 22.3333C30.2639 22.3333 30.0784 22.4036 29.9417 22.5286C29.8049 22.6536 29.7281 22.8232 29.7281 23V26.3333C29.7283 26.4227 29.7481 26.5111 29.7864 26.5933C29.9308 27.4351 30.4342 28.1903 31.1864 28.6933V34.3333C31.1864 34.7754 31.3785 35.1993 31.7203 35.5118C32.0622 35.8244 32.5259 36 33.0093 36C33.4928 36 33.9565 35.8244 34.2983 35.5118C34.6402 35.1993 34.8323 34.7754 34.8323 34.3333V28.6933C35.5844 28.1903 36.0879 27.4351 36.2323 26.5933C36.2706 26.5111 36.2904 26.4227 36.2906 26.3333V23ZM32.2802 25.6667V23C32.2802 22.8232 32.357 22.6536 32.4937 22.5286C32.6305 22.4036 32.816 22.3333 33.0093 22.3333C33.2027 22.3333 33.3882 22.4036 33.5249 22.5286C33.6617 22.6536 33.7385 22.8232 33.7385 23V25.6667C33.7385 25.8435 33.6617 26.013 33.5249 26.1381C33.3882 26.2631 33.2027 26.3333 33.0093 26.3333C32.816 26.3333 32.6305 26.2631 32.4937 26.1381C32.357 26.013 32.2802 25.8435 32.2802 25.6667Z" fill="white"/>
</g>
</g>
<defs>
<filter id="filter0_d_868_764" x="0.7" y="0.7" width="56.6" height="56.6" filterUnits="userSpaceOnUse" color-interpolation-filters="sRGB">
<feFlood flood-opacity="0" result="BackgroundImageFix"/>
<feColorMatrix in="SourceAlpha" type="matrix" values="0 0 0 0 0 0 0 0 0 0 0 0 0 0 0 0 0 0 127 0" result="hardAlpha"/>
<feMorphology radius="2" operator="dilate" in="SourceAlpha" result="effect1_dropShadow_868_764"/>
<feOffset/>
<feGaussianBlur stdDeviation="5.15"/>
<feComposite in2="hardAlpha" operator="out"/>
<feColorMatrix type="matrix" values="0 0 0 0 0 0 0 0 0 0 0 0 0 0 0 0 0 0 0.12 0"/>
<feBlend mode="normal" in2="BackgroundImageFix" result="effect1_dropShadow_868_764"/>
<feBlend mode="normal" in="SourceGraphic" in2="effect1_dropShadow_868_764" result="shape"/>
</filter>
</defs>
</svg>
