<svg width="47" height="49" viewBox="0 0 47 49" fill="none" xmlns="http://www.w3.org/2000/svg">
<path d="M37.5337 7.00102H37.5356C45.0202 14.9737 45.0202 27.9016 37.5356 35.8743L27.1798 46.9054C26.3317 47.808 25.1818 48.3151 23.9828 48.3151C22.7839 48.3151 21.634 47.808 20.7858 46.9054L10.4301 35.8743C2.9455 27.9016 2.9455 14.9737 10.4301 7.00102C17.9128 -0.971693 30.0491 -0.971693 37.5337 7.00102ZM12.4618 9.16518C9.40695 12.4197 7.69082 16.8354 7.69082 21.4376C7.69082 26.0398 9.40695 30.4536 12.4618 33.7081L12.5058 33.7571L22.8175 44.7412C23.1262 45.0696 23.5446 45.2541 23.9809 45.2541C24.4172 45.2541 24.8356 45.0696 25.1443 44.7412L35.5001 33.7081C38.5188 30.4457 40.2042 26.0442 40.1888 21.4634C40.1734 16.8827 38.4583 12.4942 35.4177 9.25502C32.377 6.01578 28.2574 4.18853 23.9571 4.1717C19.6568 4.15487 15.5247 5.94983 12.4618 9.16518Z" fill="#3DA2FF"/>
<path d="M23.9805 27.5627C25.2513 27.5627 26.4701 27.0249 27.3687 26.0677C28.2673 25.1105 28.7722 23.8122 28.7722 22.4585C28.7722 21.1048 28.2673 19.8065 27.3687 18.8493C26.4701 17.8921 25.2513 17.3543 23.9805 17.3543C22.7097 17.3543 21.4909 17.8921 20.5923 18.8493C19.6937 19.8065 19.1888 21.1048 19.1888 22.4585C19.1888 23.8122 19.6937 25.1105 20.5923 26.0677C21.4909 27.0249 22.7097 27.5627 23.9805 27.5627Z" fill="#3DA2FF"/>
<path fill-rule="evenodd" clip-rule="evenodd" d="M12.4618 9.16518C9.40695 12.4197 7.69082 16.8354 7.69082 21.4376C7.69082 26.0398 9.40695 30.4536 12.4618 33.7081L12.5058 33.7571L22.8175 44.7412C23.1262 45.0696 23.5446 45.2541 23.9809 45.2541C24.4172 45.2541 24.8356 45.0696 25.1443 44.7412L35.5001 33.7081C38.5188 30.4457 40.2042 26.0442 40.1888 21.4634C40.1734 16.8827 38.4583 12.4942 35.4177 9.25502C32.377 6.01578 28.2574 4.18853 23.9571 4.1717C19.6568 4.15487 15.5247 5.94983 12.4618 9.16518ZM27.3687 26.0677C26.4701 27.0249 25.2513 27.5627 23.9805 27.5627C22.7097 27.5627 21.4909 27.0249 20.5923 26.0677C19.6937 25.1105 19.1888 23.8122 19.1888 22.4585C19.1888 21.1048 19.6937 19.8065 20.5923 18.8493C21.4909 17.8921 22.7097 17.3543 23.9805 17.3543C25.2513 17.3543 26.4701 17.8921 27.3687 18.8493C28.2673 19.8065 28.7722 21.1048 28.7722 22.4585C28.7722 23.8122 28.2673 25.1105 27.3687 26.0677Z" fill="white"/>
</svg>
