<svg width="58" height="58" viewBox="0 0 58 58" fill="none" xmlns="http://www.w3.org/2000/svg">
<g id="&#237;&#142;&#184;&#236;&#157;&#152;&#236;&#160;&#144;" filter="url(#filter0_d_868_767)">
<g id="Icon">
<path d="M22.875 22C22.3918 22 22 22.3687 22 22.8235C22 23.2784 22.3918 23.6471 22.875 23.6471H23.9418L24.2092 24.6536C24.212 24.6652 24.2151 24.6768 24.2184 24.6882L25.406 29.1591L24.625 29.8942C23.5225 30.9318 24.3033 32.7059 25.8624 32.7059H33.375C33.8582 32.7059 34.25 32.3372 34.25 31.8824C34.25 31.4275 33.8582 31.0588 33.375 31.0588L25.8624 31.0588L26.7374 30.2353H32.5C32.8314 30.2353 33.1344 30.0591 33.2826 29.7801L35.9076 24.8389C36.0432 24.5836 36.0288 24.2804 35.8693 24.0376C35.7099 23.7948 35.4283 23.6471 35.125 23.6471H25.7457L25.4739 22.6238C25.3765 22.2572 25.0265 22 24.625 22H22.875Z" fill="white"/>
<path d="M34.25 34.7647C34.25 35.4469 33.6624 36 32.9375 36C32.2126 36 31.625 35.4469 31.625 34.7647C31.625 34.0825 32.2126 33.5294 32.9375 33.5294C33.6624 33.5294 34.25 34.0825 34.25 34.7647Z" fill="white"/>
<path d="M25.9375 36C26.6624 36 27.25 35.4469 27.25 34.7647C27.25 34.0825 26.6624 33.5294 25.9375 33.5294C25.2126 33.5294 24.625 34.0825 24.625 34.7647C24.625 35.4469 25.2126 36 25.9375 36Z" fill="white"/>
</g>
</g>
<defs>
<filter id="filter0_d_868_767" x="0.7" y="0.7" width="56.6" height="56.6" filterUnits="userSpaceOnUse" color-interpolation-filters="sRGB">
<feFlood flood-opacity="0" result="BackgroundImageFix"/>
<feColorMatrix in="SourceAlpha" type="matrix" values="0 0 0 0 0 0 0 0 0 0 0 0 0 0 0 0 0 0 127 0" result="hardAlpha"/>
<feMorphology radius="2" operator="dilate" in="SourceAlpha" result="effect1_dropShadow_868_767"/>
<feOffset/>
<feGaussianBlur stdDeviation="5.15"/>
<feComposite in2="hardAlpha" operator="out"/>
<feColorMatrix type="matrix" values="0 0 0 0 0 0 0 0 0 0 0 0 0 0 0 0 0 0 0.12 0"/>
<feBlend mode="normal" in2="BackgroundImageFix" result="effect1_dropShadow_868_767"/>
<feBlend mode="normal" in="SourceGraphic" in2="effect1_dropShadow_868_767" result="shape"/>
</filter>
</defs>
</svg>
