<svg width="58" height="58" viewBox="0 0 58 58" fill="none" xmlns="http://www.w3.org/2000/svg">
<g id="&#234;&#180;&#128;&#234;&#180;&#145;&#235;&#170;&#133;&#236;&#134;&#140;" filter="url(#filter0_d_868_758)">
<rect x="13" y="13" width="32" height="32" rx="16" fill="#3DA2FF"/>
<g id="Icon">
<path d="M28.9859 22C28.7045 22.0037 28.4774 22.2309 28.4737 22.5122V25.9268C28.4737 26.2097 28.703 26.439 28.9859 26.439C29.2687 26.439 29.4981 26.2097 29.4981 25.9268V22.5122C29.4944 22.2309 29.2672 22.0037 28.9859 22Z" fill="white"/>
<path d="M28.9859 31.561C28.7045 31.5647 28.4774 31.7918 28.4737 32.0732V35.4878C28.4737 35.7707 28.703 36 28.9859 36C29.2687 36 29.4981 35.7707 29.4981 35.4878V32.0732C29.4944 31.7918 29.2672 31.5647 28.9859 31.561Z" fill="white"/>
<path d="M25.6873 23.3932C25.5265 23.1814 25.2317 23.1253 25.0044 23.2634C24.8925 23.3418 24.8166 23.4617 24.7935 23.5963C24.7704 23.731 24.8021 23.8693 24.8815 23.9805L26.8005 26.7737C26.8885 26.9587 27.0783 27.0734 27.283 27.0654C27.4877 27.0575 27.668 26.9283 27.7413 26.737C27.8146 26.5457 27.7669 26.3291 27.62 26.1863L25.6873 23.3932Z" fill="white"/>
<path d="M31.1712 31.2263C31.0091 30.9944 30.6895 30.9378 30.4576 31.1C30.2256 31.2622 30.1691 31.5817 30.3312 31.8137L32.2844 34.6068C32.4466 34.8388 32.7661 34.8954 32.9981 34.7332C33.23 34.571 33.2866 34.2515 33.1244 34.0195L31.1712 31.2263Z" fill="white"/>
<path d="M22.7166 27.2654L25.9264 28.4332C25.9828 28.443 26.0406 28.443 26.0971 28.4332C26.3174 28.4003 26.4912 28.2289 26.5271 28.009C26.5629 27.7892 26.4526 27.5714 26.2542 27.4702L23.0649 26.3024C22.9351 26.2451 22.7871 26.245 22.6572 26.3022C22.5273 26.3593 22.4274 26.4685 22.382 26.6029C22.3369 26.7351 22.3469 26.8799 22.4099 27.0045C22.4729 27.1292 22.5834 27.2232 22.7166 27.2654Z" fill="white"/>
<path d="M35.2551 30.7346L32.0454 29.5668C31.9143 29.514 31.7673 29.5169 31.6384 29.5749C31.5095 29.6329 31.4099 29.741 31.3625 29.8741C31.3076 30.0051 31.3095 30.1529 31.3677 30.2824C31.426 30.4118 31.5354 30.5113 31.6698 30.5571L34.9068 31.7317C34.9637 31.7529 35.0237 31.7644 35.0844 31.7659C35.2979 31.7649 35.4884 31.6315 35.5625 31.4312C35.6198 31.2986 35.6192 31.148 35.5609 31.0158C35.5026 30.8836 35.3918 30.7817 35.2551 30.7346Z" fill="white"/>
<path d="M26.5137 29.6829C26.4785 29.5515 26.3925 29.4395 26.2746 29.3716C26.1567 29.3037 26.0167 29.2855 25.8854 29.321L22.5868 30.1815C22.3312 30.2413 22.1622 30.4849 22.1956 30.7454C22.2291 31.0059 22.4541 31.1988 22.7166 31.1922C22.7619 31.1988 22.8079 31.1988 22.8532 31.1922L26.1517 30.3112C26.4229 30.2348 26.5836 29.9559 26.5137 29.6829Z" fill="white"/>
<path d="M31.4581 28.3171C31.5214 28.5407 31.7242 28.6962 31.9566 28.6995C31.9996 28.7061 32.0434 28.7061 32.0864 28.6995L35.3849 27.8185C35.5732 27.7841 35.7265 27.6475 35.7824 27.4644C35.8384 27.2814 35.7876 27.0825 35.6508 26.9486C35.514 26.8148 35.314 26.7684 35.1322 26.8283L31.8337 27.7093C31.5668 27.7797 31.4017 28.0468 31.4581 28.3171Z" fill="white"/>
<path d="M26.6161 31.0488L24.4239 33.6439C24.3095 33.7962 24.289 33.9993 24.3707 34.1714C24.4524 34.3434 24.6229 34.4559 24.8132 34.4634C24.9663 34.4652 25.112 34.3973 25.2093 34.279L27.4015 31.6634C27.4897 31.5594 27.5328 31.4246 27.5213 31.2887C27.5098 31.1528 27.4445 31.0271 27.34 30.9395C27.1088 30.7744 26.7883 30.8228 26.6161 31.0488Z" fill="white"/>
<path d="M30.9595 27.1561C31.1154 27.1499 31.2605 27.0749 31.3556 26.9512L33.5478 24.3561C33.7085 24.1472 33.6818 23.85 33.4864 23.6732C33.3824 23.5849 33.2475 23.5418 33.1116 23.5533C32.9757 23.5649 32.8501 23.6301 32.7625 23.7346L30.5703 26.3161C30.482 26.4201 30.4389 26.5549 30.4504 26.6908C30.462 26.8267 30.5272 26.9524 30.6317 27.04C30.7232 27.1173 30.8398 27.1586 30.9595 27.1561Z" fill="white"/>
</g>
</g>
<defs>
<filter id="filter0_d_868_758" x="0.7" y="0.7" width="56.6" height="56.6" filterUnits="userSpaceOnUse" color-interpolation-filters="sRGB">
<feFlood flood-opacity="0" result="BackgroundImageFix"/>
<feColorMatrix in="SourceAlpha" type="matrix" values="0 0 0 0 0 0 0 0 0 0 0 0 0 0 0 0 0 0 127 0" result="hardAlpha"/>
<feMorphology radius="2" operator="dilate" in="SourceAlpha" result="effect1_dropShadow_868_758"/>
<feOffset/>
<feGaussianBlur stdDeviation="5.15"/>
<feComposite in2="hardAlpha" operator="out"/>
<feColorMatrix type="matrix" values="0 0 0 0 0 0 0 0 0 0 0 0 0 0 0 0 0 0 0.12 0"/>
<feBlend mode="normal" in2="BackgroundImageFix" result="effect1_dropShadow_868_758"/>
<feBlend mode="normal" in="SourceGraphic" in2="effect1_dropShadow_868_758" result="shape"/>
</filter>
</defs>
</svg>
