<svg width="15" height="14" viewBox="0 0 15 14" fill="none" xmlns="http://www.w3.org/2000/svg">
<path d="M13.3931 1.98132C13.051 1.63956 12.6449 1.36846 12.1978 1.18349C11.7508 0.998523 11.2717 0.90332 10.7878 0.90332C10.3039 0.90332 9.82473 0.998523 9.3777 1.18349C8.93066 1.36846 8.5245 1.63956 8.18242 1.98132L7.47248 2.69025L6.76254 1.98132C6.07155 1.29132 5.13438 0.903678 4.15718 0.903678C3.17999 0.903678 2.24281 1.29132 1.55183 1.98132C0.860846 2.67132 0.472656 3.60716 0.472656 4.58297C0.472656 5.55878 0.860846 6.49463 1.55183 7.18463L2.26177 7.89356L7.47248 13.0969L12.6832 7.89356L13.3931 7.18463C13.7354 6.84303 14.0069 6.43745 14.1921 5.99105C14.3773 5.54465 14.4727 5.06618 14.4727 4.58297C14.4727 4.09977 14.3773 3.6213 14.1921 3.1749C14.0069 2.7285 13.7354 2.32292 13.3931 1.98132Z" fill="#FF5858"/>
</svg>
