<svg width="19" height="18" viewBox="0 0 19 18" fill="none" xmlns="http://www.w3.org/2000/svg">
<g clip-path="url(#clip0_153_3419)">
<path d="M14.6559 7.05H4.96094V12.9C4.96094 13.5896 5.23951 14.2509 5.73537 14.7385C6.23123 15.2261 6.90375 15.5 7.60501 15.5H12.0118C12.713 15.5 13.3856 15.2261 13.8814 14.7385C14.3773 14.2509 14.6559 13.5896 14.6559 12.9V12.25V7.05Z" fill="#3DA2FF"/>
<path d="M14.6559 7.05H15.3169C16.0181 7.05 16.6906 7.32393 17.1865 7.81152C17.6824 8.29912 17.9609 8.96044 17.9609 9.65C17.9609 10.3396 17.6824 11.0009 17.1865 11.4885C16.6906 11.9761 16.0181 12.25 15.3169 12.25H14.6559M14.6559 7.05H4.96094V12.9C4.96094 13.5896 5.23951 14.2509 5.73537 14.7385C6.23123 15.2261 6.90375 15.5 7.60501 15.5H12.0118C12.713 15.5 13.3856 15.2261 13.8814 14.7385C14.3773 14.2509 14.6559 13.5896 14.6559 12.9M14.6559 7.05V12.9M14.6559 7.05V12.25M14.6559 12.25V12.9M6.72365 2.5V4.45M9.36772 2.5V4.45M12.0118 2.5V4.45" stroke="#3DA2FF" stroke-linecap="round" stroke-linejoin="round"/>
</g>
<defs>
<clipPath id="clip0_153_3419">
<rect width="18" height="18" fill="white" transform="translate(0.472656)"/>
</clipPath>
</defs>
</svg>
