<svg width="15" height="14" viewBox="0 0 15 14" fill="none" xmlns="http://www.w3.org/2000/svg">
<path d="M3.46507 0C3.01731 0.00405575 2.57564 0.095346 2.16952 0.267783C1.76339 0.44022 1.40214 0.689841 1.10986 1C0.502697 1.64979 0.1737 2.47876 0.18382 3.33333V4C0.17979 4.51813 0.3098 5.02978 0.563242 5.49322C0.816684 5.95665 1.18638 6.35874 1.64215 6.66667V12.3333C1.64215 12.7754 1.83421 13.1993 2.17607 13.5118C2.51794 13.8244 2.9816 14 3.46507 14C3.94854 14 4.4122 13.8244 4.75407 13.5118C5.09593 13.1993 5.28799 12.7754 5.28799 12.3333V6.69333C5.74376 6.38541 6.11346 5.98332 6.3669 5.51988C6.62034 5.05645 6.75035 4.54479 6.74632 4.02667V3.36C6.76356 2.49628 6.43412 1.65672 5.82028 1C5.528 0.689841 5.16675 0.44022 4.76063 0.267783C4.3545 0.095346 3.91283 0.00405575 3.46507 0ZM5.28799 4C5.30532 4.32243 5.23438 4.64372 5.08159 4.93475C4.9288 5.22579 4.69899 5.47736 4.41299 5.66667C4.23575 5.78813 4.09111 5.94492 3.99004 6.12511C3.88897 6.30531 3.83412 6.5042 3.82965 6.70667V12.3333C3.82965 12.4217 3.79124 12.5065 3.72287 12.569C3.6545 12.6315 3.56176 12.6667 3.46507 12.6667C3.36838 12.6667 3.27564 12.6315 3.20727 12.569C3.1389 12.5065 3.10049 12.4217 3.10049 12.3333V6.70667C3.09602 6.5042 3.04117 6.30531 2.9401 6.12511C2.83903 5.94492 2.69439 5.78813 2.51715 5.66667C2.23115 5.47736 2.00134 5.22579 1.84855 4.93475C1.69576 4.64372 1.62482 4.32243 1.64215 4V3.33333C1.63398 2.80407 1.83606 2.29006 2.2109 1.88667C2.36116 1.71441 2.55194 1.57531 2.76906 1.47972C2.98619 1.38412 3.22408 1.33448 3.46507 1.33448C3.70606 1.33448 3.94395 1.38412 4.16108 1.47972C4.3782 1.57531 4.56898 1.71441 4.71924 1.88667C5.09408 2.29006 5.29616 2.80407 5.28799 3.33333V4ZM14.7672 1C14.7672 0.823189 14.6903 0.65362 14.5536 0.528595C14.4168 0.403571 14.2314 0.333333 14.038 0.333333C13.8446 0.333333 13.6591 0.403571 13.5224 0.528595C13.3856 0.65362 13.3088 0.823189 13.3088 1V4C13.3262 4.32243 13.2552 4.64372 13.1024 4.93475C12.9496 5.22579 12.7198 5.47736 12.4338 5.66667C12.2517 5.79154 12.1041 5.95365 12.0028 6.14003C11.9015 6.32641 11.8494 6.53188 11.8505 6.74V12.3333C11.8505 12.4217 11.8121 12.5065 11.7437 12.569C11.6753 12.6315 11.5826 12.6667 11.4859 12.6667C11.3892 12.6667 11.2965 12.6315 11.2281 12.569C11.1597 12.5065 11.1213 12.4217 11.1213 12.3333V6.70667C11.1169 6.5042 11.062 6.30531 10.9609 6.12511C10.8599 5.94492 10.7152 5.78813 10.538 5.66667C10.2534 5.47611 10.0247 5.22431 9.87206 4.93358C9.71943 4.64285 9.64761 4.32218 9.66299 4V1C9.66299 0.823189 9.58616 0.65362 9.44942 0.528595C9.31267 0.403571 9.12721 0.333333 8.93382 0.333333C8.74043 0.333333 8.55497 0.403571 8.41822 0.528595C8.28148 0.65362 8.20465 0.823189 8.20465 1V4.33333C8.20484 4.4227 8.22468 4.51112 8.26299 4.59333C8.40737 5.43512 8.9108 6.19026 9.66299 6.69333V12.3333C9.66299 12.7754 9.85504 13.1993 10.1969 13.5118C10.5388 13.8244 11.0024 14 11.4859 14C11.9694 14 12.433 13.8244 12.7749 13.5118C13.1168 13.1993 13.3088 12.7754 13.3088 12.3333V6.69333C14.061 6.19026 14.5644 5.43512 14.7088 4.59333C14.7471 4.51112 14.767 4.4227 14.7672 4.33333V1ZM10.7567 3.66667V1C10.7567 0.823189 10.8336 0.65362 10.9703 0.528595C11.107 0.403571 11.2925 0.333333 11.4859 0.333333C11.6793 0.333333 11.8648 0.403571 12.0015 0.528595C12.1382 0.65362 12.2151 0.823189 12.2151 1V3.66667C12.2151 3.84348 12.1382 4.01305 12.0015 4.13807C11.8648 4.2631 11.6793 4.33333 11.4859 4.33333C11.2925 4.33333 11.107 4.2631 10.9703 4.13807C10.8336 4.01305 10.7567 3.84348 10.7567 3.66667Z" fill="#3DA2FF"/>
</svg>
