<svg width="19" height="18" viewBox="0 0 19 18" fill="none" xmlns="http://www.w3.org/2000/svg">
<path fill-rule="evenodd" clip-rule="evenodd" d="M9.90973 11.7065C19.6182 5.00602 12.3897 -0.122004 9.47418 2.87623C6.55772 -0.122004 -0.670759 5.00602 9.03862 11.7065L8.83062 12.1225C8.81754 12.1486 8.80975 12.1771 8.80768 12.2063C8.8056 12.2354 8.8093 12.2647 8.81854 12.2924C8.83721 12.3485 8.87737 12.3948 8.93017 12.4212C8.98298 12.4476 9.04412 12.4519 9.10013 12.4332C9.15614 12.4146 9.20244 12.3744 9.22884 12.3216L9.2644 12.2505C9.2724 12.4016 9.28573 12.5305 9.30973 12.6505C9.37018 12.9563 9.49462 13.2034 9.70795 13.6301L9.71951 13.6549C9.90796 14.0301 9.88129 14.4105 9.76396 14.7625C9.64396 15.1198 9.43862 15.4301 9.28929 15.6541C9.25652 15.7031 9.24457 15.7631 9.25607 15.821C9.26757 15.8788 9.30159 15.9297 9.35062 15.9625C9.39966 15.9953 9.4597 16.0072 9.51755 15.9957C9.57539 15.9842 9.6263 15.9502 9.65907 15.9012L9.66262 15.895C9.81018 15.6745 10.0457 15.3207 10.1853 14.9038C10.3275 14.4781 10.3737 13.9696 10.1177 13.4558C9.8884 12.9981 9.79329 12.8052 9.74529 12.5634C9.7281 12.4787 9.7171 12.3928 9.7124 12.3065L9.71951 12.3216C9.74591 12.3744 9.79222 12.4146 9.84823 12.4332C9.90424 12.4519 9.96537 12.4476 10.0182 12.4212C10.071 12.3948 10.1111 12.3485 10.1298 12.2924C10.1485 12.2364 10.1441 12.1753 10.1177 12.1225L9.90973 11.7065ZM8.34173 3.12779C7.30439 2.58556 5.85283 3.00157 5.27149 4.13668C5.06082 4.54824 4.95149 5.09669 5.09193 5.78113C5.14082 6.02114 5.50705 5.95625 5.56038 5.71802C5.81372 4.60157 6.60661 3.52957 8.21728 3.4709C8.42528 3.46379 8.52662 3.22379 8.34173 3.12779Z" fill="#5FBA8E"/>
</svg>
