<svg width="21" height="20" viewBox="0 0 21 20" fill="none" xmlns="http://www.w3.org/2000/svg">
<path d="M10.4585 3C10.1772 3.00368 9.95001 3.23086 9.94633 3.5122V6.92683C9.94633 7.20971 10.1756 7.43902 10.4585 7.43902C10.7414 7.43902 10.9707 7.20971 10.9707 6.92683V3.5122C10.967 3.23086 10.7399 3.00368 10.4585 3Z" fill="#5FBA8E"/>
<path d="M10.4585 12.561C10.1772 12.5647 9.95001 12.7918 9.94633 13.0732V16.4878C9.94633 16.7707 10.1756 17 10.4585 17C10.7414 17 10.9707 16.7707 10.9707 16.4878V13.0732C10.967 12.7918 10.7399 12.5647 10.4585 12.561Z" fill="#5FBA8E"/>
<path d="M7.15999 4.39317C6.9992 4.18135 6.70433 4.12532 6.47706 4.26341C6.36517 4.34182 6.28925 4.46167 6.26616 4.59633C6.24308 4.73099 6.27475 4.86929 6.35413 4.98049L8.27316 7.77366C8.36116 7.95866 8.55093 8.07343 8.75564 8.06545C8.96034 8.05747 9.14061 7.92828 9.21394 7.737C9.28728 7.54571 9.23958 7.32912 9.09267 7.18634L7.15999 4.39317Z" fill="#5FBA8E"/>
<path d="M12.6439 12.2263C12.4817 11.9944 12.1622 11.9378 11.9302 12.1C11.6983 12.2622 11.6417 12.5817 11.8039 12.8137L13.7571 15.6068C13.9192 15.8388 14.2388 15.8954 14.4707 15.7332C14.7027 15.571 14.7592 15.2515 14.5971 15.0195L12.6439 12.2263Z" fill="#5FBA8E"/>
<path d="M4.18926 8.26537L7.39901 9.43317C7.4555 9.44299 7.51326 9.44299 7.56974 9.43317C7.79005 9.40032 7.96387 9.22887 7.99973 9.00904C8.03558 8.7892 7.92526 8.5714 7.72682 8.47024L4.53755 7.30244C4.40772 7.2451 4.25976 7.245 4.12986 7.30216C3.99995 7.35932 3.90006 7.46847 3.85462 7.60293C3.80952 7.73511 3.8196 7.87989 3.88257 8.00455C3.94554 8.12921 4.0561 8.22323 4.18926 8.26537Z" fill="#5FBA8E"/>
<path d="M16.7278 11.7346L13.518 10.5668C13.3869 10.514 13.24 10.5169 13.1111 10.5749C12.9822 10.6329 12.8825 10.741 12.8351 10.8741C12.7802 11.0051 12.7821 11.1529 12.8404 11.2824C12.8986 11.4118 13.008 11.5113 13.1424 11.5571L16.3795 12.7317C16.4364 12.7529 16.4964 12.7644 16.5571 12.7659C16.7706 12.7649 16.9611 12.6315 17.0351 12.4312C17.0924 12.2986 17.0919 12.148 17.0335 12.0158C16.9752 11.8836 16.8644 11.7817 16.7278 11.7346Z" fill="#5FBA8E"/>
<path d="M7.98633 10.6829C7.95114 10.5515 7.86512 10.4395 7.74726 10.3716C7.62939 10.3037 7.48936 10.2855 7.35804 10.321L4.0595 11.1815C3.80381 11.2413 3.63483 11.4849 3.66827 11.7454C3.70171 12.0059 3.92673 12.1988 4.18926 12.1922C4.23454 12.1988 4.28056 12.1988 4.32584 12.1922L7.62438 11.3112C7.89557 11.2348 8.05622 10.9559 7.98633 10.6829Z" fill="#5FBA8E"/>
<path d="M12.9307 9.31707C12.9941 9.54073 13.1968 9.69624 13.4293 9.69951C13.4723 9.70607 13.516 9.70607 13.559 9.69951L16.8576 8.81854C17.0458 8.78405 17.1991 8.64748 17.2551 8.46445C17.311 8.28141 17.2603 8.08245 17.1235 7.94861C16.9867 7.81476 16.7866 7.76835 16.6049 7.82829L13.3063 8.70927C13.0394 8.77973 12.8744 9.04682 12.9307 9.31707Z" fill="#5FBA8E"/>
<path d="M8.08877 12.0488L5.89657 14.6439C5.78215 14.7962 5.76166 14.9993 5.84338 15.1714C5.92509 15.3434 6.09553 15.4559 6.28584 15.4634C6.43899 15.4651 6.58467 15.3973 6.68194 15.279L8.87414 12.6634C8.96237 12.5594 9.0055 12.4246 8.99396 12.2887C8.98242 12.1528 8.91717 12.0271 8.81267 11.9395C8.58147 11.7744 8.26093 11.8228 8.08877 12.0488Z" fill="#5FBA8E"/>
<path d="M12.4322 8.1561C12.5881 8.14994 12.7332 8.07489 12.8283 7.95122L15.0205 5.3561C15.1812 5.14725 15.1544 4.84997 14.959 4.67317C14.855 4.58494 14.7202 4.54181 14.5843 4.55335C14.4484 4.56488 14.3227 4.63013 14.2351 4.73463L12.0429 7.3161C11.9547 7.42008 11.9116 7.55495 11.9231 7.69083C11.9346 7.82671 11.9999 7.95239 12.1044 8.04C12.1959 8.11734 12.3124 8.15862 12.4322 8.1561Z" fill="#5FBA8E"/>
</svg>
